<svg width="115" height="16" viewBox="0 0 115 16" fill="none" xmlns="http://www.w3.org/2000/svg">
<path d="M0.95625 15L3.63625 1.52H9.87625L12.5363 15H9.11625L8.81625 13.14H4.67625L4.39625 15H0.95625ZM8.19625 10.18L7.21625 4.32H6.27625L5.29625 10.18H8.19625ZM13.3838 5H16.6638V5.9C17.8238 5.3 18.8104 4.92 19.6238 4.76V8.08C19.1704 8.13333 18.6971 8.20667 18.2038 8.3C17.7104 8.38 17.2104 8.49333 16.7038 8.64V15H13.3838V5ZM20.848 10.32C20.848 8.42667 21.2213 7.02667 21.968 6.12C22.7146 5.2 23.8813 4.74 25.468 4.74C26.9213 4.74 28.028 5.11333 28.788 5.86C29.5613 6.60667 29.948 7.71333 29.948 9.18L29.668 11.14H24.188C24.2146 11.3533 24.2613 11.5333 24.328 11.68C24.408 11.8267 24.5146 11.9533 24.648 12.06C24.7813 12.1533 24.9546 12.2267 25.168 12.28C25.3946 12.32 25.6746 12.34 26.008 12.34C26.5413 12.34 27.0546 12.3333 27.548 12.32C28.0413 12.3067 28.5413 12.2733 29.048 12.22L29.588 12.16L29.628 14.58C28.108 15.0333 26.6813 15.26 25.348 15.26C24.5746 15.26 23.908 15.1733 23.348 15C22.788 14.84 22.3213 14.5667 21.948 14.18C21.5746 13.7933 21.2946 13.2867 21.108 12.66C20.9346 12.0333 20.848 11.2533 20.848 10.32ZM24.168 8.92H26.688C26.688 8.33333 26.6013 7.94 26.428 7.74C26.268 7.54 25.9413 7.44 25.448 7.44C24.9413 7.44 24.6013 7.54667 24.428 7.76C24.268 7.97333 24.1813 8.36 24.168 8.92ZM32.0219 7.94H31.0219V5.14H32.0219V4.8C32.0219 4.06667 32.0685 3.45333 32.1619 2.96C32.2685 2.46667 32.4419 2.07333 32.6819 1.78C32.9219 1.47333 33.2352 1.26 33.6219 1.14C34.0219 1.00667 34.5085 0.94 35.0819 0.94L37.4819 1.14L37.4419 3.94C37.1752 3.92667 36.9352 3.91333 36.7219 3.9C36.5352 3.88667 36.3619 3.87333 36.2019 3.86C36.0419 3.84667 35.9485 3.84 35.9219 3.84C35.7619 3.84 35.6219 3.92667 35.5019 4.1C35.3952 4.26 35.3419 4.5 35.3419 4.82V5.14H37.5019V7.94H35.3419V15H32.0219V7.94ZM38.8948 10.32C38.8948 8.42667 39.2682 7.02667 40.0148 6.12C40.7615 5.2 41.9282 4.74 43.5148 4.74C44.9682 4.74 46.0748 5.11333 46.8348 5.86C47.6082 6.60667 47.9948 7.71333 47.9948 9.18L47.7148 11.14H42.2348C42.2615 11.3533 42.3082 11.5333 42.3748 11.68C42.4548 11.8267 42.5615 11.9533 42.6948 12.06C42.8282 12.1533 43.0015 12.2267 43.2148 12.28C43.4415 12.32 43.7215 12.34 44.0548 12.34C44.5882 12.34 45.1015 12.3333 45.5948 12.32C46.0882 12.3067 46.5882 12.2733 47.0948 12.22L47.6348 12.16L47.6748 14.58C46.1548 15.0333 44.7282 15.26 43.3948 15.26C42.6215 15.26 41.9548 15.1733 41.3948 15C40.8348 14.84 40.3682 14.5667 39.9948 14.18C39.6215 13.7933 39.3415 13.2867 39.1548 12.66C38.9815 12.0333 38.8948 11.2533 38.8948 10.32ZM42.2148 8.92H44.7348C44.7348 8.33333 44.6482 7.94 44.4748 7.74C44.3148 7.54 43.9882 7.44 43.4948 7.44C42.9882 7.44 42.6482 7.54667 42.4748 7.76C42.3148 7.97333 42.2282 8.36 42.2148 8.92ZM49.5488 1.2H52.8888V5.44C53.3688 5.18667 53.7688 5.00667 54.0888 4.9C54.4088 4.79333 54.7888 4.74 55.2288 4.74C55.8021 4.74 56.2954 4.83333 56.7088 5.02C57.1354 5.19333 57.4888 5.47333 57.7688 5.86C58.0488 6.23333 58.2554 6.72 58.3888 7.32C58.5354 7.92 58.6088 8.64667 58.6088 9.5V15H55.2888V9.58C55.2888 9.14 55.2621 8.79333 55.2088 8.54C55.1554 8.28667 55.0821 8.1 54.9888 7.98C54.8954 7.86 54.7821 7.78667 54.6488 7.76C54.5154 7.72 54.3754 7.7 54.2288 7.7C53.9888 7.7 53.7488 7.72 53.5088 7.76C53.2688 7.78667 53.0554 7.82667 52.8688 7.88V15H49.5488V1.2ZM59.8784 1.52H64.8584C66.5384 1.52 67.7984 1.92667 68.6384 2.74C69.4918 3.55333 69.9184 4.76667 69.9184 6.38C69.9184 8.00667 69.4918 9.25333 68.6384 10.12C67.7851 10.9867 66.5251 11.42 64.8584 11.42H63.2984V15H59.8784V1.52ZM64.8384 8.52C65.9451 8.52 66.4984 7.80667 66.4984 6.38C66.4984 5.68667 66.3651 5.18667 66.0984 4.88C65.8451 4.57333 65.4251 4.42 64.8384 4.42H63.2984V8.52H64.8384ZM70.8433 11.94C70.8433 11.3667 70.9166 10.8867 71.0633 10.5C71.2099 10.1133 71.4299 9.79333 71.7233 9.54C72.0299 9.28667 72.4166 9.1 72.8833 8.98C73.3499 8.86 73.9099 8.78 74.5633 8.74L76.1833 8.66V8.18C76.1833 7.91333 76.1233 7.74 76.0033 7.66C75.8833 7.58 75.6366 7.54 75.2633 7.54C74.6366 7.54 74.0166 7.54667 73.4033 7.56C72.8033 7.57333 72.2033 7.6 71.6033 7.64L71.5033 5.4C72.9299 4.96 74.3033 4.74 75.6233 4.74C77.0099 4.74 78.0033 5.01333 78.6033 5.56C79.2033 6.09333 79.5033 6.96667 79.5033 8.18V11.82C79.5166 11.9133 79.5233 12.0133 79.5233 12.12C79.5233 12.2133 79.5299 12.3067 79.5433 12.4C79.5699 12.48 79.6099 12.56 79.6633 12.64C79.7166 12.7067 79.7966 12.76 79.9033 12.8L79.8033 15.26C79.4166 15.26 79.0766 15.2533 78.7833 15.24C78.5033 15.2267 78.2433 15.1933 78.0033 15.14C77.7766 15.1 77.5566 15.04 77.3433 14.96C77.1433 14.8667 76.9233 14.7533 76.6833 14.62C75.8033 15.0467 74.9366 15.26 74.0833 15.26C71.9233 15.26 70.8433 14.1533 70.8433 11.94ZM74.8433 12.58C75.1633 12.58 75.5433 12.54 75.9833 12.46L76.1833 12.42V10.92L74.9633 11C74.4299 11.0667 74.1633 11.36 74.1633 11.88C74.1633 12.3467 74.3899 12.58 74.8433 12.58ZM80.9033 5H84.2033V5.48C84.6566 5.21333 85.0566 5.02667 85.4033 4.92C85.7499 4.8 86.1433 4.74 86.5833 4.74C87.1433 4.74 87.6299 4.82667 88.0433 5C88.4699 5.17333 88.8233 5.45333 89.1033 5.84C89.3833 6.21333 89.5966 6.7 89.7433 7.3C89.8899 7.9 89.9633 8.63333 89.9633 9.5V15H86.6433V9.6C86.6433 9.12 86.6166 8.75333 86.5633 8.5C86.5099 8.24667 86.4233 8.06 86.3033 7.94C86.1966 7.82 86.0633 7.75333 85.9033 7.74C85.7433 7.71333 85.5499 7.7 85.3233 7.7C85.2433 7.7 85.0766 7.72 84.8233 7.76C84.5833 7.8 84.3833 7.83333 84.2233 7.86V15H80.9033V5ZM90.9409 11.94C90.9409 11.3667 91.0143 10.8867 91.1609 10.5C91.3076 10.1133 91.5276 9.79333 91.8209 9.54C92.1276 9.28667 92.5143 9.1 92.9809 8.98C93.4476 8.86 94.0076 8.78 94.6609 8.74L96.2809 8.66V8.18C96.2809 7.91333 96.2209 7.74 96.1009 7.66C95.9809 7.58 95.7343 7.54 95.3609 7.54C94.7343 7.54 94.1143 7.54667 93.5009 7.56C92.9009 7.57333 92.3009 7.6 91.7009 7.64L91.6009 5.4C93.0276 4.96 94.4009 4.74 95.7209 4.74C97.1076 4.74 98.1009 5.01333 98.7009 5.56C99.3009 6.09333 99.6009 6.96667 99.6009 8.18V11.82C99.6143 11.9133 99.6209 12.0133 99.6209 12.12C99.6209 12.2133 99.6276 12.3067 99.6409 12.4C99.6676 12.48 99.7076 12.56 99.7609 12.64C99.8143 12.7067 99.8943 12.76 100.001 12.8L99.9009 15.26C99.5143 15.26 99.1743 15.2533 98.8809 15.24C98.6009 15.2267 98.3409 15.1933 98.1009 15.14C97.8743 15.1 97.6543 15.04 97.4409 14.96C97.2409 14.8667 97.0209 14.7533 96.7809 14.62C95.9009 15.0467 95.0343 15.26 94.1809 15.26C92.0209 15.26 90.9409 14.1533 90.9409 11.94ZM94.9409 12.58C95.2609 12.58 95.6409 12.54 96.0809 12.46L96.2809 12.42V10.92L95.0609 11C94.5276 11.0667 94.2609 11.36 94.2609 11.88C94.2609 12.3467 94.4876 12.58 94.9409 12.58ZM101.541 1.2H104.881V5.44C105.361 5.18667 105.761 5.00667 106.081 4.9C106.401 4.79333 106.781 4.74 107.221 4.74C107.794 4.74 108.288 4.83333 108.701 5.02C109.128 5.19333 109.481 5.47333 109.761 5.86C110.041 6.23333 110.248 6.72 110.381 7.32C110.528 7.92 110.601 8.64667 110.601 9.5V15H107.281V9.58C107.281 9.14 107.254 8.79333 107.201 8.54C107.148 8.28667 107.074 8.1 106.981 7.98C106.888 7.86 106.774 7.78667 106.641 7.76C106.508 7.72 106.368 7.7 106.221 7.7C105.981 7.7 105.741 7.72 105.501 7.76C105.261 7.78667 105.048 7.82667 104.861 7.88V15H101.541V1.2ZM111.431 5H114.751V15H111.431V5ZM111.431 0.76H114.751V3.96H111.431V0.76Z" fill="#FC2947"/>
</svg>
