<svg width="18" height="18" viewBox="0 0 18 18" fill="none" xmlns="http://www.w3.org/2000/svg">
<g id="vuesax/outline/bag-2">
<g id="bag-2">
<path id="Vector" d="M12.375 6.4725C12.0675 6.4725 11.8125 6.21749 11.8125 5.91V4.87499C11.8125 4.0875 11.475 3.3225 10.89 2.79C10.2975 2.25 9.5325 2.0025 8.7225 2.0775C7.3725 2.205 6.1875 3.585 6.1875 5.02499V5.75249C6.1875 6.06 5.9325 6.31499 5.625 6.31499C5.3175 6.31499 5.0625 6.06 5.0625 5.75249V5.0175C5.0625 3 6.69 1.14 8.6175 0.952495C9.7425 0.847495 10.8225 1.2 11.6475 1.9575C12.465 2.7 12.9375 3.765 12.9375 4.87499V5.91C12.9375 6.21749 12.6825 6.4725 12.375 6.4725Z" fill="white"/>
<path id="Vector_2" d="M11.25 17.0625H6.75C3.285 17.0625 2.64 15.45 2.475 13.8825L1.9125 9.39C1.83 8.58 1.8 7.4175 2.5875 6.5475C3.2625 5.7975 4.38 5.4375 6 5.4375H12C13.6275 5.4375 14.745 5.805 15.4125 6.5475C16.1925 7.4175 16.17 8.58 16.0875 9.375L15.525 13.8825C15.36 15.45 14.715 17.0625 11.25 17.0625ZM6 6.5625C4.7325 6.5625 3.8625 6.81 3.42 7.305C3.0525 7.71 2.9325 8.3325 3.03 9.2625L3.5925 13.755C3.72 14.955 4.05 15.945 6.75 15.945H11.25C13.95 15.945 14.28 14.9625 14.4075 13.77L14.97 9.2625C15.0675 8.3475 14.9475 7.725 14.58 7.3125C14.1375 6.81 13.2675 6.5625 12 6.5625H6Z" fill="white"/>
<path id="Vector_3" d="M11.565 9.8625C11.145 9.8625 10.8075 9.525 10.8075 9.1125C10.8075 8.7 11.145 8.3625 11.5575 8.3625C11.97 8.3625 12.3075 8.7 12.3075 9.1125C12.3075 9.525 11.9775 9.8625 11.565 9.8625Z" fill="white"/>
<path id="Vector_4" d="M6.315 9.8625C5.895 9.8625 5.5575 9.525 5.5575 9.1125C5.5575 8.7 5.895 8.3625 6.3075 8.3625C6.72 8.3625 7.0575 8.7 7.0575 9.1125C7.0575 9.525 6.7275 9.8625 6.315 9.8625Z" fill="white"/>
</g>
</g>
</svg>
