<svg width="25" height="25" viewBox="0 0 25 25" fill="none" xmlns="http://www.w3.org/2000/svg">
<path d="M17.1875 8.98958C16.7604 8.98958 16.4062 8.63541 16.4062 8.20833V6.77083C16.4062 5.67708 15.9375 4.61458 15.125 3.875C14.3021 3.125 13.2396 2.78125 12.1146 2.88541C10.2396 3.0625 8.59375 4.97916 8.59375 6.97916V7.98958C8.59375 8.41666 8.23958 8.77083 7.8125 8.77083C7.38542 8.77083 7.03125 8.41666 7.03125 7.98958V6.96875C7.03125 4.16666 9.29167 1.58333 11.9687 1.32291C13.5312 1.17708 15.0312 1.66666 16.1771 2.71875C17.3125 3.75 17.9688 5.22916 17.9688 6.77083V8.20833C17.9688 8.63541 17.6146 8.98958 17.1875 8.98958Z" fill="white"/>
<path d="M15.6251 23.6979H9.37505C4.56255 23.6979 3.66672 21.4583 3.43755 19.2813L2.6563 13.0417C2.54172 11.9167 2.50005 10.3021 3.5938 9.09376C4.5313 8.05209 6.08339 7.55209 8.33339 7.55209H16.6667C18.9271 7.55209 20.4792 8.06251 21.4063 9.09376C22.4896 10.3021 22.4584 11.9167 22.3438 13.0208L21.5626 19.2813C21.3334 21.4583 20.4376 23.6979 15.6251 23.6979ZM8.33339 9.11459C6.57297 9.11459 5.36464 9.45834 4.75005 10.1458C4.23964 10.7083 4.07297 11.5729 4.20839 12.8646L4.98964 19.1042C5.16672 20.7708 5.62505 22.1458 9.37505 22.1458H15.6251C19.3751 22.1458 19.8334 20.7813 20.0105 19.125L20.7917 12.8646C20.9271 11.5938 20.7605 10.7292 20.2501 10.1563C19.6355 9.45834 18.4271 9.11459 16.6667 9.11459H8.33339Z" fill="white"/>
<path d="M16.0626 13.6979C15.4792 13.6979 15.0105 13.2291 15.0105 12.6562C15.0105 12.0833 15.4792 11.6146 16.0522 11.6146C16.6251 11.6146 17.0938 12.0833 17.0938 12.6562C17.0938 13.2291 16.6355 13.6979 16.0626 13.6979Z" fill="white"/>
<path d="M8.77083 13.6979C8.1875 13.6979 7.71875 13.2291 7.71875 12.6562C7.71875 12.0833 8.1875 11.6146 8.76042 11.6146C9.33333 11.6146 9.80208 12.0833 9.80208 12.6562C9.80208 13.2291 9.34375 13.6979 8.77083 13.6979Z" fill="white"/>
</svg>
