<svg width="341" height="341" viewBox="0 0 341 341" fill="none" xmlns="http://www.w3.org/2000/svg">
<path d="M52.2891 140.922C59.9752 106.078 94.5731 80.019 119.991 79.9236C148.635 79.8144 173.044 101.748 192.283 103.684C209.251 105.396 230.264 80.4487 260.483 86.7436C285.035 91.8586 298.675 128.564 294.583 151.847C286.993 195.059 267.303 220.866 239.805 225.851C227.761 228.04 222.073 224.228 216.153 225.34C189.808 230.27 171.987 263.3 115.217 266.26C71.5692 268.49 35.621 216.474 52.2891 140.922Z" fill="#FC2947"/>
<path opacity="0.9" d="M52.2891 140.922C59.9752 106.078 94.5731 80.019 119.991 79.9236C148.635 79.8144 173.044 101.748 192.283 103.684C209.251 105.396 230.264 80.4487 260.483 86.7436C285.035 91.8586 298.675 128.564 294.583 151.847C286.993 195.059 267.303 220.866 239.805 225.851C227.761 228.04 222.073 224.228 216.153 225.34C189.808 230.27 171.987 263.3 115.217 266.26C71.5692 268.49 35.621 216.474 52.2891 140.922Z" fill="white"/>
<path d="M170.5 291.221C243.53 291.221 302.733 287.764 302.733 283.501C302.733 279.237 243.53 275.78 170.5 275.78C97.4698 275.78 38.2671 279.237 38.2671 283.501C38.2671 287.764 97.4698 291.221 170.5 291.221Z" fill="#F5F5F5"/>
<path d="M247.873 99.456H225.667L209.981 278.993H232.187C235.304 278.932 238.291 277.734 240.585 275.623C242.879 273.513 244.321 270.636 244.64 267.535L258.342 110.907C258.501 109.447 258.347 107.971 257.891 106.576C257.435 105.18 256.687 103.898 255.696 102.815C254.706 101.731 253.496 100.871 252.147 100.292C250.798 99.7131 249.341 99.428 247.873 99.456Z" fill="#FC2947"/>
<path d="M243.345 99.4562H168.188C165.071 99.5145 162.084 100.711 159.788 102.821C157.493 104.93 156.049 107.806 155.728 110.907L142.027 267.535C141.869 268.993 142.023 270.469 142.479 271.863C142.934 273.257 143.681 274.538 144.67 275.622C145.659 276.705 146.867 277.566 148.213 278.147C149.56 278.728 151.015 279.017 152.482 278.993H227.631C230.744 278.926 233.725 277.725 236.014 275.615C238.304 273.505 239.744 270.632 240.064 267.535L253.765 110.907C253.924 109.452 253.772 107.979 253.318 106.587C252.865 105.195 252.121 103.916 251.136 102.833C250.15 101.75 248.946 100.889 247.603 100.307C246.26 99.7251 244.808 99.435 243.345 99.4562Z" fill="#FC2947"/>
<path opacity="0.3" d="M243.345 99.4562H168.188C165.071 99.5145 162.084 100.711 159.788 102.821C157.493 104.93 156.049 107.806 155.728 110.907L142.027 267.535C141.869 268.993 142.023 270.469 142.479 271.863C142.934 273.257 143.681 274.538 144.67 275.622C145.659 276.705 146.867 277.566 148.213 278.147C149.56 278.728 151.015 279.017 152.482 278.993H227.631C230.744 278.926 233.725 277.725 236.014 275.615C238.304 273.505 239.744 270.632 240.064 267.535L253.765 110.907C253.924 109.452 253.772 107.979 253.318 106.587C252.865 105.195 252.121 103.916 251.136 102.833C250.15 101.75 248.946 100.889 247.603 100.307C246.26 99.7251 244.808 99.435 243.345 99.4562Z" fill="white"/>
<path opacity="0.4" d="M243.024 103.125H223.205C222.614 103.13 222.038 103.312 221.552 103.648C221.066 103.983 220.691 104.457 220.477 105.008C219.695 107.03 218.329 108.774 216.552 110.017C214.774 111.26 212.667 111.944 210.499 111.984H198.81C196.768 112.026 194.775 111.353 193.176 110.084C191.576 108.814 190.469 107.026 190.046 105.028C189.933 104.487 189.635 104.003 189.203 103.66C188.77 103.316 188.232 103.134 187.68 103.146H167.867C165.749 103.183 163.718 103.996 162.158 105.43C160.599 106.864 159.619 108.82 159.404 110.927L145.696 267.555C145.586 268.547 145.689 269.551 145.998 270.5C146.307 271.448 146.814 272.32 147.487 273.057C148.159 273.795 148.981 274.38 149.898 274.774C150.814 275.168 151.804 275.363 152.802 275.344H227.958C230.077 275.305 232.109 274.491 233.668 273.056C235.228 271.621 236.207 269.664 236.422 267.555L250.123 110.927C250.235 109.935 250.134 108.93 249.826 107.981C249.519 107.031 249.012 106.157 248.34 105.419C247.668 104.68 246.846 104.094 245.93 103.698C245.013 103.303 244.022 103.107 243.024 103.125Z" fill="white"/>
<path d="M224.296 188.232H171.701C171.339 188.238 170.98 188.167 170.648 188.024C170.316 187.881 170.019 187.668 169.775 187.401C169.531 187.135 169.347 186.819 169.234 186.475C169.122 186.132 169.084 185.768 169.123 185.408L169.389 182.394C169.467 181.63 169.822 180.92 170.388 180.4C170.953 179.88 171.689 179.585 172.458 179.571H225.06C225.422 179.565 225.78 179.636 226.112 179.779C226.444 179.922 226.742 180.134 226.986 180.401C227.23 180.668 227.414 180.984 227.526 181.327C227.639 181.671 227.677 182.035 227.638 182.394L227.379 185.408C227.299 186.175 226.941 186.885 226.373 187.405C225.805 187.925 225.067 188.219 224.296 188.232Z" fill="white"/>
<path d="M223.164 201.19H170.561C170.2 201.196 169.842 201.125 169.51 200.982C169.178 200.839 168.881 200.626 168.638 200.359C168.395 200.092 168.211 199.776 168.099 199.433C167.988 199.089 167.951 198.726 167.99 198.366L168.249 195.352C168.329 194.588 168.685 193.88 169.25 193.36C169.815 192.84 170.551 192.544 171.318 192.529H223.921C224.283 192.523 224.641 192.594 224.973 192.737C225.305 192.88 225.603 193.092 225.847 193.359C226.09 193.626 226.275 193.942 226.387 194.285C226.5 194.629 226.538 194.993 226.499 195.352L226.233 198.366C226.153 199.13 225.798 199.839 225.233 200.359C224.667 200.879 223.932 201.174 223.164 201.19Z" fill="white"/>
<path opacity="0.1" d="M208.317 106.058C208.23 106.907 207.835 107.694 207.207 108.271C206.578 108.848 205.76 109.174 204.907 109.188C204.506 109.195 204.108 109.117 203.74 108.959C203.372 108.8 203.041 108.565 202.771 108.269C202.501 107.973 202.296 107.622 202.172 107.241C202.048 106.86 202.006 106.456 202.049 106.058C202.136 105.209 202.531 104.422 203.16 103.845C203.788 103.268 204.606 102.941 205.459 102.927C205.86 102.92 206.258 102.998 206.627 103.157C206.995 103.316 207.325 103.551 207.596 103.847C207.866 104.143 208.07 104.493 208.195 104.875C208.319 105.256 208.361 105.659 208.317 106.058Z" fill="black"/>
<path opacity="0.1" d="M206.898 106.058C206.85 106.521 206.634 106.951 206.292 107.266C205.949 107.581 205.502 107.76 205.037 107.77C204.817 107.774 204.6 107.731 204.398 107.645C204.197 107.558 204.016 107.429 203.868 107.267C203.72 107.105 203.609 106.914 203.541 106.705C203.473 106.496 203.451 106.276 203.475 106.058C203.522 105.594 203.737 105.163 204.08 104.848C204.423 104.532 204.871 104.354 205.337 104.346C205.556 104.343 205.773 104.386 205.974 104.473C206.175 104.56 206.355 104.689 206.503 104.851C206.65 105.012 206.762 105.204 206.83 105.412C206.898 105.62 206.922 105.84 206.898 106.058Z" fill="black"/>
<g opacity="0.8">
<path d="M233.769 111.282C233.651 111.284 233.535 111.26 233.427 111.213C233.319 111.167 233.222 111.097 233.143 111.01C233.063 110.923 233.003 110.82 232.967 110.709C232.93 110.597 232.918 110.478 232.93 110.361L233.08 108.684C233.105 108.436 233.221 108.206 233.404 108.037C233.588 107.869 233.827 107.773 234.076 107.77C234.193 107.768 234.309 107.791 234.417 107.838C234.524 107.884 234.621 107.953 234.7 108.039C234.779 108.125 234.839 108.227 234.876 108.338C234.913 108.449 234.926 108.567 234.915 108.684L234.765 110.361C234.74 110.61 234.625 110.841 234.441 111.01C234.258 111.18 234.019 111.277 233.769 111.282Z" fill="white"/>
<path d="M241.108 111.282C240.99 111.284 240.873 111.26 240.765 111.213C240.657 111.167 240.56 111.097 240.481 111.01C240.402 110.923 240.342 110.82 240.305 110.709C240.269 110.597 240.256 110.478 240.269 110.361L240.616 106.426C240.642 106.178 240.757 105.948 240.94 105.78C241.124 105.611 241.363 105.516 241.612 105.512C241.729 105.511 241.845 105.534 241.953 105.58C242.06 105.627 242.157 105.695 242.236 105.782C242.315 105.868 242.375 105.97 242.412 106.081C242.449 106.192 242.463 106.31 242.451 106.426L242.103 110.361C242.078 110.61 241.963 110.841 241.78 111.01C241.596 111.18 241.357 111.277 241.108 111.282Z" fill="white"/>
<path d="M237.438 111.282C237.321 111.284 237.204 111.26 237.096 111.213C236.988 111.167 236.891 111.097 236.812 111.01C236.732 110.923 236.673 110.82 236.636 110.709C236.599 110.597 236.587 110.478 236.599 110.361L236.845 107.558C236.87 107.308 236.986 107.077 237.171 106.907C237.356 106.737 237.597 106.641 237.848 106.638C237.965 106.636 238.081 106.659 238.189 106.706C238.297 106.753 238.393 106.822 238.472 106.909C238.551 106.997 238.61 107.099 238.646 107.211C238.682 107.323 238.693 107.442 238.68 107.558L238.434 110.361C238.409 110.61 238.294 110.841 238.111 111.01C237.927 111.18 237.688 111.277 237.438 111.282Z" fill="white"/>
</g>
<g opacity="0.8">
<path d="M170.937 111.282H166.326C166.26 111.283 166.194 111.271 166.133 111.244C166.072 111.218 166.018 111.179 165.973 111.13C165.928 111.081 165.895 111.023 165.875 110.96C165.854 110.896 165.848 110.83 165.856 110.764L166.067 108.288C166.082 108.147 166.148 108.017 166.252 107.922C166.356 107.826 166.492 107.772 166.633 107.77H171.244C171.31 107.768 171.376 107.781 171.437 107.807C171.498 107.833 171.552 107.872 171.597 107.922C171.642 107.971 171.675 108.029 171.695 108.092C171.716 108.155 171.722 108.222 171.714 108.288L171.496 110.764C171.484 110.904 171.42 111.035 171.317 111.131C171.213 111.227 171.078 111.281 170.937 111.282Z" fill="white"/>
<path d="M173.071 110.607C173.005 110.608 172.939 110.595 172.877 110.569C172.816 110.543 172.761 110.504 172.716 110.455C172.671 110.406 172.637 110.348 172.616 110.285C172.595 110.222 172.587 110.155 172.594 110.088L172.696 108.956C172.71 108.815 172.775 108.684 172.88 108.588C172.984 108.493 173.121 108.439 173.262 108.438C173.329 108.437 173.395 108.449 173.456 108.476C173.517 108.502 173.571 108.541 173.616 108.59C173.66 108.639 173.694 108.697 173.714 108.76C173.734 108.824 173.741 108.89 173.733 108.956L173.637 110.088C173.623 110.229 173.557 110.359 173.452 110.455C173.348 110.55 173.213 110.604 173.071 110.607Z" fill="white"/>
</g>
<path d="M215.63 168.407C224.807 159.621 225.722 145.684 217.674 137.276C209.626 128.869 195.662 129.175 186.484 137.961C177.307 146.746 176.391 160.684 184.44 169.091C192.488 177.499 206.452 177.192 215.63 168.407Z" fill="white"/>
<path d="M201.136 152.345C195.352 152.345 190.462 154.548 190.046 159.329L189.583 164.642H210.54L211.004 159.329C211.42 154.548 206.926 152.345 201.136 152.345Z" fill="#FC2947"/>
<path d="M201.326 150.156C204.014 150.156 205.255 147.98 205.487 145.293C205.719 142.606 204.866 140.431 202.179 140.431C199.492 140.431 198.257 142.613 198.019 145.293C197.78 147.974 198.639 150.156 201.326 150.156Z" fill="#FC2947"/>
<path d="M221.896 183.717C220.47 183.717 219.263 184.263 219.168 185.443L219.052 186.759H224.228L224.344 185.443C224.44 184.263 223.328 183.717 221.896 183.717Z" fill="#FC2947"/>
<path d="M221.943 183.178C222.625 183.178 222.912 182.64 222.973 181.978C223.034 181.316 222.816 180.778 222.155 180.778C221.493 180.778 221.186 181.316 221.125 181.978C221.064 182.64 221.282 183.178 221.943 183.178Z" fill="#FC2947"/>
<path d="M205.964 214.148H185.504C184.949 214.158 184.399 214.05 183.889 213.831C183.379 213.611 182.922 213.286 182.548 212.876C182.174 212.467 181.891 211.982 181.719 211.454C181.546 210.927 181.488 210.369 181.548 209.817C181.67 208.645 182.216 207.557 183.084 206.759C183.952 205.961 185.082 205.509 186.261 205.487H206.721C207.275 205.478 207.826 205.587 208.335 205.806C208.844 206.026 209.301 206.351 209.675 206.761C210.049 207.17 210.331 207.654 210.504 208.181C210.677 208.708 210.736 209.266 210.677 209.817C210.557 210.991 210.011 212.079 209.142 212.877C208.274 213.675 207.143 214.127 205.964 214.148Z" fill="#FC2947"/>
<path d="M203.489 262.447H181.589C181.002 262.463 180.418 262.352 179.877 262.122C179.336 261.892 178.851 261.548 178.455 261.114C178.059 260.68 177.761 260.166 177.582 259.606C177.403 259.046 177.346 258.455 177.416 257.871L178.814 241.899C178.939 240.659 179.514 239.509 180.43 238.666C181.347 237.822 182.54 237.344 183.786 237.322H205.691C206.277 237.312 206.859 237.427 207.397 237.659C207.935 237.89 208.417 238.234 208.812 238.667C209.207 239.1 209.505 239.612 209.687 240.169C209.868 240.727 209.929 241.316 209.865 241.899L208.467 257.871C208.339 259.11 207.762 260.26 206.845 261.103C205.928 261.946 204.734 262.424 203.489 262.447Z" fill="#FC2947"/>
<g opacity="0.6">
<path d="M196.737 245.929C196.773 245.581 196.734 245.228 196.623 244.896C196.513 244.563 196.333 244.258 196.096 244C195.859 243.742 195.569 243.538 195.247 243.4C194.925 243.262 194.577 243.195 194.227 243.201C193.481 243.212 192.765 243.495 192.213 243.998C191.661 244.5 191.313 245.187 191.233 245.929C191.19 246.344 191.251 246.763 191.412 247.148C191.573 247.533 191.828 247.871 192.154 248.132L191.676 253.636C191.653 253.844 191.674 254.055 191.739 254.255C191.804 254.454 191.911 254.638 192.052 254.793C192.193 254.948 192.366 255.071 192.559 255.153C192.752 255.236 192.96 255.277 193.17 255.273C193.614 255.263 194.04 255.092 194.367 254.79C194.693 254.489 194.898 254.078 194.943 253.636L195.427 248.132C195.793 247.882 196.099 247.556 196.325 247.175C196.551 246.795 196.692 246.37 196.737 245.929Z" fill="white"/>
</g>
<path d="M205.882 240.651H203.059L203.741 232.746C203.86 231.649 203.744 230.539 203.402 229.49C203.059 228.441 202.497 227.477 201.754 226.662C201.01 225.847 200.102 225.199 199.088 224.762C198.075 224.324 196.981 224.108 195.877 224.126C193.533 224.172 191.285 225.073 189.559 226.661C187.833 228.249 186.748 230.413 186.507 232.746L185.825 240.651H183.001L183.683 232.746C184.001 229.65 185.441 226.778 187.731 224.671C190.022 222.563 193.004 221.368 196.116 221.309C197.581 221.284 199.034 221.571 200.379 222.151C201.724 222.73 202.93 223.59 203.918 224.671C204.905 225.753 205.651 227.032 206.107 228.425C206.562 229.817 206.715 231.29 206.558 232.746L205.882 240.651Z" fill="#FC2947"/>
<path d="M222.244 195.823L222.332 195.052C222.35 194.873 222.331 194.693 222.274 194.522C222.218 194.352 222.127 194.195 222.005 194.063C221.884 193.93 221.737 193.824 221.572 193.753C221.407 193.681 221.23 193.645 221.05 193.647C220.668 193.655 220.302 193.802 220.021 194.061C219.739 194.319 219.562 194.672 219.522 195.052L219.454 195.809C219.301 195.813 219.155 195.873 219.044 195.977C218.932 196.082 218.862 196.223 218.847 196.375L218.67 198.421C218.661 198.493 218.668 198.565 218.689 198.634C218.711 198.702 218.748 198.766 218.797 198.819C218.845 198.872 218.905 198.914 218.971 198.942C219.038 198.97 219.109 198.983 219.181 198.98H221.991C222.143 198.978 222.289 198.919 222.401 198.816C222.513 198.713 222.583 198.572 222.598 198.421L222.775 196.375C222.781 196.303 222.772 196.23 222.747 196.162C222.723 196.093 222.684 196.031 222.634 195.979C222.584 195.927 222.523 195.886 222.456 195.859C222.388 195.832 222.316 195.82 222.244 195.823ZM220.968 194.009C221.103 194.007 221.238 194.034 221.362 194.088C221.486 194.141 221.597 194.221 221.689 194.32C221.78 194.42 221.85 194.538 221.892 194.667C221.935 194.795 221.95 194.931 221.937 195.066L221.868 195.823H219.754L219.822 195.066C219.852 194.78 219.985 194.515 220.196 194.321C220.407 194.126 220.681 194.015 220.968 194.009Z" fill="#FC2947"/>
<path d="M179.946 196.634L178.964 196.43C178.936 196.424 178.911 196.412 178.889 196.395C178.866 196.378 178.848 196.357 178.836 196.332C178.823 196.307 178.817 196.279 178.816 196.251C178.816 196.223 178.822 196.196 178.834 196.17L179.243 195.202C179.26 195.16 179.262 195.114 179.248 195.071C179.234 195.028 179.205 194.991 179.167 194.968C179.128 194.944 179.083 194.934 179.038 194.941C178.993 194.948 178.953 194.97 178.923 195.004L178.179 195.768C178.162 195.791 178.139 195.809 178.113 195.822C178.087 195.834 178.058 195.841 178.029 195.841C178.001 195.841 177.972 195.834 177.946 195.822C177.92 195.809 177.897 195.791 177.879 195.768L177.272 195.004C177.143 194.841 176.863 195.004 176.911 195.202L177.15 196.17C177.157 196.199 177.158 196.228 177.153 196.257C177.148 196.286 177.137 196.313 177.121 196.337C177.105 196.362 177.084 196.382 177.06 196.398C177.035 196.414 177.008 196.425 176.979 196.43L175.963 196.634C175.745 196.675 175.717 196.982 175.929 197.023L176.911 197.228C176.938 197.233 176.964 197.244 176.986 197.261C177.009 197.279 177.026 197.301 177.038 197.326C177.05 197.351 177.056 197.379 177.055 197.407C177.054 197.435 177.047 197.462 177.034 197.487L176.638 198.462C176.621 198.504 176.619 198.55 176.633 198.593C176.647 198.636 176.676 198.673 176.715 198.696C176.753 198.72 176.799 198.729 176.843 198.723C176.888 198.716 176.929 198.694 176.959 198.66L177.702 197.896C177.721 197.875 177.744 197.859 177.77 197.848C177.796 197.836 177.824 197.83 177.852 197.83C177.88 197.83 177.908 197.836 177.934 197.848C177.96 197.859 177.983 197.875 178.002 197.896L178.609 198.66C178.739 198.823 179.018 198.66 178.964 198.462L178.725 197.494C178.715 197.436 178.728 197.376 178.761 197.328C178.794 197.28 178.845 197.246 178.902 197.234L179.919 197.03C180.13 196.982 180.157 196.675 179.946 196.634Z" fill="#263238"/>
<path d="M186.397 196.634L185.415 196.43C185.388 196.424 185.362 196.412 185.34 196.395C185.318 196.378 185.3 196.357 185.288 196.332C185.275 196.307 185.268 196.279 185.268 196.251C185.268 196.223 185.274 196.196 185.286 196.17L185.695 195.202C185.712 195.16 185.714 195.114 185.7 195.071C185.686 195.028 185.657 194.991 185.618 194.968C185.58 194.944 185.534 194.934 185.49 194.941C185.445 194.948 185.404 194.97 185.374 195.004L184.631 195.768C184.613 195.791 184.59 195.809 184.564 195.822C184.538 195.834 184.51 195.841 184.481 195.841C184.452 195.841 184.424 195.834 184.398 195.822C184.372 195.809 184.349 195.791 184.331 195.768L183.724 195.004C183.594 194.841 183.315 195.004 183.369 195.202L183.608 196.17C183.614 196.199 183.614 196.229 183.608 196.257C183.602 196.286 183.591 196.313 183.574 196.338C183.558 196.362 183.537 196.382 183.512 196.398C183.487 196.414 183.46 196.425 183.431 196.43L182.415 196.634C182.196 196.675 182.169 196.982 182.38 197.023L183.363 197.228C183.39 197.233 183.416 197.245 183.438 197.262C183.46 197.279 183.478 197.301 183.49 197.326C183.503 197.351 183.51 197.378 183.51 197.406C183.51 197.434 183.504 197.461 183.492 197.487L183.083 198.455C183.066 198.497 183.064 198.543 183.078 198.586C183.092 198.629 183.121 198.666 183.16 198.69C183.198 198.713 183.244 198.723 183.288 198.716C183.333 198.709 183.374 198.687 183.403 198.653L184.147 197.889C184.166 197.868 184.189 197.852 184.215 197.841C184.241 197.829 184.269 197.824 184.297 197.824C184.325 197.824 184.353 197.829 184.379 197.841C184.405 197.852 184.428 197.868 184.447 197.889L185.054 198.653C185.184 198.817 185.463 198.653 185.415 198.455L185.177 197.487C185.171 197.458 185.17 197.429 185.176 197.401C185.181 197.373 185.192 197.346 185.208 197.322C185.224 197.297 185.244 197.277 185.268 197.261C185.292 197.244 185.319 197.233 185.347 197.228L186.363 197.023C186.582 196.982 186.609 196.675 186.397 196.634Z" fill="#263238"/>
<path d="M192.849 196.634L191.874 196.43C191.846 196.425 191.819 196.414 191.796 196.398C191.773 196.381 191.755 196.359 191.742 196.334C191.729 196.308 191.723 196.28 191.723 196.252C191.724 196.223 191.731 196.195 191.744 196.17L192.153 195.202C192.18 195.159 192.188 195.107 192.175 195.057C192.163 195.008 192.132 194.966 192.089 194.939C192.045 194.913 191.993 194.905 191.944 194.917C191.895 194.93 191.852 194.961 191.826 195.004L191.09 195.768C191.071 195.791 191.048 195.809 191.021 195.822C190.995 195.835 190.966 195.841 190.936 195.841C190.907 195.841 190.878 195.835 190.851 195.822C190.825 195.809 190.801 195.791 190.783 195.768L190.176 195.004C190.046 194.841 189.766 195.004 189.821 195.202L190.06 196.17C190.066 196.199 190.066 196.228 190.061 196.256C190.055 196.285 190.044 196.312 190.029 196.336C190.013 196.36 189.992 196.38 189.968 196.397C189.944 196.413 189.918 196.424 189.889 196.43L188.873 196.634C188.655 196.675 188.628 196.982 188.839 197.023L189.814 197.228C189.842 197.233 189.867 197.245 189.889 197.262C189.912 197.279 189.93 197.301 189.942 197.326C189.955 197.351 189.961 197.378 189.961 197.406C189.962 197.434 189.956 197.461 189.944 197.487L189.535 198.455C189.508 198.499 189.5 198.551 189.513 198.6C189.525 198.649 189.556 198.692 189.599 198.718C189.643 198.744 189.695 198.752 189.744 198.74C189.793 198.728 189.836 198.696 189.862 198.653L190.599 197.889C190.618 197.868 190.641 197.852 190.667 197.841C190.693 197.829 190.72 197.824 190.749 197.824C190.777 197.824 190.805 197.829 190.83 197.841C190.856 197.852 190.879 197.868 190.899 197.889L191.512 198.653C191.642 198.817 191.922 198.653 191.867 198.455L191.628 197.487C191.618 197.43 191.63 197.371 191.662 197.323C191.694 197.275 191.743 197.241 191.799 197.228L192.815 197.023C193.006 196.982 193.061 196.675 192.849 196.634Z" fill="#263238"/>
<path d="M199.308 196.634L198.326 196.43C198.298 196.424 198.273 196.412 198.251 196.395C198.228 196.378 198.21 196.357 198.198 196.332C198.185 196.307 198.179 196.279 198.178 196.251C198.178 196.223 198.184 196.196 198.196 196.17L198.605 195.202C198.622 195.16 198.624 195.114 198.61 195.071C198.596 195.028 198.567 194.991 198.529 194.968C198.49 194.944 198.445 194.934 198.4 194.941C198.355 194.948 198.315 194.97 198.285 195.004L197.541 195.768C197.524 195.791 197.501 195.809 197.475 195.822C197.449 195.834 197.42 195.841 197.391 195.841C197.363 195.841 197.334 195.834 197.308 195.822C197.282 195.809 197.259 195.791 197.241 195.768L196.634 195.004C196.505 194.841 196.225 195.004 196.273 195.202L196.512 196.17C196.519 196.199 196.52 196.228 196.515 196.257C196.51 196.286 196.499 196.313 196.483 196.337C196.467 196.362 196.446 196.382 196.422 196.398C196.397 196.414 196.37 196.425 196.341 196.43L195.325 196.634C195.107 196.675 195.079 196.982 195.325 197.023L196.307 197.228C196.334 197.233 196.36 197.244 196.382 197.261C196.405 197.279 196.422 197.301 196.434 197.326C196.446 197.351 196.452 197.379 196.451 197.407C196.451 197.435 196.443 197.462 196.43 197.487L196.027 198.455C196.01 198.497 196.009 198.543 196.023 198.586C196.037 198.629 196.066 198.666 196.104 198.69C196.142 198.713 196.188 198.723 196.233 198.716C196.277 198.709 196.318 198.687 196.348 198.653L197.091 197.889C197.11 197.868 197.134 197.852 197.159 197.841C197.185 197.829 197.213 197.824 197.241 197.824C197.27 197.824 197.297 197.829 197.323 197.841C197.349 197.852 197.372 197.868 197.391 197.889L197.998 198.653C198.128 198.817 198.408 198.653 198.353 198.455L198.114 197.487C198.104 197.429 198.117 197.369 198.15 197.321C198.183 197.273 198.234 197.239 198.292 197.228L199.308 197.023C199.492 196.982 199.519 196.675 199.308 196.634Z" fill="#263238"/>
<path d="M205.76 196.634L204.777 196.43C204.75 196.424 204.724 196.412 204.702 196.395C204.68 196.378 204.662 196.357 204.65 196.332C204.637 196.307 204.63 196.279 204.63 196.251C204.63 196.223 204.636 196.196 204.648 196.17L205.057 195.202C205.074 195.16 205.076 195.114 205.062 195.071C205.048 195.028 205.019 194.991 204.98 194.968C204.942 194.944 204.896 194.934 204.852 194.941C204.807 194.948 204.766 194.97 204.737 195.004L203.993 195.768C203.975 195.791 203.952 195.809 203.927 195.822C203.901 195.834 203.872 195.841 203.843 195.841C203.814 195.841 203.786 195.834 203.76 195.822C203.734 195.809 203.711 195.791 203.693 195.768L203.086 195.004C202.957 194.841 202.677 195.004 202.731 195.202L202.97 196.17C202.976 196.199 202.976 196.229 202.97 196.257C202.965 196.286 202.953 196.313 202.937 196.338C202.92 196.362 202.899 196.382 202.874 196.398C202.849 196.414 202.822 196.425 202.793 196.43L201.777 196.634C201.558 196.675 201.531 196.982 201.743 197.023L202.725 197.228C202.752 197.233 202.778 197.245 202.8 197.262C202.822 197.279 202.84 197.301 202.852 197.326C202.865 197.351 202.872 197.378 202.872 197.406C202.872 197.434 202.866 197.461 202.854 197.487L202.445 198.455C202.428 198.497 202.426 198.543 202.44 198.586C202.454 198.629 202.483 198.666 202.522 198.69C202.56 198.713 202.606 198.723 202.65 198.716C202.695 198.709 202.736 198.687 202.766 198.653L203.509 197.889C203.528 197.868 203.551 197.852 203.577 197.841C203.603 197.829 203.631 197.824 203.659 197.824C203.687 197.824 203.715 197.829 203.741 197.841C203.767 197.852 203.79 197.868 203.809 197.889L204.416 198.653C204.546 198.817 204.825 198.653 204.777 198.455L204.539 197.487C204.533 197.458 204.532 197.429 204.538 197.401C204.543 197.373 204.554 197.346 204.57 197.322C204.586 197.297 204.606 197.277 204.63 197.261C204.654 197.244 204.681 197.233 204.709 197.228L205.725 197.023C205.964 196.982 205.964 196.675 205.76 196.634Z" fill="#263238"/>
<path d="M212.211 196.634L211.229 196.43C211.202 196.424 211.176 196.413 211.154 196.396C211.132 196.379 211.114 196.357 211.102 196.331C211.09 196.306 211.084 196.278 211.085 196.25C211.086 196.222 211.093 196.195 211.106 196.17L211.516 195.202C211.529 195.181 211.537 195.157 211.541 195.132C211.545 195.107 211.544 195.082 211.538 195.057C211.532 195.033 211.521 195.01 211.506 194.99C211.491 194.97 211.472 194.952 211.451 194.939C211.429 194.926 211.405 194.918 211.381 194.914C211.356 194.91 211.33 194.911 211.306 194.917C211.282 194.924 211.259 194.934 211.239 194.949C211.218 194.964 211.201 194.983 211.188 195.004L210.452 195.768C210.433 195.791 210.41 195.809 210.383 195.822C210.357 195.835 210.328 195.841 210.298 195.841C210.269 195.841 210.24 195.835 210.213 195.822C210.187 195.809 210.163 195.791 210.145 195.768L209.538 195.004C209.408 194.841 209.129 195.004 209.183 195.202L209.422 196.17C209.428 196.199 209.428 196.228 209.423 196.256C209.417 196.285 209.406 196.312 209.391 196.336C209.375 196.36 209.354 196.38 209.33 196.397C209.306 196.413 209.28 196.424 209.251 196.43L208.235 196.634C208.017 196.675 207.99 196.982 208.201 197.023L209.176 197.228C209.204 197.233 209.229 197.245 209.252 197.262C209.274 197.279 209.292 197.301 209.304 197.326C209.317 197.351 209.323 197.378 209.324 197.406C209.324 197.434 209.318 197.462 209.306 197.487L208.897 198.455C208.87 198.499 208.863 198.551 208.875 198.6C208.887 198.649 208.918 198.692 208.961 198.718C209.005 198.744 209.057 198.752 209.106 198.74C209.155 198.728 209.198 198.696 209.224 198.653L209.961 197.889C209.98 197.868 210.003 197.852 210.029 197.841C210.055 197.829 210.082 197.824 210.111 197.824C210.139 197.824 210.167 197.829 210.192 197.841C210.218 197.852 210.242 197.868 210.261 197.889L210.868 198.653C210.899 198.689 210.942 198.713 210.99 198.721C211.037 198.729 211.085 198.721 211.127 198.698C211.169 198.675 211.202 198.638 211.22 198.594C211.239 198.55 211.242 198.501 211.229 198.455L210.99 197.487C210.98 197.43 210.992 197.371 211.024 197.323C211.056 197.275 211.105 197.241 211.161 197.228L212.177 197.023C212.395 196.982 212.423 196.675 212.211 196.634Z" fill="#263238"/>
<path d="M196.655 182.51H184.542C184.171 182.516 183.814 182.659 183.54 182.91C183.266 183.161 183.094 183.504 183.056 183.874C183.036 184.048 183.054 184.224 183.108 184.391C183.163 184.557 183.252 184.71 183.37 184.839C183.488 184.969 183.633 185.071 183.794 185.14C183.955 185.209 184.129 185.242 184.304 185.238H196.416C196.788 185.232 197.144 185.089 197.418 184.838C197.692 184.587 197.865 184.244 197.903 183.874C197.921 183.7 197.903 183.524 197.848 183.358C197.793 183.192 197.704 183.04 197.586 182.911C197.468 182.782 197.324 182.68 197.163 182.61C197.003 182.541 196.83 182.507 196.655 182.51Z" fill="#263238"/>
<path d="M208.958 182.51H201.927C201.556 182.517 201.2 182.659 200.927 182.911C200.655 183.162 200.484 183.505 200.447 183.874C200.427 184.047 200.445 184.223 200.499 184.389C200.553 184.555 200.641 184.708 200.759 184.837C200.876 184.966 201.02 185.068 201.18 185.138C201.34 185.207 201.514 185.241 201.688 185.238H208.692C209.063 185.231 209.419 185.089 209.692 184.838C209.964 184.586 210.135 184.243 210.172 183.874C210.191 183.703 210.174 183.53 210.122 183.366C210.07 183.201 209.984 183.05 209.869 182.921C209.755 182.793 209.614 182.69 209.457 182.619C209.301 182.548 209.13 182.511 208.958 182.51Z" fill="#263238"/>
<path d="M218.24 244.333C213.959 245.964 210.094 248.527 206.926 251.835C205.002 250.342 202.708 249.399 200.29 249.107L199.969 249.06L199.833 250.669L200.01 250.737C202.662 251.714 204.905 253.56 206.373 255.975L206.605 256.357L206.858 255.948C209.682 251.439 213.668 247.773 218.397 245.336L218.554 245.254L218.643 244.19L218.24 244.333Z" fill="#263238"/>
<path opacity="0.2" d="M157.297 110.054C156.427 111.572 155.893 113.258 155.728 114.999L145.573 231.089H177L183.315 206.885L181.235 182.674L187.55 158.47L185.504 134.265L191.819 110.054H157.297Z" fill="black"/>
<path d="M182.742 127.445L189.057 103.234H109.584L103.275 127.445L105.349 151.65L99.0402 175.854L101.113 200.065L94.8049 224.269H174.272L180.587 200.065L178.507 175.854L184.822 151.65L182.742 127.445Z" fill="#FC2947"/>
<path opacity="0.7" d="M182.742 127.445L189.057 103.234H109.584L103.275 127.445L105.349 151.65L99.0402 175.854L101.113 200.065L94.8049 224.269H174.272L180.587 200.065L178.507 175.854L184.822 151.65L182.742 127.445Z" fill="white"/>
<path opacity="0.5" d="M182.742 127.445H103.275L109.584 103.234H189.057L182.742 127.445Z" fill="white"/>
<path opacity="0.5" d="M178.507 175.854H99.04L105.349 151.65H184.822L178.507 175.854Z" fill="white"/>
<path opacity="0.5" d="M174.272 224.269H94.7981L101.113 200.065H180.587L174.272 224.269Z" fill="white"/>
<path opacity="0.2" d="M172.11 137.559C171.294 137.795 170.449 137.91 169.6 137.9C168.449 137.951 167.303 137.717 166.265 137.218C166.077 137.107 165.863 137.048 165.644 137.048C165.444 137.051 165.247 137.102 165.071 137.198H165.031C164.726 137.369 164.4 137.5 164.062 137.587C163.299 137.788 162.512 137.887 161.723 137.88C161.484 137.88 161.252 137.88 161.041 137.88C160.428 137.841 159.822 137.733 159.234 137.559C159.147 137.534 159.058 137.518 158.968 137.512C158.818 137.499 158.667 137.518 158.524 137.567C158.382 137.616 158.251 137.694 158.141 137.796C158.03 137.898 157.941 138.021 157.88 138.159C157.82 138.297 157.788 138.446 157.788 138.596V139.333H126.852C126.284 139.333 125.721 139.445 125.196 139.662C124.671 139.88 124.194 140.199 123.792 140.601C123.391 141.004 123.072 141.481 122.856 142.007C122.639 142.532 122.527 143.095 122.528 143.663V148.021C122.527 148.59 122.637 149.154 122.854 149.68C123.07 150.206 123.388 150.685 123.79 151.088C124.192 151.491 124.669 151.81 125.194 152.028C125.72 152.247 126.283 152.359 126.852 152.359H161.996H162.228C162.603 152.673 162.998 152.986 163.421 153.307C163.844 153.627 164.444 154.071 164.996 154.466C165.185 154.603 165.412 154.676 165.644 154.676C165.877 154.676 166.104 154.603 166.292 154.466C170.712 151.261 173.549 149.051 173.549 142.981V138.617C173.551 138.442 173.511 138.269 173.433 138.113C173.356 137.957 173.242 137.822 173.101 137.718C172.96 137.615 172.797 137.547 172.625 137.519C172.452 137.491 172.276 137.505 172.11 137.559Z" fill="black"/>
<path d="M161.32 136.939H126.184C123.792 136.939 121.853 138.878 121.853 141.269V145.627C121.853 148.019 123.792 149.958 126.184 149.958H161.32C163.712 149.958 165.651 148.019 165.651 145.627V141.269C165.651 138.878 163.712 136.939 161.32 136.939Z" fill="#FC2947"/>
<path d="M168.925 135.5C167.774 135.549 166.629 135.315 165.59 134.818C165.405 134.704 165.193 134.644 164.976 134.644C164.759 134.644 164.547 134.704 164.362 134.818C163.321 135.316 162.173 135.55 161.02 135.5C160.172 135.509 159.326 135.394 158.511 135.159C158.346 135.103 158.171 135.088 158 135.114C157.828 135.14 157.666 135.206 157.525 135.308C157.384 135.409 157.27 135.542 157.191 135.697C157.112 135.851 157.071 136.022 157.072 136.195V140.56C157.072 146.637 159.909 148.846 164.328 152.052C164.516 152.188 164.743 152.262 164.976 152.262C165.209 152.262 165.435 152.188 165.624 152.052C170.043 148.846 172.88 146.637 172.88 140.56V136.195C172.88 136.022 172.838 135.851 172.758 135.697C172.678 135.542 172.563 135.409 172.422 135.308C172.281 135.207 172.118 135.14 171.946 135.115C171.775 135.089 171.599 135.104 171.434 135.159C170.619 135.394 169.773 135.509 168.925 135.5Z" fill="#FC2947"/>
<path opacity="0.3" d="M168.925 135.5C167.774 135.549 166.629 135.315 165.59 134.818C165.405 134.704 165.193 134.644 164.976 134.644C164.759 134.644 164.547 134.704 164.362 134.818C163.321 135.316 162.173 135.55 161.02 135.5C160.172 135.509 159.326 135.394 158.511 135.159C158.346 135.103 158.171 135.088 158 135.114C157.828 135.14 157.666 135.206 157.525 135.308C157.384 135.409 157.27 135.542 157.191 135.697C157.112 135.851 157.071 136.022 157.072 136.195V140.56C157.072 146.637 159.909 148.846 164.328 152.052C164.516 152.188 164.743 152.262 164.976 152.262C165.209 152.262 165.435 152.188 165.624 152.052C170.043 148.846 172.88 146.637 172.88 140.56V136.195C172.88 136.022 172.838 135.851 172.758 135.697C172.678 135.542 172.563 135.409 172.422 135.308C172.281 135.207 172.118 135.14 171.946 135.115C171.775 135.089 171.599 135.104 171.434 135.159C170.619 135.394 169.773 135.509 168.925 135.5Z" fill="white"/>
<path opacity="0.2" d="M164.362 134.804C163.321 135.302 162.173 135.536 161.02 135.486C160.172 135.495 159.326 135.38 158.511 135.145C158.346 135.09 158.171 135.075 158 135.1C157.828 135.126 157.666 135.193 157.525 135.294C157.384 135.395 157.27 135.529 157.191 135.683C157.112 135.837 157.071 136.008 157.072 136.182V140.547C157.072 146.623 159.909 148.833 164.328 152.038C164.526 152.182 164.766 152.256 165.01 152.25V134.627C164.781 134.622 164.556 134.684 164.362 134.804Z" fill="white"/>
<path d="M171.312 139.374C168.653 140.415 166.285 142.083 164.41 144.236C163.102 143.272 161.569 142.659 159.956 142.456H159.745V143.5L159.861 143.541C161.654 144.188 163.199 145.38 164.28 146.951L164.451 147.196L164.594 146.93C166.162 144.016 168.549 141.626 171.462 140.056L171.564 140.008V139.326L171.312 139.374Z" fill="#263238"/>
<path d="M187.652 110.048H184.638C184.25 110.055 183.865 109.979 183.509 109.826C183.153 109.673 182.833 109.445 182.572 109.158C182.31 108.872 182.113 108.533 181.993 108.164C181.873 107.795 181.833 107.405 181.876 107.019L182.142 104.005C182.223 103.185 182.603 102.424 183.209 101.866C183.815 101.308 184.605 100.991 185.429 100.977H188.443C188.832 100.969 189.217 101.044 189.575 101.196C189.932 101.349 190.252 101.577 190.514 101.863C190.776 102.15 190.974 102.489 191.095 102.859C191.215 103.228 191.255 103.619 191.212 104.005L190.946 107.019C190.855 107.836 190.471 108.593 189.865 109.149C189.26 109.706 188.474 110.025 187.652 110.048Z" fill="#FC2947"/>
<path d="M188.907 103.998L188.252 103.275L186.602 104.789L185.224 103.275L184.44 103.998L185.825 105.512L184.181 107.026L184.836 107.742L186.479 106.228L187.864 107.742L188.641 107.026L187.257 105.512L188.907 103.998Z" fill="white"/>
<path d="M120.284 136.052C122.03 137.955 123.694 139.926 125.352 141.911C127.009 143.895 128.612 145.921 130.208 147.953C130.276 148.042 130.248 148.008 130.262 148.035C130.276 148.062 130.262 148.069 130.262 148.076C130.274 148.101 130.29 148.124 130.31 148.144C130.368 148.227 130.442 148.297 130.527 148.351C130.613 148.405 130.708 148.441 130.808 148.458C130.885 148.468 130.963 148.468 131.04 148.458C131.08 148.461 131.121 148.461 131.162 148.458H131.224C131.258 148.458 131.224 148.458 131.333 148.417L133.038 147.489C135.329 146.275 137.641 145.089 140.028 144.025L142.027 146.5C140.103 148.267 138.098 150.483 136.073 152.106L134.545 153.307C134.45 153.384 134.35 153.455 134.245 153.518C134.129 153.601 134.008 153.676 133.884 153.743C133.637 153.885 133.382 154.013 133.12 154.125C132.591 154.347 132.037 154.501 131.469 154.582C130.322 154.751 129.151 154.633 128.059 154.241C127.504 154.044 126.977 153.776 126.491 153.443C126.245 153.28 126.013 153.089 125.809 152.904C125.693 152.809 125.597 152.7 125.488 152.597L125.215 152.325C123.408 150.47 121.628 148.601 119.882 146.698C118.136 144.795 116.411 142.879 114.76 140.888L120.284 136.052Z" fill="#B55B52"/>
<path d="M139.128 145.525L140.717 140.417L144.905 142.504C144.905 142.504 144.291 146.228 141.249 146.876L139.128 145.525Z" fill="#B55B52"/>
<path d="M142.388 139.005L146.166 140.042L144.898 142.504L140.71 140.417L142.388 139.005Z" fill="#B55B52"/>
<path d="M98.2694 137.443C97.8193 139.612 97.26 141.76 96.6803 143.902C96.1006 146.043 95.4664 148.164 94.8048 150.285L94.5593 151.083L94.4365 151.479C94.4201 151.536 94.3972 151.591 94.3683 151.643C94.2906 151.862 94.2469 152.092 94.2388 152.325C94.2244 152.82 94.3624 153.308 94.6343 153.723C94.7685 153.905 94.9167 154.076 95.0776 154.234L95.6437 154.855L96.7622 156.103C97.4919 156.949 98.2285 157.794 98.9241 158.681L96.5439 161.409C95.5618 160.85 94.6207 160.243 93.6795 159.643L92.2814 158.715L91.5994 158.244C91.3675 158.081 91.1766 157.972 90.8015 157.665C89.4671 156.528 88.5463 154.981 88.1826 153.266C87.9996 152.392 87.9558 151.494 88.053 150.606C88.053 150.388 88.1212 150.142 88.1553 149.924L88.2303 149.515L88.3736 148.696C88.7555 146.507 89.1647 144.325 89.6216 142.156C90.0786 139.987 90.5696 137.825 91.1493 135.691L98.2694 137.443Z" fill="#B55B52"/>
<path d="M96.5918 158.463L99.4016 157.024L100.643 161.798C100.643 161.798 98.3855 162.664 96.6395 161.552L96.5918 158.463Z" fill="#B55B52"/>
<path d="M103.289 155.489L103.419 159.881L100.275 161.934L99.1833 157.112L103.289 155.489Z" fill="#B55B52"/>
<path d="M112.489 114.897C112.557 115.231 112.796 115.469 113.014 115.429C113.233 115.388 113.362 115.074 113.294 114.747C113.226 114.419 112.987 114.174 112.769 114.215C112.551 114.255 112.421 114.576 112.489 114.897Z" fill="#263238"/>
<path d="M112.762 115.476C113.376 116.427 114.117 117.29 114.965 118.041C114.767 118.253 114.526 118.42 114.257 118.53C113.989 118.639 113.7 118.689 113.41 118.675L112.762 115.476Z" fill="#A02724"/>
<path d="M110.873 113.273C110.834 113.273 110.795 113.261 110.762 113.239C110.73 113.218 110.704 113.187 110.688 113.151C110.672 113.115 110.667 113.075 110.673 113.037C110.679 112.998 110.697 112.962 110.723 112.932C110.936 112.691 111.204 112.503 111.504 112.385C111.804 112.266 112.127 112.22 112.448 112.25C112.475 112.255 112.5 112.265 112.522 112.28C112.545 112.295 112.564 112.314 112.58 112.336C112.595 112.358 112.605 112.383 112.611 112.409C112.617 112.436 112.617 112.463 112.612 112.489C112.608 112.515 112.598 112.54 112.585 112.563C112.571 112.585 112.552 112.605 112.531 112.62C112.509 112.635 112.484 112.646 112.459 112.652C112.433 112.657 112.406 112.658 112.38 112.653C112.126 112.628 111.869 112.665 111.632 112.76C111.395 112.855 111.183 113.005 111.016 113.198C110.98 113.241 110.928 113.268 110.873 113.273Z" fill="#263238"/>
<path d="M102.655 119.65C103.405 122.78 104.162 128.516 101.475 130.596C101.475 130.596 102.525 133.774 109.659 133.774C117.502 133.774 113.41 131.728 113.41 131.728C109.127 130.896 109.236 127.179 110 124.745L102.655 119.65Z" fill="#B55B52"/>
<path d="M100.636 131.176C100.172 130.31 99.6541 129.314 100.718 129C101.891 128.659 109.413 128.025 111.63 128.666C110.948 129.873 112.101 131.394 112.101 131.394L100.636 131.176Z" fill="#263238"/>
<path d="M106.87 277.519H111.787L112.278 267.617H107.354L106.87 277.519Z" fill="#B55B52"/>
<path d="M75.6406 276.155L80.626 276.421L83.6541 266.662L78.6687 266.396L75.6406 276.155Z" fill="#B55B52"/>
<path d="M80.4761 276.026L75.7771 275.01C75.6948 274.991 75.6086 275.001 75.5329 275.038C75.4572 275.076 75.3965 275.138 75.3611 275.214L73.7311 278.754C73.691 278.84 73.6711 278.934 73.673 279.029C73.6748 279.123 73.6984 279.217 73.7419 279.301C73.7853 279.385 73.8475 279.458 73.9237 279.515C73.9999 279.571 74.088 279.61 74.1813 279.627C75.8249 279.954 76.6433 280.029 78.7097 280.479C79.9783 280.752 82.8495 281.455 84.6022 281.843C86.355 282.232 86.9619 280.541 86.2799 280.227C83.2109 278.829 81.9288 277.594 81.0967 276.442C80.9474 276.232 80.7267 276.084 80.4761 276.026Z" fill="#263238"/>
<path d="M111.528 277.022H106.856C106.772 277.023 106.69 277.052 106.624 277.105C106.559 277.159 106.513 277.232 106.495 277.315L105.649 281.114C105.627 281.206 105.626 281.301 105.647 281.393C105.668 281.486 105.71 281.572 105.769 281.646C105.828 281.719 105.903 281.778 105.989 281.819C106.075 281.859 106.168 281.879 106.263 281.877C107.947 281.877 110.355 281.748 112.503 281.748C114.979 281.748 117.113 281.884 120.005 281.884C121.758 281.884 122.249 280.111 121.512 279.947C118.164 279.218 115.436 279.136 112.544 277.356C112.242 277.154 111.89 277.039 111.528 277.022Z" fill="#263238"/>
<path d="M92.5612 132.042C88.8512 133.808 87.8418 144.516 87.8418 144.516L97.0283 148.758C98.5811 146.139 99.4272 143.161 99.4835 140.117C99.6677 134.586 96.36 130.262 92.5612 132.042Z" fill="#263238"/>
<path opacity="0.4" d="M97.5262 138.644C95.8689 141.222 96.0258 145.205 96.5987 148.567L97.0079 148.758C98.5593 146.138 99.4052 143.161 99.4631 140.117C99.4631 139.79 99.4631 139.435 99.4631 139.142L97.5262 138.644Z" fill="black"/>
<path d="M118.198 131.783C118.198 131.783 122.753 136.925 118.45 168.747H95.5825C95.4256 165.235 97.6285 148.11 94.2185 131.565C96.7458 131.078 99.3018 130.755 101.871 130.596C105.11 130.412 108.357 130.412 111.596 130.596C113.824 130.822 116.031 131.219 118.198 131.783Z" fill="#FC2947"/>
<path opacity="0.6" d="M118.198 131.783C118.198 131.783 122.753 136.925 118.45 168.747H95.5825C95.4256 165.235 97.6285 148.11 94.2185 131.565C96.7458 131.078 99.3018 130.755 101.871 130.596C105.11 130.412 108.357 130.412 111.596 130.596C113.824 130.822 116.031 131.219 118.198 131.783Z" fill="#FAFAFA"/>
<path opacity="0.2" d="M120.196 141.508L120.114 141.433L115.565 139.005C115.101 146.009 118.232 150.401 120.094 152.318C120.327 148.719 120.361 145.111 120.196 141.508Z" fill="black"/>
<path opacity="0.2" d="M112.278 267.617L112.025 272.725H107.101L107.354 267.617H112.278Z" fill="black"/>
<path opacity="0.2" d="M78.6687 266.403L83.6541 266.662L82.0924 271.695L77.1069 271.429L78.6687 266.403Z" fill="black"/>
<path d="M101.073 116.472C102.171 120.564 102.607 123.026 105.165 124.731C108.97 127.295 113.703 124.349 113.853 120.005C113.983 116.097 112.169 110.048 107.77 109.222C106.799 109.03 105.794 109.09 104.853 109.397C103.912 109.703 103.065 110.246 102.393 110.973C101.721 111.701 101.247 112.588 101.016 113.551C100.785 114.513 100.804 115.519 101.073 116.472Z" fill="#B55B52"/>
<path d="M110.341 168.747C110.341 168.747 105.485 201.422 102.839 213.671C99.9062 227.106 84.2612 271.436 84.2612 271.436L76.6023 269.779C76.6023 269.779 86.4163 233.633 88.8783 214.891C89.8331 207.574 90.9857 195.795 92.4452 185.954C93.8569 176.406 95.596 168.754 95.596 168.754L110.341 168.747Z" fill="#263238"/>
<path d="M86.0957 268.878L84.6635 271.647L76.0566 269.779L76.7796 267.194L86.0957 268.878Z" fill="#FC2947"/>
<path opacity="0.6" d="M86.0957 268.878L84.6635 271.647L76.0566 269.779L76.7796 267.194L86.0957 268.878Z" fill="white"/>
<path opacity="0.6" d="M107.272 180.389C101.659 181.487 102.252 202.418 102.927 213.18C104.551 205.568 106.917 190.933 108.534 180.539C108.142 180.346 107.697 180.294 107.272 180.389Z" fill="black"/>
<path d="M118.45 168.747C118.45 168.747 120.735 200.719 120.271 213.759C119.787 227.324 113.355 271.729 113.355 271.729H106.113C106.113 271.729 105.847 228.081 105.526 214.789C105.171 200.262 103.419 168.74 103.419 168.74L118.45 168.747Z" fill="#263238"/>
<path d="M114.747 268.851C114.781 268.851 114.337 271.859 114.337 271.859H105.526L105.287 269.172L114.747 268.851Z" fill="#FC2947"/>
<path opacity="0.6" d="M114.747 268.851C114.781 268.851 114.337 271.859 114.337 271.859H105.526L105.287 269.172L114.747 268.851Z" fill="white"/>
<path d="M115.531 137.764C115.531 146.344 120.094 149.876 120.094 149.876L127.534 142.633C125.773 139.69 123.768 136.9 121.539 134.293C117.236 129.362 115.531 132.253 115.531 137.764Z" fill="#263238"/>
<path opacity="0.2" d="M113.567 121.56C113.415 121.99 113.16 122.376 112.825 122.685C112.49 122.994 112.084 123.217 111.643 123.333C111.159 123.432 110.718 123.684 110.388 124.053C110.058 124.421 109.854 124.886 109.809 125.379C110.692 125.084 111.493 124.584 112.146 123.92C112.799 123.256 113.286 122.447 113.567 121.56Z" fill="black"/>
<path d="M111.643 108.322C113.171 106.392 110.818 106.276 110.818 106.276C111.432 103.978 108.677 105.212 108.677 105.212C107.026 102.934 106.092 105.71 106.092 105.71C104.38 103.78 104.046 106.931 104.046 106.931C102.327 104.482 101.454 108.015 101.454 108.015C99.8721 105.471 98.9037 108.779 98.9037 108.779C95.6369 107.613 97.185 111.009 97.185 111.009C94.4025 111.084 96.6394 113.246 96.6394 113.246C93.2976 113.246 96.2438 115.163 96.2438 115.163C93.5909 116.902 96.9258 117.372 96.9258 117.372C94.7639 120.782 98.4808 119.5 98.4808 119.5C96.9736 122.855 100.309 121.376 100.309 121.376C100.097 124.608 101.959 123.728 102.859 123.128C103.03 123.81 103.357 124.492 103.957 124.547C105.123 124.704 105.321 122.501 105.321 122.501C105.321 122.501 106.399 123.347 107.306 122.89C108.213 122.433 107.872 121.28 107.872 121.28C108.069 121.427 108.308 121.507 108.554 121.507C108.8 121.507 109.039 121.427 109.236 121.28C109.625 120.98 109.625 118.811 109.134 118.047L110.907 117.365C110.907 117.365 112.223 117.181 111.637 115.442C111.283 114.443 111.252 113.357 111.548 112.339C113.553 111.398 111.903 110.293 111.903 110.293C114.228 108.799 111.643 108.322 111.643 108.322Z" fill="#263238"/>
<path d="M108.049 116.622C108.327 117.639 108.934 118.536 109.775 119.173C110.887 120.005 111.719 119.173 111.637 117.925C111.569 116.793 110.9 114.999 109.673 114.658C108.445 114.317 107.756 115.415 108.049 116.622Z" fill="#B55B52"/>
</svg>
