<svg width="34" height="34" viewBox="0 0 34 34" fill="none" xmlns="http://www.w3.org/2000/svg">
<g id="vuesax/outline/clock">
<g id="clock">
<path id="Vector" d="M17.098 32.0254C8.97505 32.0254 2.37256 25.4229 2.37256 17.2999C2.37256 9.17696 8.97505 2.57446 17.098 2.57446C25.221 2.57446 31.8235 9.17696 31.8235 17.2999C31.8235 25.4229 25.221 32.0254 17.098 32.0254ZM17.098 4.62918C10.112 4.62918 4.42728 10.3139 4.42728 17.2999C4.42728 24.286 10.112 29.9707 17.098 29.9707C24.0841 29.9707 29.7688 24.286 29.7688 17.2999C29.7688 10.3139 24.0841 4.62918 17.098 4.62918Z" fill="#636C78"/>
<path id="Vector_2" d="M22.1801 22.6834C22.0021 22.6834 21.824 22.6423 21.6596 22.5327L17.4132 19.9985C16.3584 19.3684 15.5776 17.9849 15.5776 16.7658V11.1496C15.5776 10.5879 16.0434 10.1222 16.605 10.1222C17.1666 10.1222 17.6324 10.5879 17.6324 11.1496V16.7658C17.6324 17.2589 18.0433 17.9849 18.4679 18.2315L22.7144 20.7656C23.2075 21.0533 23.3582 21.6834 23.0705 22.1765C22.865 22.5053 22.5226 22.6834 22.1801 22.6834Z" fill="#636C78"/>
</g>
</g>
</svg>
