<svg width="18" height="18" viewBox="0 0 18 18" fill="none" xmlns="http://www.w3.org/2000/svg">
<g id="vuesax/outline/coin">
<g id="coin">
<path id="Vector" d="M9 17.0625C6 17.0625 3.5625 14.91 3.5625 12.2625V9.48755C3.5625 9.18005 3.8175 8.92505 4.125 8.92505C4.4325 8.92505 4.6875 9.18005 4.6875 9.48755C4.6875 11.4525 6.54 12.9375 9 12.9375C11.46 12.9375 13.3125 11.4525 13.3125 9.48755C13.3125 9.18005 13.5675 8.92505 13.875 8.92505C14.1825 8.92505 14.4375 9.18005 14.4375 9.48755V12.2625C14.4375 14.91 12 17.0625 9 17.0625ZM4.6875 12.345C4.74 14.3325 6.6525 15.9375 9 15.9375C11.3475 15.9375 13.26 14.3325 13.3125 12.345C12.3375 13.4025 10.7925 14.0625 9 14.0625C7.2075 14.0625 5.67 13.4025 4.6875 12.345Z" fill="#636C78"/>
<path id="Vector_2" d="M9 10.3125C6.93 10.3125 5.06999 9.3825 4.16249 7.8825C3.77249 7.245 3.5625 6.5025 3.5625 5.7375C3.5625 4.4475 4.14 3.2325 5.1825 2.3175C6.2025 1.425 7.56 0.9375 9 0.9375C10.44 0.9375 11.79 1.425 12.8175 2.31C13.86 3.2325 14.4375 4.4475 14.4375 5.7375C14.4375 6.5025 14.2275 7.2375 13.8375 7.8825C12.93 9.3825 11.07 10.3125 9 10.3125ZM9 2.0625C7.83 2.0625 6.73501 2.4525 5.91751 3.1725C5.12251 3.8625 4.6875 4.7775 4.6875 5.7375C4.6875 6.3 4.83749 6.825 5.12249 7.2975C5.83499 8.4675 7.32 9.1875 9 9.1875C10.68 9.1875 12.165 8.46 12.8775 7.2975C13.17 6.825 13.3125 6.3 13.3125 5.7375C13.3125 4.7775 12.8775 3.8625 12.075 3.1575C11.2575 2.4525 10.17 2.0625 9 2.0625Z" fill="#636C78"/>
<path id="Vector_3" d="M9 14.0625C5.9025 14.0625 3.5625 12.0975 3.5625 9.4875V5.7375C3.5625 3.09 6 0.9375 9 0.9375C10.44 0.9375 11.79 1.425 12.8175 2.31C13.86 3.2325 14.4375 4.4475 14.4375 5.7375V9.4875C14.4375 12.0975 12.0975 14.0625 9 14.0625ZM9 2.0625C6.6225 2.0625 4.6875 3.7125 4.6875 5.7375V9.4875C4.6875 11.4525 6.54 12.9375 9 12.9375C11.46 12.9375 13.3125 11.4525 13.3125 9.4875V5.7375C13.3125 4.7775 12.8775 3.8625 12.075 3.1575C11.2575 2.4525 10.17 2.0625 9 2.0625Z" fill="#636C78"/>
</g>
</g>
</svg>
