<svg width="29" height="29" viewBox="0 0 29 29" fill="none" xmlns="http://www.w3.org/2000/svg">
<g id="vuesax/outline/chart-2">
<g id="chart-2">
<path id="Vector" d="M17.7536 26.9394H10.7088C4.33334 26.9394 1.60938 24.2154 1.60938 17.8399V10.7951C1.60938 4.41965 4.33334 1.69568 10.7088 1.69568H17.7536C24.1291 1.69568 26.8531 4.41965 26.8531 10.7951V17.8399C26.8531 24.2154 24.1291 26.9394 17.7536 26.9394ZM10.7088 3.45687C5.29613 3.45687 3.37056 5.38243 3.37056 10.7951V17.8399C3.37056 23.2526 5.29613 25.1782 10.7088 25.1782H17.7536C23.1663 25.1782 25.0919 23.2526 25.0919 17.8399V10.7951C25.0919 5.38243 23.1663 3.45687 17.7536 3.45687H10.7088Z" fill="#636C78"/>
<path id="Vector_2" d="M18.3407 22.83C16.556 22.83 15.1118 21.3858 15.1118 19.6011V9.03402C15.1118 7.24935 16.556 5.80518 18.3407 5.80518C20.1253 5.80518 21.5695 7.24935 21.5695 9.03402V19.6011C21.5695 21.3858 20.1253 22.83 18.3407 22.83ZM18.3407 7.56636C17.5305 7.56636 16.873 8.22387 16.873 9.03402V19.6011C16.873 20.4113 17.5305 21.0688 18.3407 21.0688C19.1508 21.0688 19.8083 20.4113 19.8083 19.6011V9.03402C19.8083 8.22387 19.1508 7.56636 18.3407 7.56636Z" fill="#636C78"/>
<path id="Vector_3" d="M10.1214 22.8299C8.33675 22.8299 6.89258 21.3858 6.89258 19.6011V15.4917C6.89258 13.707 8.33675 12.2628 10.1214 12.2628C11.9061 12.2628 13.3503 13.707 13.3503 15.4917V19.6011C13.3503 21.3858 11.9061 22.8299 10.1214 22.8299ZM10.1214 14.024C9.31127 14.024 8.65376 14.6815 8.65376 15.4917V19.6011C8.65376 20.4112 9.31127 21.0688 10.1214 21.0688C10.9316 21.0688 11.5891 20.4112 11.5891 19.6011V15.4917C11.5891 14.6815 10.9316 14.024 10.1214 14.024Z" fill="#636C78"/>
</g>
</g>
</svg>
