<svg width="29" height="29" viewBox="0 0 29 29" fill="none" xmlns="http://www.w3.org/2000/svg">
<g id="vuesax/outline/driver-2">
<g id="driver-2">
<path id="Vector" d="M7.18626 10.9228C6.70487 10.9228 6.30566 10.5236 6.30566 10.0422V7.69395C6.30566 7.21256 6.70487 6.81335 7.18626 6.81335C7.66765 6.81335 8.06685 7.21256 8.06685 7.69395V10.0422C8.06685 10.5236 7.66765 10.9228 7.18626 10.9228Z" fill="#636C78"/>
<path id="Vector_2" d="M11.883 10.9228C11.4016 10.9228 11.0024 10.5236 11.0024 10.0422V7.69395C11.0024 7.21256 11.4016 6.81335 11.883 6.81335C12.3644 6.81335 12.7636 7.21256 12.7636 7.69395V10.0422C12.7636 10.5236 12.3644 10.9228 11.883 10.9228Z" fill="#636C78"/>
<path id="Vector_3" d="M17.7536 27.067H10.7088C4.33334 27.067 1.60938 24.343 1.60938 17.9675V10.9228C1.60938 4.54727 4.33334 1.8233 10.7088 1.8233H17.7536C24.1291 1.8233 26.8531 4.54727 26.8531 10.9228V17.9675C26.8531 24.343 24.1291 27.067 17.7536 27.067ZM10.7088 3.58449C5.29613 3.58449 3.37056 5.51005 3.37056 10.9228V17.9675C3.37056 23.3802 5.29613 25.3058 10.7088 25.3058H17.7536C23.1663 25.3058 25.0919 23.3802 25.0919 17.9675V10.9228C25.0919 5.51005 23.1663 3.58449 17.7536 3.58449H10.7088Z" fill="#636C78"/>
<path id="Vector_4" d="M7.18626 22.3705C6.70487 22.3705 6.30566 21.9713 6.30566 21.49V19.1417C6.30566 18.6603 6.70487 18.2611 7.18626 18.2611C7.66765 18.2611 8.06685 18.6603 8.06685 19.1417V21.49C8.06685 21.9713 7.66765 22.3705 7.18626 22.3705Z" fill="#636C78"/>
<path id="Vector_5" d="M11.883 22.3705C11.4016 22.3705 11.0024 21.9713 11.0024 21.49V19.1417C11.0024 18.6603 11.4016 18.2611 11.883 18.2611C12.3644 18.2611 12.7636 18.6603 12.7636 19.1417V21.49C12.7636 21.9713 12.3644 22.3705 11.883 22.3705Z" fill="#636C78"/>
<path id="Vector_6" d="M21.2758 9.74861H16.5793C16.0979 9.74861 15.6987 9.34941 15.6987 8.86802C15.6987 8.38663 16.0979 7.98743 16.5793 7.98743H21.2758C21.7572 7.98743 22.1564 8.38663 22.1564 8.86802C22.1564 9.34941 21.7572 9.74861 21.2758 9.74861Z" fill="#636C78"/>
<path id="Vector_7" d="M21.2758 21.1964H16.5793C16.0979 21.1964 15.6987 20.7972 15.6987 20.3158C15.6987 19.8344 16.0979 19.4352 16.5793 19.4352H21.2758C21.7572 19.4352 22.1564 19.8344 22.1564 20.3158C22.1564 20.7972 21.7572 21.1964 21.2758 21.1964Z" fill="#636C78"/>
<path id="Vector_8" d="M25.9725 15.3258H2.48997C2.00858 15.3258 1.60938 14.9266 1.60938 14.4452C1.60938 13.9638 2.00858 13.5646 2.48997 13.5646H25.9725C26.4538 13.5646 26.8531 13.9638 26.8531 14.4452C26.8531 14.9266 26.4538 15.3258 25.9725 15.3258Z" fill="#636C78"/>
</g>
</g>
</svg>
