<svg width="42" height="42" viewBox="0 0 42 42" fill="none" xmlns="http://www.w3.org/2000/svg">
<g id="vuesax/outline/facebook">
<g id="facebook">
<path id="Vector" d="M25.5554 39.1797H17.9823V26.9786H16.3835C15.4074 26.9786 14.6165 26.1877 14.6165 25.2116V22.014C14.6165 21.0379 15.4074 20.247 16.3835 20.247H17.9823V16.0397C17.9823 12.5561 20.8096 9.72876 24.2932 9.72876H28.8371C29.8132 9.72876 30.6041 10.5197 30.6041 11.4958V15.5348C30.6041 16.5109 29.8132 17.3019 28.8371 17.3019H25.5554V20.247H28.7193C29.2578 20.247 29.7458 20.4826 30.0824 20.8865C30.419 21.2904 30.5536 21.8289 30.4527 22.3506L29.8131 25.5481C29.6449 26.3727 28.9212 26.9618 28.0798 26.9618H25.5554V39.1797ZM20.5066 36.6553H23.031V24.4542H27.4739L27.8105 22.7713H23.0479V16.5445C23.0479 15.5684 23.8388 14.7775 24.8149 14.7775H28.0966V12.2531H24.2932C22.2064 12.2531 20.5066 13.9529 20.5066 16.0397V22.7713H17.1408V24.4542H20.5066V36.6553Z" fill="#636C78"/>
<path id="Vector_2" d="M25.976 39.1797H15.8785C6.74029 39.1797 2.83594 35.2753 2.83594 26.1371V16.0396C2.83594 6.90143 6.74029 2.99707 15.8785 2.99707H25.976C35.1142 2.99707 39.0185 6.90143 39.0185 16.0396V26.1371C39.0185 35.2753 35.1142 39.1797 25.976 39.1797ZM15.8785 5.52144C8.12028 5.52144 5.36031 8.28141 5.36031 16.0396V26.1371C5.36031 33.8953 8.12028 36.6553 15.8785 36.6553H25.976C33.7342 36.6553 36.4942 33.8953 36.4942 26.1371V16.0396C36.4942 8.28141 33.7342 5.52144 25.976 5.52144H15.8785Z" fill="#636C78"/>
</g>
</g>
</svg>
