<svg width="20" height="19" viewBox="0 0 20 19" fill="none" xmlns="http://www.w3.org/2000/svg">
<path id="Vector" d="M11.0509 0.828055L13.0329 4.84406C13.2039 5.19006 13.5339 5.43006 13.9159 5.48506L18.3479 6.12905C19.3099 6.26905 19.6939 7.45105 18.9979 8.12905L15.7909 11.2551C15.5149 11.5241 15.3889 11.9121 15.4539 12.2931L16.2109 16.7071C16.3749 17.6651 15.3699 18.3951 14.5099 17.9431L10.5459 15.8591C10.2039 15.6791 9.79589 15.6791 9.45489 15.8591L5.49089 17.9431C4.63089 18.3951 3.62489 17.6651 3.78989 16.7071L4.54689 12.2931C4.61189 11.9131 4.48589 11.5251 4.20989 11.2551L1.00289 8.12905C0.306886 7.45105 0.690886 6.26905 1.65289 6.12905L6.08489 5.48506C6.46689 5.43006 6.79689 5.19006 6.96789 4.84406L8.94989 0.828055C9.37889 -0.0429453 10.6209 -0.0429453 11.0509 0.828055Z" fill="#FFBC00"/>
</svg>
