<svg width="336" height="336" viewBox="0 0 336 336" fill="none" xmlns="http://www.w3.org/2000/svg">
<path d="M56.999 77.9923C75.7612 38.0419 142.383 43.68 168.087 71.7696C193.791 99.8592 202.158 117.869 225.348 107.386C248.539 96.9024 278.114 99.6979 279.78 133.029C281.447 166.36 254.332 205.773 211.203 217.432C168.074 229.092 168.087 270.359 111.008 262.033C79.8873 257.497 79.1817 223.823 83.5766 195.975C87.9715 168.128 35.2396 124.32 56.999 77.9923Z" fill="#FC2947"/>
<path opacity="0.9" d="M56.999 77.9923C75.7612 38.0419 142.383 43.68 168.087 71.7696C193.791 99.8592 202.158 117.869 225.348 107.386C248.539 96.9024 278.114 99.6979 279.78 133.029C281.447 166.36 254.332 205.773 211.203 217.432C168.074 229.092 168.087 270.359 111.008 262.033C79.8873 257.497 79.1817 223.823 83.5766 195.975C87.9715 168.128 35.2396 124.32 56.999 77.9923Z" fill="white"/>
<path d="M168 287.32C239.959 287.32 298.294 283.915 298.294 279.713C298.294 275.512 239.959 272.106 168 272.106C96.0406 272.106 37.7059 275.512 37.7059 279.713C37.7059 283.915 96.0406 287.32 168 287.32Z" fill="#F5F5F5"/>
<path d="M270.077 262.907C270.077 262.907 273.269 255.945 269.62 249.077C265.971 242.209 264.916 240.596 267.241 239.185C269.566 237.774 270.635 244.682 270.635 244.682C271.784 241.562 271.902 238.156 270.971 234.965C269.358 229.999 268.343 221.908 270.547 221.041C272.751 220.174 270.971 231.121 272.892 234.871C273.867 232.246 274.497 229.506 274.767 226.719C275.029 222.728 274.62 216.357 276.36 214.724C278.1 213.091 279.223 214.22 277.509 223.023C276.479 228.286 275.91 233.629 275.809 238.99C275.809 238.99 279.592 227.438 282.139 227.102C284.686 226.766 284.679 230.503 282.502 233.748C280.325 236.994 276.125 242.807 275.439 245.797C275.439 245.797 279.599 237.102 283.335 239.749C287.072 242.397 280.083 247.659 276.965 249.561C273.847 251.462 271.683 263.343 271.683 263.343L270.077 262.907Z" fill="#FC2947"/>
<path opacity="0.2" d="M270.077 262.907C270.077 262.907 273.269 255.945 269.62 249.077C265.971 242.209 264.916 240.596 267.241 239.185C269.566 237.774 270.635 244.682 270.635 244.682C271.784 241.562 271.902 238.156 270.971 234.965C269.358 229.999 268.343 221.908 270.547 221.041C272.751 220.174 270.971 231.121 272.892 234.871C273.867 232.246 274.497 229.506 274.767 226.719C275.029 222.728 274.62 216.357 276.36 214.724C278.1 213.091 279.223 214.22 277.509 223.023C276.479 228.286 275.91 233.629 275.809 238.99C275.809 238.99 279.592 227.438 282.139 227.102C284.686 226.766 284.679 230.503 282.502 233.748C280.325 236.994 276.125 242.807 275.439 245.797C275.439 245.797 279.599 237.102 283.335 239.749C287.072 242.397 280.083 247.659 276.965 249.561C273.847 251.462 271.683 263.343 271.683 263.343L270.077 262.907Z" fill="black"/>
<path d="M272.597 265.763C272.597 265.763 269.485 258.754 273.215 251.94C276.945 245.125 278.02 243.526 275.715 242.088C273.41 240.65 272.254 247.531 272.254 247.531C271.14 244.4 271.063 240.993 272.032 237.814C273.706 232.868 274.821 224.791 272.624 223.89C270.426 222.99 272.079 233.97 270.117 237.686C269.173 235.049 268.574 232.3 268.336 229.508C268.121 225.516 268.612 219.153 266.885 217.493C265.158 215.833 264.029 216.948 265.642 225.779C266.607 231.051 267.111 236.398 267.147 241.759C267.147 241.759 263.498 230.153 260.964 229.784C258.431 229.414 258.384 233.144 260.521 236.423C262.658 239.702 266.784 245.576 267.456 248.573C267.456 248.573 263.424 239.837 259.634 242.431C255.844 245.025 262.792 250.387 265.884 252.336C268.975 254.285 271.004 266.199 271.004 266.199L272.597 265.763Z" fill="#FC2947"/>
<path d="M258.256 260.763H283.933L281.857 279.142H260.333L258.256 260.763Z" fill="#263238"/>
<path d="M163.027 276.192V278.604C163.027 278.676 163.013 278.747 162.986 278.813C162.958 278.879 162.918 278.939 162.868 278.989C162.817 279.04 162.757 279.08 162.691 279.107C162.625 279.135 162.554 279.149 162.483 279.149H94.3287C93.7474 279.149 93.1749 279.006 92.6615 278.734C92.1481 278.461 91.7093 278.067 91.3836 277.585C91.058 277.104 90.8554 276.55 90.7936 275.972C90.7318 275.394 90.8127 274.81 91.0291 274.27L112.627 220.779L147.531 221.014L146.341 227.956L138.64 272.879C138.583 273.22 138.6 273.569 138.691 273.902C138.782 274.235 138.944 274.544 139.167 274.808C139.389 275.073 139.667 275.285 139.98 275.431C140.293 275.577 140.634 275.653 140.979 275.654H162.483C162.554 275.654 162.625 275.667 162.691 275.693C162.757 275.72 162.817 275.759 162.867 275.809C162.918 275.859 162.958 275.919 162.986 275.985C163.013 276.05 163.027 276.121 163.027 276.192Z" fill="#263238"/>
<path opacity="0.5" d="M163.027 276.192V278.604C163.027 278.676 163.013 278.747 162.986 278.813C162.958 278.879 162.918 278.939 162.868 278.989C162.817 279.04 162.757 279.08 162.691 279.107C162.625 279.135 162.554 279.149 162.483 279.149H94.3287C93.7474 279.149 93.1749 279.006 92.6615 278.734C92.1481 278.461 91.7093 278.067 91.3836 277.585C91.058 277.104 90.8554 276.55 90.7936 275.972C90.7318 275.394 90.8127 274.81 91.0291 274.27L104.422 241.107L112.627 220.779L147.531 221.014L146.341 227.956L142.981 247.491L138.634 272.879C138.576 273.22 138.593 273.569 138.684 273.902C138.775 274.235 138.938 274.544 139.16 274.808C139.383 275.073 139.66 275.285 139.973 275.431C140.286 275.577 140.627 275.653 140.972 275.654H162.476C162.548 275.653 162.619 275.665 162.686 275.691C162.753 275.718 162.814 275.757 162.865 275.807C162.916 275.857 162.957 275.917 162.985 275.983C163.013 276.049 163.027 276.12 163.027 276.192Z" fill="white"/>
<path opacity="0.2" d="M140.979 275.648H96.6269C96.3713 275.647 96.1199 275.583 95.8947 275.463C95.6695 275.342 95.4774 275.168 95.3354 274.955C95.1933 274.743 95.1056 274.499 95.0801 274.245C95.0545 273.99 95.0919 273.734 95.1888 273.497L114.126 227.949H146.335L138.634 272.872C138.576 273.213 138.593 273.563 138.685 273.897C138.776 274.23 138.939 274.54 139.162 274.804C139.385 275.068 139.664 275.281 139.977 275.426C140.291 275.572 140.633 275.648 140.979 275.648Z" fill="black"/>
<path opacity="0.1" d="M147.531 221.007L146.341 227.949L142.988 247.484L104.422 241.107L112.627 220.772L147.531 221.007Z" fill="black"/>
<path d="M215.396 121.296H53.8137C53.271 121.296 52.7336 121.403 52.2322 121.611C51.7307 121.818 51.2751 122.123 50.8914 122.506C50.5076 122.89 50.2032 123.346 49.9955 123.847C49.7878 124.349 49.6809 124.886 49.6809 125.429V234.824C49.6809 235.92 50.1163 236.971 50.8914 237.746C51.6664 238.521 52.7176 238.957 53.8137 238.957H215.396C216.493 238.957 217.545 238.521 218.321 237.746C219.097 236.972 219.534 235.92 219.536 234.824V125.429C219.534 124.332 219.097 123.281 218.321 122.506C217.545 121.731 216.493 121.296 215.396 121.296Z" fill="#263238"/>
<path opacity="0.6" d="M215.396 121.296H53.8137C53.271 121.296 52.7336 121.403 52.2322 121.611C51.7307 121.818 51.2751 122.123 50.8914 122.506C50.5076 122.89 50.2032 123.346 49.9955 123.847C49.7878 124.349 49.6809 124.886 49.6809 125.429V234.824C49.6809 235.92 50.1163 236.971 50.8914 237.746C51.6664 238.521 52.7176 238.957 53.8137 238.957H215.396C216.493 238.957 217.545 238.521 218.321 237.746C219.097 236.972 219.534 235.92 219.536 234.824V125.429C219.534 124.332 219.097 123.281 218.321 122.506C217.545 121.731 216.493 121.296 215.396 121.296Z" fill="white"/>
<path opacity="0.2" d="M57.2409 238.95H53.8137C52.7188 238.95 51.6686 238.515 50.8938 237.742C50.1189 236.968 49.6827 235.919 49.6809 234.824V125.436C49.68 124.892 49.7863 124.354 49.9936 123.852C50.2009 123.35 50.5051 122.893 50.889 122.509C51.2729 122.124 51.7288 121.819 52.2306 121.611C52.7325 121.403 53.2704 121.296 53.8137 121.296H57.2409C56.6959 121.293 56.1558 121.399 55.6516 121.605C55.1474 121.812 54.6892 122.117 54.3032 122.502C53.9172 122.886 53.6111 123.344 53.4025 123.847C53.194 124.351 53.0871 124.891 53.088 125.436V234.824C53.0879 235.368 53.1956 235.907 53.4046 236.409C53.6136 236.911 53.92 237.367 54.3059 237.751C54.6919 238.134 55.15 238.438 55.6537 238.643C56.1574 238.849 56.6968 238.953 57.2409 238.95Z" fill="black"/>
<path d="M215.813 124.851H56.8378V230.335H215.813V124.851Z" fill="#FC2947"/>
<path opacity="0.4" d="M134.131 165.003C141.754 165.003 147.934 158.823 147.934 151.2C147.934 143.577 141.754 137.397 134.131 137.397C126.508 137.397 120.328 143.577 120.328 151.2C120.328 158.823 126.508 165.003 134.131 165.003Z" fill="white"/>
<path d="M130.838 149.103V147.84C130.838 147.238 131.078 146.66 131.504 146.234C131.93 145.808 132.507 145.569 133.11 145.569H135.126C135.426 145.565 135.724 145.621 136.003 145.734C136.282 145.846 136.535 146.013 136.749 146.224C136.963 146.436 137.133 146.687 137.249 146.965C137.364 147.242 137.424 147.539 137.424 147.84V149.13H138.896V147.84C138.894 146.848 138.499 145.897 137.797 145.195C137.096 144.494 136.145 144.099 135.153 144.097H133.137C132.144 144.099 131.193 144.494 130.492 145.195C129.79 145.897 129.395 146.848 129.394 147.84V149.13L130.838 149.103Z" fill="white"/>
<path d="M127.512 150.804V157.584C127.512 157.683 127.531 157.781 127.569 157.872C127.607 157.963 127.663 158.046 127.732 158.116C127.802 158.186 127.885 158.242 127.977 158.279C128.068 158.317 128.166 158.337 128.265 158.337H139.998C140.097 158.337 140.194 158.317 140.286 158.279C140.377 158.242 140.46 158.186 140.53 158.116C140.6 158.046 140.655 157.963 140.693 157.872C140.731 157.781 140.75 157.683 140.75 157.584V150.804C140.75 150.604 140.671 150.412 140.53 150.271C140.389 150.13 140.197 150.051 139.998 150.051H128.265C128.166 150.051 128.068 150.07 127.977 150.108C127.885 150.146 127.802 150.201 127.732 150.271C127.663 150.341 127.607 150.424 127.569 150.515C127.531 150.607 127.512 150.705 127.512 150.804ZM134.555 154.641V155.985H133.728V154.641C133.607 154.573 133.505 154.476 133.432 154.359C133.36 154.241 133.318 154.107 133.311 153.969C133.311 153.746 133.4 153.532 133.557 153.375C133.715 153.217 133.929 153.129 134.151 153.129C134.374 153.129 134.588 153.217 134.745 153.375C134.903 153.532 134.991 153.746 134.991 153.969C134.983 154.109 134.938 154.244 134.861 154.362C134.785 154.48 134.679 154.576 134.555 154.641Z" fill="white"/>
<path d="M100.457 176.434H87.4205C86.6448 176.434 86.016 177.062 86.016 177.838V190.875C86.016 191.651 86.6448 192.279 87.4205 192.279H100.457C101.233 192.279 101.862 191.651 101.862 190.875V177.838C101.862 177.062 101.233 176.434 100.457 176.434Z" fill="white"/>
<path d="M120.557 176.413H107.52C106.744 176.413 106.115 177.042 106.115 177.818V190.855C106.115 191.63 106.744 192.259 107.52 192.259H120.557C121.332 192.259 121.961 191.63 121.961 190.855V177.818C121.961 177.042 121.332 176.413 120.557 176.413Z" fill="white"/>
<path d="M140.65 176.393H127.613C126.837 176.393 126.208 177.022 126.208 177.798V190.835C126.208 191.61 126.837 192.239 127.613 192.239H140.65C141.425 192.239 142.054 191.61 142.054 190.835V177.798C142.054 177.022 141.425 176.393 140.65 176.393Z" fill="white"/>
<path d="M160.742 176.366H147.706C146.93 176.366 146.301 176.995 146.301 177.771V190.808C146.301 191.583 146.93 192.212 147.706 192.212H160.742C161.518 192.212 162.147 191.583 162.147 190.808V177.771C162.147 176.995 161.518 176.366 160.742 176.366Z" fill="white"/>
<path d="M180.835 176.346H167.798C167.023 176.346 166.394 176.975 166.394 177.751V190.788C166.394 191.563 167.023 192.192 167.798 192.192H180.835C181.611 192.192 182.24 191.563 182.24 190.788V177.751C182.24 176.975 181.611 176.346 180.835 176.346Z" fill="white"/>
<path d="M170.829 184.578C170.829 181.789 172.321 180.204 174.323 180.204C176.326 180.204 177.811 181.789 177.811 184.578C177.811 187.367 176.319 188.953 174.323 188.953C172.328 188.953 170.829 187.367 170.829 184.578ZM176.588 184.578C176.588 182.388 175.654 181.292 174.323 181.292C172.993 181.292 172.052 182.388 172.052 184.578C172.052 186.769 172.979 187.864 174.323 187.864C175.667 187.864 176.588 186.762 176.588 184.578Z" fill="#263238"/>
<path d="M97.1241 184.471C97.1241 187.387 95.471 188.953 93.0921 188.953C92.3496 188.979 91.6137 188.805 90.9619 188.449L91.3919 187.488C91.8911 187.777 92.4623 187.917 93.0383 187.891C94.7721 187.891 95.8742 186.803 95.8742 184.659V184.356C95.5874 184.732 95.212 185.03 94.7816 185.225C94.3512 185.42 93.8792 185.505 93.4079 185.472C91.7078 185.472 90.4847 184.457 90.4847 182.885C90.4847 181.312 91.8287 180.197 93.502 180.197C95.8271 180.204 97.1241 181.742 97.1241 184.471ZM95.6188 182.844C95.6188 181.964 94.9468 181.191 93.6028 181.191C93.3676 181.163 93.129 181.185 92.9027 181.255C92.6764 181.325 92.4675 181.443 92.2898 181.599C92.1121 181.756 91.9696 181.949 91.8716 182.164C91.7736 182.38 91.7224 182.614 91.7212 182.851C91.7212 183.859 92.4671 184.504 93.67 184.504C94.8729 184.504 95.6188 183.785 95.6188 182.844Z" fill="#263238"/>
<path d="M110.544 184.578C110.544 181.789 112.036 180.204 114.038 180.204C116.041 180.204 117.526 181.789 117.526 184.578C117.526 187.367 116.034 188.953 114.038 188.953C112.043 188.953 110.544 187.367 110.544 184.578ZM116.303 184.578C116.303 182.388 115.376 181.292 114.038 181.292C112.701 181.292 111.767 182.388 111.767 184.578C111.767 186.769 112.694 187.864 114.038 187.864C115.382 187.864 116.303 186.769 116.303 184.578Z" fill="#263238"/>
<path d="M137.222 187.79V188.832H131.073V188.026L134.554 184.666C135.462 183.785 135.63 183.248 135.63 182.71C135.63 181.83 135.011 181.292 133.809 181.292C133.398 181.269 132.987 181.341 132.609 181.502C132.23 181.663 131.893 181.908 131.625 182.22L130.791 181.5C131.184 181.066 131.669 180.723 132.211 180.499C132.753 180.275 133.337 180.174 133.923 180.204C135.704 180.204 136.853 181.117 136.853 182.582C136.853 183.416 136.611 184.162 135.448 185.27L132.834 187.784L137.222 187.79Z" fill="#263238"/>
<path d="M155.232 180.298V188.832H154.022V181.366H152.087V180.298H155.232Z" fill="#263238"/>
<g opacity="0.6">
<path d="M119.099 172.563V172.865H116.767V169.566H119.025V169.868H117.116V171.044H118.816V171.36H117.116V172.583L119.099 172.563Z" fill="white"/>
<path d="M122.123 171.427V172.865H121.787V171.461C121.807 171.356 121.802 171.249 121.772 171.147C121.742 171.045 121.689 170.951 121.616 170.874C121.543 170.797 121.453 170.737 121.353 170.702C121.253 170.666 121.146 170.654 121.041 170.668C120.922 170.659 120.804 170.677 120.693 170.719C120.582 170.762 120.482 170.828 120.399 170.913C120.316 170.998 120.253 171.1 120.215 171.212C120.176 171.324 120.162 171.444 120.174 171.562V172.865H119.844V170.386H120.16V170.843C120.261 170.688 120.402 170.563 120.567 170.48C120.732 170.397 120.917 170.36 121.101 170.372C121.241 170.36 121.382 170.38 121.514 170.429C121.645 170.478 121.765 170.556 121.862 170.657C121.96 170.758 122.034 170.88 122.079 171.013C122.124 171.146 122.139 171.288 122.123 171.427Z" fill="white"/>
<path d="M124.32 172.704C124.172 172.824 123.986 172.886 123.796 172.879C123.699 172.887 123.602 172.874 123.511 172.841C123.419 172.807 123.336 172.755 123.267 172.686C123.198 172.618 123.145 172.536 123.111 172.445C123.077 172.354 123.063 172.257 123.07 172.16V170.688H122.627V170.406H123.07V169.868H123.406V170.406H124.159V170.688H123.406V172.166C123.406 172.462 123.554 172.617 123.829 172.617C123.963 172.621 124.094 172.578 124.199 172.496L124.32 172.704Z" fill="white"/>
<path d="M127.008 171.73H124.938C124.954 171.973 125.065 172.2 125.248 172.361C125.43 172.522 125.669 172.604 125.913 172.59C126.055 172.594 126.197 172.568 126.328 172.512C126.459 172.456 126.576 172.373 126.672 172.267L126.86 172.482C126.677 172.654 126.449 172.772 126.202 172.821C125.956 172.87 125.7 172.848 125.465 172.76C125.23 172.671 125.024 172.518 124.872 172.318C124.719 172.118 124.626 171.879 124.602 171.629C124.593 171.465 124.618 171.302 124.674 171.148C124.731 170.995 124.819 170.854 124.933 170.737C125.046 170.619 125.183 170.525 125.334 170.463C125.486 170.4 125.648 170.369 125.812 170.372C125.975 170.369 126.137 170.4 126.288 170.463C126.438 170.525 126.574 170.619 126.687 170.737C126.799 170.855 126.886 170.996 126.941 171.149C126.996 171.303 127.019 171.466 127.008 171.629C127.008 171.629 127.008 171.689 127.008 171.73ZM124.938 171.481H126.692C126.673 171.262 126.572 171.057 126.41 170.909C126.248 170.76 126.035 170.677 125.815 170.677C125.595 170.677 125.383 170.76 125.221 170.909C125.058 171.057 124.957 171.262 124.938 171.481Z" fill="white"/>
<path d="M128.937 170.372V170.688H128.856C128.738 170.682 128.62 170.702 128.51 170.747C128.401 170.792 128.303 170.86 128.223 170.948C128.143 171.035 128.084 171.139 128.049 171.252C128.015 171.365 128.006 171.485 128.023 171.602V172.865H127.68V170.386H128.003V170.869C128.089 170.701 128.225 170.563 128.392 170.475C128.559 170.386 128.749 170.35 128.937 170.372Z" fill="white"/>
<path d="M132.888 170.386L131.652 173.161C131.443 173.645 131.181 173.799 130.825 173.799C130.715 173.803 130.605 173.785 130.503 173.746C130.4 173.707 130.306 173.647 130.227 173.571L130.381 173.322C130.439 173.384 130.509 173.432 130.586 173.465C130.664 173.497 130.748 173.513 130.832 173.51C131.053 173.51 131.201 173.41 131.342 173.1L131.45 172.859L130.368 170.386H130.717L131.645 172.489L132.579 170.386H132.888Z" fill="white"/>
<path d="M133.056 171.629C133.055 171.379 133.128 171.134 133.266 170.925C133.404 170.716 133.6 170.553 133.831 170.457C134.062 170.36 134.316 170.334 134.562 170.382C134.807 170.43 135.033 170.55 135.21 170.726C135.388 170.903 135.509 171.128 135.558 171.373C135.607 171.618 135.583 171.873 135.487 172.104C135.392 172.335 135.23 172.533 135.022 172.672C134.814 172.811 134.57 172.885 134.319 172.885C134.152 172.892 133.986 172.864 133.83 172.803C133.674 172.743 133.532 172.65 133.414 172.532C133.295 172.415 133.202 172.273 133.141 172.118C133.079 171.962 133.05 171.796 133.056 171.629ZM135.233 171.629C135.225 171.448 135.165 171.274 135.058 171.128C134.952 170.982 134.805 170.87 134.636 170.807C134.467 170.744 134.283 170.731 134.107 170.772C133.931 170.812 133.771 170.904 133.646 171.035C133.522 171.166 133.439 171.33 133.407 171.508C133.375 171.686 133.397 171.869 133.469 172.035C133.54 172.201 133.659 172.342 133.811 172.44C133.962 172.539 134.139 172.591 134.319 172.59C134.442 172.589 134.564 172.563 134.676 172.514C134.789 172.465 134.89 172.393 134.974 172.303C135.058 172.213 135.122 172.106 135.163 171.99C135.204 171.875 135.221 171.751 135.213 171.629H135.233Z" fill="white"/>
<path d="M138.466 170.386V172.865H138.15V172.408C138.058 172.561 137.926 172.686 137.769 172.77C137.611 172.854 137.434 172.894 137.256 172.885C137.114 172.9 136.971 172.882 136.836 172.833C136.702 172.784 136.581 172.706 136.481 172.604C136.381 172.502 136.305 172.379 136.259 172.244C136.213 172.109 136.198 171.965 136.214 171.824V170.386H136.544V171.79C136.524 171.894 136.529 172.002 136.558 172.104C136.588 172.206 136.641 172.3 136.714 172.377C136.787 172.454 136.877 172.513 136.977 172.549C137.077 172.585 137.184 172.597 137.29 172.583C137.406 172.59 137.523 172.571 137.632 172.528C137.74 172.484 137.838 172.418 137.918 172.332C137.998 172.247 138.059 172.145 138.095 172.034C138.132 171.923 138.144 171.805 138.13 171.689V170.386H138.466Z" fill="white"/>
<path d="M140.65 170.372V170.688H140.569C140.451 170.682 140.333 170.702 140.223 170.747C140.114 170.792 140.016 170.86 139.936 170.948C139.856 171.035 139.797 171.139 139.762 171.252C139.728 171.365 139.719 171.485 139.736 171.602V172.865H139.4V170.386H139.722V170.869C139.808 170.702 139.943 170.565 140.109 170.477C140.274 170.388 140.463 170.351 140.65 170.372Z" fill="white"/>
<path d="M142.296 171.219C142.284 170.874 142.375 170.533 142.558 170.24C142.741 169.947 143.008 169.715 143.323 169.575C143.639 169.434 143.989 169.391 144.329 169.451C144.67 169.511 144.984 169.671 145.233 169.911C145.481 170.151 145.652 170.459 145.724 170.797C145.796 171.135 145.766 171.487 145.636 171.807C145.507 172.128 145.285 172.402 144.999 172.595C144.713 172.789 144.375 172.892 144.03 172.892C143.805 172.901 143.58 172.865 143.37 172.785C143.159 172.704 142.967 172.583 142.805 172.426C142.643 172.27 142.514 172.082 142.427 171.875C142.339 171.667 142.295 171.444 142.296 171.219ZM145.407 171.219C145.415 170.942 145.34 170.669 145.191 170.435C145.042 170.201 144.826 170.018 144.572 169.908C144.317 169.798 144.036 169.767 143.763 169.82C143.491 169.872 143.241 170.004 143.045 170.2C142.849 170.396 142.716 170.647 142.664 170.919C142.612 171.191 142.643 171.473 142.752 171.727C142.862 171.982 143.046 172.197 143.279 172.346C143.513 172.495 143.786 172.571 144.063 172.563C144.42 172.563 144.762 172.421 145.014 172.169C145.266 171.917 145.407 171.575 145.407 171.219Z" fill="white"/>
<path d="M147.128 169.868H145.972V169.566H148.66V169.868H147.497V172.865H147.148L147.128 169.868Z" fill="white"/>
<path d="M151.771 170.688C151.771 171.36 151.26 171.81 150.427 171.81H149.547V172.852H149.184V169.552H150.414C151.26 169.566 151.771 170.016 151.771 170.688ZM151.422 170.688C151.422 170.157 151.072 169.855 150.414 169.855H149.54V171.501H150.414C151.072 171.515 151.422 171.219 151.422 170.688Z" fill="white"/>
</g>
<g opacity="0.6">
<path d="M121.061 200.854L121.195 200.592C121.497 200.854 121.884 200.995 122.284 200.988C122.895 200.988 123.164 200.733 123.164 200.404C123.164 199.503 121.148 200.054 121.148 198.838C121.148 198.354 121.524 197.938 122.358 197.938C122.719 197.933 123.074 198.033 123.379 198.227L123.265 198.502C122.994 198.329 122.679 198.236 122.358 198.233C121.76 198.233 121.491 198.502 121.491 198.831C121.491 199.732 123.507 199.188 123.507 200.384C123.507 200.874 123.124 201.284 122.284 201.284C121.836 201.301 121.399 201.147 121.061 200.854Z" fill="white"/>
<path d="M126.336 200.122H124.266C124.282 200.365 124.393 200.592 124.576 200.753C124.758 200.914 124.997 200.996 125.241 200.982C125.383 200.986 125.525 200.96 125.656 200.904C125.787 200.848 125.904 200.765 126 200.659L126.188 200.874C126.07 201.01 125.923 201.117 125.758 201.187C125.592 201.258 125.414 201.291 125.234 201.284C125.063 201.295 124.893 201.269 124.733 201.21C124.572 201.151 124.426 201.059 124.304 200.94C124.181 200.821 124.084 200.678 124.02 200.52C123.956 200.361 123.925 200.192 123.93 200.021C123.922 199.858 123.947 199.694 124.004 199.541C124.062 199.388 124.15 199.248 124.263 199.131C124.376 199.013 124.513 198.92 124.664 198.857C124.814 198.794 124.976 198.762 125.14 198.764C125.304 198.76 125.466 198.79 125.618 198.853C125.769 198.915 125.906 199.008 126.019 199.127C126.132 199.245 126.22 199.386 126.275 199.54C126.331 199.694 126.354 199.857 126.343 200.021C126.343 200.021 126.336 200.088 126.336 200.122ZM124.266 199.873H126.02C126.001 199.654 125.9 199.449 125.738 199.301C125.576 199.152 125.363 199.069 125.143 199.069C124.923 199.069 124.711 199.152 124.549 199.301C124.386 199.449 124.285 199.654 124.266 199.873Z" fill="white"/>
<path d="M129.313 199.819V201.257H128.984V199.853C129.002 199.749 128.996 199.642 128.966 199.541C128.936 199.44 128.882 199.347 128.81 199.271C128.737 199.194 128.648 199.136 128.548 199.1C128.449 199.065 128.342 199.053 128.238 199.067C128.119 199.058 128.001 199.076 127.89 199.118C127.779 199.16 127.679 199.226 127.596 199.312C127.513 199.397 127.45 199.499 127.412 199.611C127.373 199.723 127.359 199.842 127.371 199.96V201.257H127.008V198.784H127.33V199.241C127.431 199.085 127.571 198.959 127.736 198.875C127.901 198.791 128.086 198.753 128.271 198.764C128.413 198.749 128.556 198.766 128.69 198.814C128.825 198.862 128.946 198.939 129.046 199.041C129.147 199.142 129.222 199.265 129.269 199.399C129.315 199.534 129.33 199.678 129.313 199.819Z" fill="white"/>
<path d="M132.492 197.763V201.257H132.169V200.767C132.071 200.93 131.93 201.065 131.762 201.156C131.595 201.247 131.406 201.291 131.215 201.284C130.896 201.261 130.599 201.118 130.381 200.884C130.164 200.651 130.043 200.343 130.043 200.024C130.043 199.705 130.164 199.398 130.381 199.164C130.599 198.93 130.896 198.787 131.215 198.764C131.401 198.758 131.585 198.799 131.75 198.885C131.915 198.971 132.055 199.099 132.156 199.255V197.763H132.492ZM132.162 200.021C132.154 199.841 132.094 199.667 131.988 199.521C131.882 199.375 131.736 199.263 131.567 199.2C131.398 199.136 131.214 199.123 131.039 199.163C130.863 199.203 130.702 199.294 130.578 199.424C130.453 199.554 130.369 199.718 130.337 199.896C130.304 200.073 130.325 200.256 130.396 200.422C130.466 200.588 130.584 200.729 130.735 200.829C130.885 200.928 131.061 200.982 131.242 200.982C131.367 200.984 131.491 200.96 131.606 200.912C131.721 200.864 131.825 200.793 131.912 200.702C131.998 200.612 132.065 200.505 132.108 200.388C132.151 200.27 132.17 200.146 132.162 200.021Z" fill="white"/>
<path d="M136.523 199.725V201.257H136.201V200.874C136.108 201.012 135.979 201.122 135.83 201.194C135.68 201.266 135.513 201.297 135.347 201.284C134.79 201.284 134.447 200.988 134.447 200.558C134.447 200.128 134.689 199.886 135.401 199.886H136.187V199.739C136.197 199.648 136.186 199.556 136.156 199.471C136.125 199.385 136.076 199.307 136.012 199.242C135.947 199.178 135.869 199.129 135.783 199.098C135.698 199.068 135.606 199.057 135.515 199.067C135.213 199.062 134.92 199.167 134.689 199.362L134.541 199.114C134.825 198.887 135.179 198.768 135.542 198.778C135.672 198.762 135.803 198.776 135.927 198.817C136.051 198.859 136.164 198.928 136.258 199.019C136.352 199.109 136.424 199.22 136.47 199.342C136.516 199.464 136.534 199.595 136.523 199.725ZM136.187 200.511V200.108H135.408C134.931 200.108 134.776 200.296 134.776 200.552C134.776 200.807 135.005 201.015 135.401 201.015C135.569 201.026 135.736 200.983 135.877 200.893C136.019 200.802 136.128 200.668 136.187 200.511Z" fill="white"/>
<path d="M139.729 198.784V200.928C139.755 201.096 139.742 201.269 139.689 201.431C139.636 201.593 139.546 201.74 139.425 201.861C139.305 201.981 139.157 202.072 138.995 202.124C138.833 202.177 138.661 202.191 138.492 202.164C138.075 202.181 137.665 202.047 137.337 201.788L137.505 201.533C137.78 201.755 138.125 201.874 138.479 201.869C139.111 201.869 139.393 201.587 139.393 200.975V200.659C139.287 200.814 139.143 200.939 138.974 201.023C138.806 201.106 138.62 201.145 138.432 201.136C138.267 201.149 138.101 201.127 137.945 201.072C137.789 201.017 137.645 200.931 137.524 200.819C137.403 200.706 137.306 200.57 137.24 200.418C137.173 200.266 137.139 200.102 137.139 199.937C137.139 199.771 137.173 199.608 137.24 199.456C137.306 199.304 137.403 199.168 137.524 199.055C137.645 198.942 137.789 198.856 137.945 198.801C138.101 198.747 138.267 198.725 138.432 198.737C138.623 198.728 138.813 198.768 138.984 198.854C139.154 198.94 139.3 199.069 139.406 199.228V198.757L139.729 198.784ZM139.406 199.96C139.413 199.773 139.364 199.588 139.264 199.429C139.165 199.27 139.021 199.144 138.85 199.068C138.678 198.991 138.488 198.968 138.304 199C138.119 199.033 137.948 199.119 137.813 199.249C137.678 199.38 137.585 199.547 137.546 199.73C137.507 199.914 137.524 200.105 137.594 200.279C137.664 200.452 137.784 200.601 137.94 200.706C138.095 200.811 138.278 200.867 138.466 200.868C138.588 200.875 138.711 200.857 138.826 200.814C138.942 200.772 139.047 200.706 139.135 200.621C139.224 200.535 139.294 200.433 139.34 200.319C139.387 200.205 139.409 200.083 139.406 199.96Z" fill="white"/>
<path d="M142.531 199.725V201.257H142.215V200.874C142.122 201.011 141.993 201.121 141.844 201.193C141.694 201.265 141.528 201.297 141.362 201.284C140.797 201.284 140.455 200.988 140.455 200.558C140.455 200.128 140.703 199.886 141.416 199.886H142.195V199.739C142.195 199.315 141.96 199.067 141.523 199.067C141.223 199.063 140.932 199.168 140.703 199.362L140.549 199.114C140.835 198.887 141.192 198.768 141.557 198.778C141.686 198.763 141.817 198.778 141.94 198.82C142.062 198.862 142.174 198.931 142.268 199.021C142.361 199.112 142.433 199.222 142.478 199.344C142.524 199.465 142.542 199.596 142.531 199.725ZM142.195 200.511V200.108H141.422C140.939 200.108 140.784 200.296 140.784 200.552C140.784 200.807 141.019 201.015 141.416 201.015C141.583 201.027 141.749 200.984 141.89 200.893C142.03 200.803 142.137 200.668 142.195 200.511Z" fill="white"/>
<path d="M143.365 197.998C143.374 197.94 143.404 197.887 143.449 197.849C143.494 197.811 143.551 197.79 143.61 197.79C143.669 197.79 143.726 197.811 143.771 197.849C143.815 197.887 143.845 197.94 143.855 197.998C143.845 198.056 143.815 198.109 143.771 198.147C143.726 198.185 143.669 198.206 143.61 198.206C143.551 198.206 143.494 198.185 143.449 198.147C143.404 198.109 143.374 198.056 143.365 197.998ZM143.438 198.784H143.774V201.257H143.438V198.784Z" fill="white"/>
<path d="M146.98 199.819V201.257H146.651V199.853C146.669 199.749 146.663 199.642 146.633 199.541C146.603 199.44 146.549 199.347 146.477 199.271C146.404 199.194 146.315 199.136 146.215 199.1C146.116 199.065 146.009 199.053 145.905 199.067C145.786 199.058 145.668 199.076 145.557 199.118C145.446 199.16 145.346 199.226 145.263 199.311C145.18 199.397 145.117 199.499 145.079 199.611C145.04 199.723 145.026 199.842 145.038 199.96V201.257H144.708V198.784H145.024V199.241C145.124 199.085 145.264 198.959 145.43 198.875C145.595 198.791 145.78 198.753 145.965 198.764C146.105 198.753 146.245 198.773 146.376 198.823C146.507 198.873 146.625 198.951 146.722 199.052C146.819 199.153 146.892 199.274 146.937 199.407C146.981 199.539 146.996 199.68 146.98 199.819Z" fill="white"/>
</g>
<path opacity="0.4" d="M152.853 218.057H115.403C113.923 218.055 112.504 217.466 111.458 216.419C110.412 215.372 109.825 213.953 109.825 212.473C109.825 210.993 110.412 209.574 111.458 208.527C112.504 207.48 113.923 206.89 115.403 206.889H152.853C154.334 206.889 155.755 207.477 156.802 208.524C157.849 209.572 158.437 210.992 158.437 212.473C158.437 213.954 157.849 215.374 156.802 216.422C155.755 217.469 154.334 218.057 152.853 218.057Z" fill="white"/>
<path d="M119.522 212.191C119.519 211.929 119.569 211.67 119.671 211.428C119.772 211.187 119.922 210.969 120.111 210.788C120.3 210.608 120.524 210.468 120.77 210.377C121.015 210.286 121.277 210.247 121.538 210.262C121.805 210.253 122.071 210.3 122.318 210.402C122.565 210.504 122.787 210.658 122.969 210.853L122.62 211.189C122.485 211.044 122.32 210.929 122.137 210.853C121.954 210.776 121.756 210.74 121.558 210.746C121.319 210.748 121.085 210.81 120.876 210.924C120.667 211.039 120.489 211.204 120.36 211.405C120.23 211.605 120.152 211.834 120.132 212.072C120.112 212.31 120.152 212.548 120.247 212.767C120.342 212.986 120.49 213.178 120.678 213.326C120.865 213.473 121.086 213.572 121.321 213.614C121.556 213.655 121.798 213.638 122.024 213.563C122.251 213.488 122.456 213.358 122.62 213.185L122.969 213.521C122.786 213.717 122.562 213.871 122.314 213.973C122.066 214.075 121.799 214.123 121.531 214.113C121.271 214.127 121.01 214.088 120.766 213.998C120.521 213.908 120.297 213.768 120.109 213.588C119.921 213.408 119.771 213.191 119.67 212.951C119.569 212.71 119.519 212.451 119.522 212.191Z" fill="white"/>
<path d="M123.332 212.191C123.313 211.789 123.415 211.39 123.625 211.046C123.835 210.703 124.143 210.43 124.509 210.262C124.876 210.095 125.284 210.042 125.681 210.109C126.078 210.175 126.446 210.36 126.737 210.637C127.028 210.915 127.23 211.274 127.316 211.667C127.401 212.061 127.367 212.471 127.218 212.845C127.069 213.219 126.811 213.539 126.477 213.765C126.144 213.991 125.751 214.112 125.348 214.113C125.088 214.126 124.827 214.087 124.583 213.996C124.338 213.906 124.115 213.766 123.926 213.586C123.737 213.406 123.587 213.19 123.485 212.95C123.383 212.71 123.331 212.451 123.332 212.191ZM126.793 212.191C126.797 211.9 126.714 211.614 126.555 211.371C126.397 211.127 126.169 210.936 125.901 210.822C125.633 210.709 125.338 210.677 125.052 210.732C124.767 210.787 124.504 210.925 124.297 211.13C124.09 211.335 123.949 211.596 123.892 211.881C123.835 212.167 123.863 212.462 123.975 212.731C124.086 213 124.275 213.229 124.517 213.39C124.759 213.551 125.044 213.637 125.335 213.636C125.527 213.642 125.718 213.609 125.897 213.539C126.076 213.469 126.239 213.363 126.375 213.228C126.512 213.092 126.619 212.931 126.691 212.752C126.763 212.574 126.798 212.383 126.793 212.191Z" fill="white"/>
<path d="M131.389 210.336V214.099H130.946L128.688 211.29V214.099H128.15V210.336H128.594L130.852 213.138V210.336H131.389Z" fill="white"/>
<path d="M133.264 210.773H131.974V210.336H135.072V210.8H133.795V214.099H133.264V210.773Z" fill="white"/>
<path d="M135.67 210.336H136.208V214.099H135.67V210.336Z" fill="white"/>
<path d="M140.576 210.336V214.099H140.132L137.874 211.29V214.099H137.337V210.336H137.76L140.018 213.138V210.336H140.576Z" fill="white"/>
<path d="M141.671 212.446V210.336H142.209V212.453C142.209 213.286 142.592 213.662 143.27 213.662C143.949 213.662 144.332 213.286 144.332 212.453V210.336H144.856V212.473C144.856 212.895 144.689 213.3 144.39 213.599C144.091 213.898 143.686 214.066 143.264 214.066C142.841 214.066 142.436 213.898 142.137 213.599C141.839 213.3 141.671 212.895 141.671 212.473V212.446Z" fill="white"/>
<path d="M148.687 213.602V214.072H145.958V210.336H148.646V210.8H146.496V211.956H148.378V212.412H146.496V213.629L148.687 213.602Z" fill="white"/>
<path opacity="0.1" d="M199.241 125.341C177.26 147.363 120.805 196.379 56.8378 192.75V125.341H199.241Z" fill="white"/>
<path opacity="0.1" d="M215.806 165.816V230.832H120.1C123.769 217.701 131.107 199.718 145.34 186.87C170.943 163.753 200.659 163.82 215.806 165.816Z" fill="white"/>
<path d="M236.026 114.972L238.258 124.824L240.489 114.972H236.026Z" fill="#FC2947"/>
<path opacity="0.7" d="M236.026 114.972L238.258 124.824L240.489 114.972H236.026Z" fill="white"/>
<path d="M263.229 87.0778H213.293C210.105 87.0778 207.52 89.6622 207.52 92.8502V111.384C207.52 114.572 210.105 117.156 213.293 117.156H263.229C266.417 117.156 269.002 114.572 269.002 111.384V92.8502C269.002 89.6622 266.417 87.0778 263.229 87.0778Z" fill="#FC2947"/>
<path opacity="0.7" d="M263.229 87.0778H213.293C210.105 87.0778 207.52 89.6622 207.52 92.8502V111.384C207.52 114.572 210.105 117.156 213.293 117.156H263.229C266.417 117.156 269.002 114.572 269.002 111.384V92.8502C269.002 89.6622 266.417 87.0778 263.229 87.0778Z" fill="white"/>
<g opacity="0.5">
<path d="M219.798 98.112V99.409H219.267V98.112L217.775 95.6659H218.353L219.556 97.6819L220.765 95.6659H221.296L219.798 98.112Z" fill="#263238"/>
<path d="M221.175 97.991C221.17 97.6962 221.253 97.4065 221.412 97.1588C221.572 96.911 221.802 96.7165 222.073 96.5999C222.344 96.4834 222.643 96.4501 222.933 96.5044C223.223 96.5586 223.49 96.6979 223.701 96.9045C223.911 97.1111 224.055 97.3756 224.115 97.6644C224.174 97.9532 224.146 98.2532 224.035 98.5261C223.923 98.799 223.733 99.0326 223.488 99.197C223.243 99.3614 222.955 99.4492 222.66 99.4493C222.465 99.4586 222.27 99.4275 222.088 99.3579C221.905 99.2883 221.739 99.1816 221.599 99.0447C221.46 98.9078 221.35 98.7435 221.277 98.5622C221.204 98.3809 221.17 98.1864 221.175 97.991ZM223.615 97.991C223.626 97.8585 223.609 97.7252 223.566 97.5994C223.523 97.4736 223.454 97.3581 223.364 97.2603C223.274 97.1624 223.165 97.0843 223.043 97.0308C222.922 96.9774 222.79 96.9498 222.657 96.9498C222.524 96.9498 222.393 96.9774 222.271 97.0308C222.149 97.0843 222.04 97.1624 221.95 97.2603C221.86 97.3581 221.791 97.4736 221.748 97.5994C221.705 97.7252 221.688 97.8585 221.699 97.991C221.688 98.1235 221.705 98.2569 221.748 98.3827C221.791 98.5085 221.86 98.624 221.95 98.7218C222.04 98.8197 222.149 98.8978 222.271 98.9513C222.393 99.0047 222.524 99.0323 222.657 99.0323C222.79 99.0323 222.922 99.0047 223.043 98.9513C223.165 98.8978 223.274 98.8197 223.364 98.7218C223.454 98.624 223.523 98.5085 223.566 98.3827C223.609 98.2569 223.626 98.1235 223.615 97.991Z" fill="#263238"/>
<path d="M227.506 96.5664V99.4157H227.022V98.9856C226.91 99.1354 226.764 99.2558 226.595 99.3366C226.426 99.4173 226.241 99.456 226.054 99.4493C225.887 99.4664 225.719 99.446 225.561 99.3893C225.403 99.3327 225.26 99.2414 225.142 99.1221C225.024 99.0029 224.934 98.8587 224.879 98.7001C224.824 98.5416 224.805 98.3728 224.824 98.2061V96.5664H225.342V98.1523C225.342 98.7101 225.624 98.9856 226.115 98.9856C226.238 98.9936 226.361 98.9743 226.475 98.9289C226.59 98.8836 226.693 98.8134 226.777 98.7234C226.861 98.6334 226.925 98.5259 226.962 98.4086C227 98.2912 227.011 98.167 226.995 98.0448V96.5664H227.506Z" fill="#263238"/>
<path d="M230.026 96.5395V97.0435H229.905C229.779 97.0354 229.654 97.0552 229.537 97.1016C229.42 97.148 229.315 97.2198 229.23 97.3118C229.144 97.4038 229.08 97.5137 229.042 97.6335C229.004 97.7533 228.994 97.88 229.011 98.0045V99.4224H228.48V96.5664H228.977V97.0503C229.085 96.8739 229.241 96.7321 229.427 96.6416C229.613 96.5511 229.82 96.5157 230.026 96.5395Z" fill="#263238"/>
<path d="M231.914 97.5341C231.896 97.1321 232 96.7341 232.21 96.3913C232.421 96.0485 232.729 95.7765 233.096 95.6104C233.462 95.4444 233.87 95.3918 234.267 95.4594C234.664 95.5271 235.031 95.7118 235.322 95.99C235.612 96.2681 235.813 96.6269 235.898 97.0202C235.983 97.4134 235.949 97.8232 235.799 98.1967C235.65 98.5702 235.392 98.8903 235.058 99.1159C234.725 99.3416 234.332 99.4623 233.93 99.4627C233.669 99.4775 233.407 99.4384 233.162 99.3478C232.916 99.2573 232.692 99.1172 232.503 98.9363C232.314 98.7555 232.164 98.5377 232.063 98.2964C231.961 98.0552 231.911 97.7957 231.914 97.5341ZM235.375 97.5341C235.379 97.2432 235.296 96.9578 235.137 96.7141C234.978 96.4704 234.751 96.2795 234.483 96.1657C234.215 96.0519 233.92 96.0204 233.634 96.0752C233.348 96.13 233.085 96.2686 232.879 96.4733C232.672 96.678 232.531 96.9396 232.474 97.2248C232.416 97.5099 232.445 97.8057 232.556 98.0745C232.668 98.3432 232.856 98.5727 233.099 98.7338C233.341 98.8949 233.626 98.9802 233.916 98.9789C234.109 98.9853 234.3 98.9525 234.479 98.8824C234.658 98.8122 234.821 98.7062 234.957 98.571C235.094 98.4357 235.201 98.2739 235.273 98.0956C235.345 97.9173 235.379 97.7262 235.375 97.5341Z" fill="#263238"/>
<path d="M237.431 96.096H236.141V95.6323H239.232V96.096H237.942V99.3888H237.411L237.431 96.096Z" fill="#263238"/>
<path d="M242.874 96.9696C242.874 97.7827 242.283 98.28 241.302 98.28H240.374V99.4157H239.837V95.6592H241.302C242.283 95.6592 242.874 96.1498 242.874 96.9696ZM242.337 96.9696C242.337 96.432 241.974 96.1229 241.288 96.1229H240.374V97.8096H241.288C241.974 97.8096 242.337 97.5072 242.337 96.9696Z" fill="#263238"/>
<path d="M244.857 97.5341C244.875 97.1452 245.005 96.7699 245.232 96.4534C245.458 96.137 245.772 95.8929 246.134 95.7508C246.497 95.6087 246.893 95.5745 247.274 95.6525C247.655 95.7304 248.006 95.9172 248.284 96.1901L247.934 96.5328C247.8 96.3865 247.635 96.2707 247.452 96.1931C247.269 96.1154 247.071 96.0778 246.873 96.0826C246.489 96.0826 246.122 96.2348 245.851 96.5057C245.58 96.7767 245.428 97.1442 245.428 97.5274C245.428 97.9106 245.58 98.278 245.851 98.549C246.122 98.8199 246.489 98.9722 246.873 98.9722C247.071 98.977 247.269 98.9393 247.452 98.8617C247.635 98.784 247.8 98.6682 247.934 98.5219L248.284 98.8646C248.006 99.1376 247.655 99.3243 247.274 99.4022C246.893 99.4802 246.497 99.446 246.134 99.3039C245.772 99.1618 245.458 98.9178 245.232 98.6013C245.005 98.2849 244.875 97.9095 244.857 97.5206V97.5341Z" fill="#263238"/>
<path d="M248.593 97.991C248.588 97.6962 248.67 97.4065 248.83 97.1588C248.99 96.911 249.22 96.7165 249.491 96.5999C249.762 96.4834 250.061 96.4501 250.351 96.5044C250.641 96.5586 250.908 96.6979 251.118 96.9045C251.329 97.1111 251.473 97.3756 251.532 97.6644C251.592 97.9532 251.564 98.2532 251.452 98.5261C251.341 98.799 251.151 99.0326 250.906 99.197C250.661 99.3614 250.373 99.4492 250.078 99.4493C249.883 99.4586 249.688 99.4275 249.505 99.3579C249.323 99.2883 249.156 99.1816 249.017 99.0447C248.877 98.9078 248.768 98.7435 248.695 98.5622C248.622 98.3809 248.587 98.1864 248.593 97.991ZM251.032 97.991C251.043 97.8585 251.027 97.7252 250.984 97.5994C250.941 97.4736 250.872 97.3581 250.782 97.2603C250.692 97.1624 250.583 97.0843 250.461 97.0308C250.339 96.9774 250.208 96.9498 250.075 96.9498C249.942 96.9498 249.81 96.9774 249.688 97.0308C249.567 97.0843 249.457 97.1624 249.367 97.2603C249.277 97.3581 249.209 97.4736 249.166 97.5994C249.122 97.7252 249.106 97.8585 249.117 97.991C249.106 98.1235 249.122 98.2569 249.166 98.3827C249.209 98.5085 249.277 98.624 249.367 98.7218C249.457 98.8197 249.567 98.8978 249.688 98.9513C249.81 99.0047 249.942 99.0323 250.075 99.0323C250.208 99.0323 250.339 99.0047 250.461 98.9513C250.583 98.8978 250.692 98.8197 250.782 98.7218C250.872 98.624 250.941 98.5085 250.984 98.3827C251.027 98.2569 251.043 98.1235 251.032 97.991Z" fill="#263238"/>
<path d="M254.957 95.424V99.409H254.466V98.9587C254.349 99.1155 254.195 99.2414 254.018 99.3257C253.842 99.41 253.647 99.4501 253.451 99.4426C253.083 99.4175 252.737 99.2533 252.485 98.9832C252.233 98.7132 252.092 98.3573 252.092 97.9877C252.092 97.6181 252.233 97.2622 252.485 96.9922C252.737 96.7221 253.083 96.5579 253.451 96.5328C253.641 96.527 253.83 96.5653 254.002 96.6445C254.175 96.7238 254.327 96.842 254.446 96.9898V95.424H254.957ZM254.446 97.9843C254.437 97.7963 254.373 97.615 254.261 97.4632C254.15 97.3113 253.996 97.1955 253.82 97.1302C253.643 97.0648 253.451 97.0528 253.268 97.0955C253.085 97.1383 252.918 97.234 252.788 97.3707C252.659 97.5075 252.572 97.6792 252.54 97.8647C252.507 98.0501 252.53 98.2411 252.605 98.4138C252.68 98.5866 252.804 98.7335 252.961 98.8363C253.119 98.9392 253.303 98.9934 253.492 98.9923C253.622 98.9955 253.751 98.9714 253.872 98.9215C253.992 98.8717 254.101 98.7972 254.191 98.7029C254.28 98.6087 254.35 98.4966 254.394 98.374C254.438 98.2514 254.455 98.121 254.446 97.9911V97.9843Z" fill="#263238"/>
<path d="M258.498 98.1658H256.193C256.225 98.41 256.35 98.6325 256.541 98.7876C256.732 98.9427 256.976 99.0184 257.221 98.9991C257.375 99.0045 257.527 98.9767 257.669 98.9176C257.81 98.8584 257.938 98.7693 258.041 98.6563L258.33 98.9856C258.12 99.199 257.852 99.3469 257.559 99.4114C257.266 99.4758 256.961 99.4542 256.681 99.349C256.4 99.2438 256.156 99.0596 255.977 98.8187C255.799 98.5777 255.694 98.2902 255.676 97.9911C255.668 97.8002 255.7 97.6098 255.769 97.4317C255.838 97.2535 255.943 97.0915 256.077 96.9554C256.211 96.8194 256.372 96.7123 256.549 96.6408C256.726 96.5693 256.916 96.5348 257.107 96.5395C257.3 96.5299 257.493 96.562 257.672 96.6335C257.851 96.705 258.013 96.8143 258.146 96.954C258.279 97.0936 258.381 97.2603 258.444 97.4428C258.507 97.6252 258.53 97.8191 258.512 98.0112C258.51 98.0629 258.506 98.1146 258.498 98.1658ZM256.193 97.7962H258.048C258.028 97.5682 257.924 97.3558 257.755 97.2011C257.587 97.0464 257.366 96.9605 257.137 96.9605C256.909 96.9605 256.688 97.0464 256.52 97.2011C256.351 97.3558 256.247 97.5682 256.227 97.7962H256.193Z" fill="#263238"/>
</g>
<g opacity="0.5">
<path d="M230.496 105.302C230.496 107.419 229.307 108.548 227.566 108.548C227.03 108.567 226.498 108.441 226.027 108.185L226.363 107.513C226.727 107.72 227.141 107.82 227.559 107.802C228.816 107.802 229.616 107.016 229.616 105.463V105.248C229.408 105.521 229.136 105.738 228.824 105.879C228.512 106.021 228.17 106.084 227.828 106.061C227.563 106.09 227.295 106.064 227.042 105.983C226.788 105.902 226.554 105.77 226.354 105.593C226.155 105.416 225.995 105.2 225.884 104.958C225.773 104.716 225.714 104.453 225.711 104.186C225.718 103.912 225.78 103.641 225.895 103.391C226.01 103.141 226.175 102.917 226.379 102.734C226.584 102.55 226.824 102.41 227.085 102.322C227.345 102.235 227.621 102.201 227.895 102.224C229.555 102.211 230.496 103.326 230.496 105.302ZM229.401 104.16C229.401 103.521 228.89 102.963 227.922 102.963C227.753 102.946 227.582 102.963 227.421 103.016C227.259 103.068 227.11 103.153 226.983 103.267C226.857 103.38 226.755 103.519 226.685 103.674C226.616 103.829 226.579 103.996 226.578 104.166C226.578 104.892 227.116 105.362 227.983 105.362C228.155 105.38 228.33 105.362 228.496 105.311C228.661 105.259 228.815 105.175 228.948 105.063C229.08 104.95 229.188 104.813 229.266 104.657C229.344 104.502 229.39 104.333 229.401 104.16Z" fill="#263238"/>
<path d="M231.343 105.383C231.343 103.367 232.425 102.211 233.876 102.211C235.328 102.211 236.396 103.367 236.396 105.383C236.396 107.399 235.314 108.548 233.876 108.548C232.438 108.548 231.343 107.399 231.343 105.383ZM235.509 105.383C235.509 103.797 234.837 103.004 233.876 103.004C232.915 103.004 232.23 103.797 232.23 105.383C232.23 106.969 232.902 107.762 233.876 107.762C234.85 107.762 235.509 106.969 235.509 105.383Z" fill="#263238"/>
<path d="M241.577 107.708V108.481H237.122V107.876L239.649 105.444C240.321 104.805 240.421 104.415 240.421 104.026C240.421 103.394 239.971 103.004 239.077 103.004C238.78 102.987 238.483 103.038 238.209 103.155C237.935 103.271 237.692 103.45 237.498 103.676L236.893 103.152C237.178 102.837 237.528 102.59 237.92 102.427C238.312 102.264 238.734 102.19 239.158 102.211C240.448 102.211 241.282 102.883 241.282 103.938C241.272 104.319 241.175 104.692 240.999 105.03C240.823 105.367 240.573 105.661 240.267 105.887L238.372 107.708H241.577Z" fill="#263238"/>
<path d="M244.225 102.285V108.481H243.345V103.058H241.92V102.285H244.225Z" fill="#263238"/>
<path d="M245.576 105.383C245.576 103.367 246.658 102.211 248.109 102.211C249.561 102.211 250.629 103.367 250.629 105.383C250.629 107.399 249.554 108.548 248.109 108.548C246.664 108.548 245.576 107.399 245.576 105.383ZM249.749 105.383C249.749 103.797 249.077 103.004 248.109 103.004C247.141 103.004 246.463 103.797 246.463 105.383C246.463 106.969 247.135 107.762 248.109 107.762C249.084 107.762 249.749 106.969 249.749 105.383Z" fill="#263238"/>
</g>
<path d="M232.734 143.868C236.745 146.644 241.232 148.66 245.972 149.816H246.019C245.664 149.805 245.315 149.904 245.018 150.098C244.725 150.281 244.492 150.544 244.346 150.857C244.297 150.953 244.269 151.059 244.265 151.166C244.373 149.755 243.761 148.169 243.331 146.644C242.558 144.231 241.651 141.758 240.744 139.332L243.338 137.941C245.482 141.228 252.638 151.63 247.753 154.641C246.915 155.129 245.926 155.287 244.978 155.084C239.654 154.296 234.578 152.316 230.126 149.292C229.817 149.076 229.548 148.888 229.186 148.62L232.747 143.855L232.734 143.868Z" fill="#DC897C"/>
<path d="M231.981 143.136C234.334 143.42 236.568 144.327 238.453 145.764L235.765 154.083C235.765 154.083 222.701 142.041 231.981 143.136Z" fill="#FC2947"/>
<path opacity="0.6" d="M231.954 150.132C233.15 151.501 234.415 152.809 235.744 154.049L236.853 150.629L238.453 145.73C236.57 144.294 234.338 143.387 231.988 143.102C226.276 142.464 229.004 146.738 231.954 150.132Z" fill="white"/>
<path opacity="0.2" d="M231.954 150.132C233.15 151.501 234.415 152.809 235.744 154.049L236.853 150.629C235.459 149.542 233.742 148.951 231.974 148.949C231.934 149.342 231.928 149.737 231.954 150.132Z" fill="black"/>
<path d="M202.944 130.832C202.944 130.832 196.694 151.61 209.859 154.399C223.023 157.188 224.448 147.625 224.448 147.625C224.448 147.625 213.629 131.255 202.944 130.832Z" fill="#263238"/>
<path d="M199.86 137.713C199.835 137.72 199.81 137.72 199.786 137.713C199.767 137.704 199.75 137.691 199.736 137.675C199.722 137.659 199.712 137.64 199.706 137.62C199.699 137.6 199.697 137.579 199.699 137.558C199.702 137.537 199.708 137.516 199.718 137.498C199.915 137.139 200.192 136.831 200.528 136.598C200.864 136.365 201.249 136.213 201.654 136.154C201.696 136.155 201.736 136.172 201.767 136.2C201.797 136.228 201.817 136.267 201.822 136.308C201.824 136.33 201.821 136.351 201.815 136.371C201.808 136.392 201.798 136.41 201.784 136.427C201.77 136.443 201.754 136.456 201.735 136.466C201.716 136.476 201.695 136.482 201.674 136.483C201.324 136.54 200.991 136.677 200.701 136.882C200.411 137.086 200.172 137.355 200.001 137.666C199.983 137.686 199.961 137.7 199.936 137.708C199.912 137.717 199.885 137.718 199.86 137.713Z" fill="#263238"/>
<path d="M201.741 140.293C201.657 141.103 201.474 141.9 201.197 142.666C201.405 142.79 201.643 142.856 201.886 142.856C202.128 142.856 202.366 142.79 202.574 142.666L201.741 140.293Z" fill="#DE5753"/>
<path d="M200.471 139.386C200.612 139.756 200.928 139.978 201.143 139.884C201.358 139.789 201.479 139.42 201.338 139.05C201.197 138.681 200.881 138.459 200.666 138.553C200.451 138.647 200.337 139.017 200.471 139.386Z" fill="#263238"/>
<path d="M200.773 138.533H199.853C199.853 138.533 200.511 139.044 200.773 138.533Z" fill="#263238"/>
<path d="M213.851 142.874C213.827 142.934 213.796 142.991 213.756 143.042C213.696 143.156 213.629 143.264 213.562 143.378C213.168 144.086 212.643 144.713 212.016 145.226C210 146.832 208.246 147.316 206.721 146.852L206.499 146.778C204.234 145.858 202.467 143.149 201.062 139.568C200.439 138.166 200.047 136.673 199.9 135.146C199.9 135.146 199.9 135.092 199.9 135.079C199.9 135.065 199.9 134.958 199.9 134.904C199.847 134.029 200.014 133.155 200.385 132.36C200.756 131.566 201.319 130.876 202.023 130.355C202.626 129.882 203.279 129.478 203.972 129.152C210.685 125.879 217.217 136.537 213.851 142.874Z" fill="#E4897B"/>
<path opacity="0.2" d="M213.562 143.378C213.168 144.086 212.643 144.713 212.016 145.226C210 146.832 208.246 147.316 206.721 146.852C208.204 146.493 209.54 145.683 210.544 144.534C210.932 144.132 211.403 143.821 211.925 143.621C212.446 143.421 213.005 143.338 213.562 143.378Z" fill="black"/>
<path d="M199.866 135.106C199.866 135.106 201.741 140.038 207.218 139.951C207.218 139.951 211.492 143.983 214.375 142.699C218.306 140.959 219.112 133.809 215.107 128.816C209.906 122.338 198.563 127.008 199.866 135.106Z" fill="#263238"/>
<path d="M204.288 139.668C203.939 138.923 203.945 137.397 205.175 137.021C206.405 136.644 208.535 139.259 205.887 141.301C205.511 141.597 205.014 141.214 204.288 139.668Z" fill="#E4897B"/>
<path d="M205.76 126.128C205.76 126.128 200.679 127.129 199.04 130.16C197.118 133.681 197.024 136.409 202.131 138.224C202.131 138.224 208.589 132.176 211.371 131.504C212.992 131.101 214.644 130.836 216.31 130.711C214.455 125.341 207.809 123.903 205.76 126.128Z" fill="#263238"/>
<path d="M210.685 145.354C210.685 145.354 214.18 147.773 215.087 151.764L225.98 145.407C225.98 145.407 217.452 143.465 215.988 140.166C215.988 140.166 210.289 140.871 210.685 145.354Z" fill="#E4897B"/>
<path d="M221.505 171.528C221.505 171.528 207.393 157.665 205.874 153.31C205.874 153.31 211.808 144.07 223.668 143.68C235.529 143.291 243.6 165.856 243.6 165.856L221.505 171.528Z" fill="#FC2947"/>
<path opacity="0.6" d="M243.6 165.863L221.511 171.535C221.511 171.535 218.434 168.504 214.993 164.815C213.931 163.666 212.822 162.456 211.754 161.26C208.952 158.081 206.479 154.977 205.881 153.29C205.881 153.29 211.808 144.05 223.668 143.66C235.529 143.27 243.6 165.863 243.6 165.863Z" fill="white"/>
<path d="M208.32 137.585C208.32 137.585 210.383 144.44 217.627 146.711C224.871 148.982 223.05 156.381 230.073 155.508C233.809 155.044 237.008 147.444 225.55 140.724C218.87 136.819 221.464 123.984 207.285 125.187C207.272 125.194 210.215 133.99 208.32 137.585Z" fill="#263238"/>
<path d="M215.356 276.011L211.996 275.244C212.5 258.444 214.926 238.13 217.069 222.869C217.405 220.476 217.741 218.219 218.051 216.108C218.205 215.107 218.346 214.146 218.487 213.219C219.159 208.643 219.778 205.027 220.147 202.789C220.423 201.156 220.577 200.263 220.577 200.263L232.673 203.213L231.806 206.264L228.95 216.344L228.628 217.493L226.733 224.139L223.521 235.449C223.722 252.524 215.356 276.011 215.356 276.011Z" fill="#E4897B"/>
<path d="M244.117 273.202L240.677 273.027C238.056 254.964 236.954 232.371 236.477 216.666C236.41 214.234 236.349 211.962 236.302 209.892C236.302 209.792 236.302 209.691 236.302 209.59C236.215 205.498 236.174 202.245 236.154 200.182C236.154 198.569 236.154 197.689 236.154 197.689L248.566 198.502L248.035 203.676L247.256 211.27L247.101 212.762L246.564 217.936L245.112 231.84C248.284 248.64 244.117 273.202 244.117 273.202Z" fill="#E4897B"/>
<path d="M245.408 272.53C245.408 272.1 240.099 272.436 240.099 272.436C240.099 272.436 236.84 275.748 233.675 276.468C230.509 277.187 232.284 279.115 235.818 279.115H244.554C247.081 279.142 245.508 276.998 245.408 272.53Z" fill="#263238"/>
<path d="M236.846 273.665C236.77 273.596 236.716 273.504 236.693 273.403C236.671 273.302 236.679 273.197 236.719 273.101C236.74 273.026 236.775 272.955 236.824 272.894C236.872 272.833 236.933 272.782 237.001 272.745C237.377 272.591 237.789 272.544 238.19 272.61C237.76 272.382 237.384 272.106 237.364 271.824C237.364 271.643 237.471 271.495 237.713 271.38C237.819 271.333 237.933 271.308 238.049 271.308C238.165 271.308 238.28 271.333 238.385 271.38C239.104 271.683 239.548 272.919 239.568 272.966C239.582 273.001 239.582 273.039 239.568 273.074V273.108C239.555 273.122 239.539 273.134 239.521 273.141C238.836 273.492 238.094 273.72 237.33 273.813C237.156 273.825 236.984 273.772 236.846 273.665ZM237.142 272.993C237.106 273.012 237.073 273.037 237.047 273.069C237.02 273.1 237 273.136 236.988 273.175C236.934 273.383 236.988 273.437 236.988 273.457C237.243 273.665 238.211 273.37 239.004 273.04C238.4 272.85 237.756 272.831 237.142 272.987V272.993ZM237.814 271.649C237.74 271.649 237.619 271.75 237.626 271.824C237.626 272.059 238.399 272.496 239.178 272.772C239.005 272.306 238.687 271.908 238.271 271.636C238.204 271.604 238.13 271.588 238.056 271.589C237.98 271.589 237.904 271.605 237.834 271.636L237.814 271.649Z" fill="#263238"/>
<path d="M217.056 272.53C217.056 272.1 211.754 272.436 211.754 272.436C211.754 272.436 208.495 275.748 205.33 276.468C202.165 277.187 203.932 279.115 207.467 279.115H216.203C218.736 279.142 217.17 276.998 217.056 272.53Z" fill="#263238"/>
<path d="M208.501 273.665C208.426 273.595 208.374 273.503 208.351 273.403C208.329 273.302 208.336 273.197 208.374 273.101C208.395 273.026 208.43 272.955 208.479 272.894C208.527 272.833 208.588 272.782 208.656 272.745C209.033 272.591 209.444 272.545 209.845 272.61C209.415 272.382 209.039 272.106 209.026 271.824C209.026 271.645 209.14 271.497 209.368 271.38C209.474 271.333 209.588 271.308 209.704 271.308C209.82 271.308 209.935 271.333 210.04 271.38C210.759 271.683 211.203 272.919 211.223 272.966C211.231 272.983 211.236 273.002 211.236 273.02C211.236 273.039 211.231 273.057 211.223 273.074C211.223 273.074 211.223 273.074 211.223 273.108L211.176 273.141C210.488 273.491 209.744 273.718 208.979 273.813C208.807 273.822 208.638 273.769 208.501 273.665ZM208.797 272.993C208.761 273.012 208.73 273.038 208.704 273.069C208.679 273.1 208.66 273.136 208.649 273.175C208.595 273.383 208.649 273.437 208.683 273.457C208.931 273.665 209.899 273.37 210.699 273.04C210.083 272.842 209.423 272.824 208.797 272.987V272.993ZM209.469 271.649C209.395 271.649 209.274 271.75 209.281 271.824C209.281 272.059 210.054 272.496 210.84 272.772C210.664 272.306 210.344 271.908 209.926 271.636C209.859 271.604 209.785 271.588 209.711 271.589C209.635 271.589 209.559 271.605 209.489 271.636L209.469 271.649Z" fill="#263238"/>
<path d="M218.642 205.316L221.505 185.156V171.515C229.051 165.843 243.6 165.843 243.6 165.843C243.6 165.843 254.775 181.346 249.346 206.835L235.314 208.851L234.421 204.093L232.66 208.851L218.642 205.316Z" fill="#263238"/>
<path opacity="0.2" d="M218.642 205.316L221.505 185.156V171.515C229.051 165.843 243.6 165.843 243.6 165.843C243.6 165.843 254.775 181.346 249.346 206.835L235.314 208.851L234.421 204.093L232.66 208.851L218.642 205.316Z" fill="white"/>
<path opacity="0.2" d="M234.421 204.167L237.109 195.774C237.109 195.774 239.944 194.914 243.587 189.282C243.6 189.282 242.968 198.865 234.421 204.167Z" fill="black"/>
<path opacity="0.2" d="M228.44 175.392L234.736 174.794C235.741 177.148 236.09 179.73 235.744 182.267L231.712 184.692L228.789 182.616C228.789 182.616 228.695 177.287 228.44 175.392Z" fill="black"/>
<path opacity="0.2" d="M243.6 173.853C244.445 175.93 245.069 178.09 245.461 180.298L247.692 181.245L248.895 179.747C248.895 179.747 248.082 175.358 246.705 173.208L243.6 173.853Z" fill="black"/>
<path d="M218.38 204.167L233.271 208.535L232.337 210.538L218.192 206.183L218.38 204.167Z" fill="#263238"/>
<path d="M234.736 208.246L234.985 210.087L249.588 208.246L249.809 205.928L234.736 208.246Z" fill="#263238"/>
<path d="M237.801 168.672C240.189 168.269 242.603 168.033 245.025 167.966L244.124 166.481C241.769 166.419 239.413 166.558 237.082 166.898L237.801 168.672Z" fill="#263238"/>
<path d="M224.408 170.5C222.479 171.333 221.37 171.958 221.37 171.958V173.793C222.454 173.246 223.541 172.747 224.629 172.294L224.408 170.5Z" fill="#263238"/>
<path d="M225.335 172.032C229.07 170.568 232.946 169.489 236.9 168.813L236.228 167.026C232.395 167.665 228.647 168.743 225.06 170.238L225.335 172.032Z" fill="#263238"/>
<path d="M184.961 177.28L181.144 175.748L180.472 179.35C180.472 179.35 183.913 181.433 185.351 178.954L184.961 177.28Z" fill="#E4897B"/>
<path d="M179.249 175.97L178.026 178.752L180.499 179.35L181.144 175.748L179.249 175.97Z" fill="#E4897B"/>
<path d="M243.539 138.566L243.089 134.481L239.608 135.61C239.608 135.61 239.393 139.642 242.263 139.722L243.539 138.566Z" fill="#E4897B"/>
<path d="M241.994 132.915L238.963 133.157L239.608 135.61L243.089 134.481L241.994 132.915Z" fill="#E4897B"/>
<path opacity="0.2" d="M214.993 164.835C213.931 163.686 212.822 162.476 211.754 161.28C211.344 158.78 211.082 156.576 211.082 156.576C212.362 157.526 213.388 158.776 214.07 160.216C214.753 161.657 215.069 163.243 214.993 164.835Z" fill="black"/>
<path d="M211.472 155.42C209.933 161.626 207.609 167.61 204.557 173.228C201.533 178.974 190.035 179.666 184.256 179.814L183.987 176.884C187.468 176.064 198.287 173.907 199.765 170.769C202.179 165.331 204.165 159.714 205.706 153.969L211.472 155.407V155.42Z" fill="#DC897C"/>
<path d="M208.179 150.353C204.893 152.504 203.132 158.095 202.574 160.83L209.402 165.856L212.849 162.496C214.247 154.782 209.429 149.54 208.179 150.353Z" fill="#FC2947"/>
<path opacity="0.6" d="M208.179 150.353C204.893 152.504 203.132 158.095 202.574 160.83L209.402 165.856L212.849 162.496C214.247 154.782 209.429 149.54 208.179 150.353Z" fill="white"/>
<path d="M241.51 139.877L236.631 140.401C236.563 140.403 236.494 140.391 236.43 140.365C236.367 140.339 236.309 140.3 236.261 140.251C236.213 140.202 236.176 140.143 236.152 140.079C236.127 140.014 236.117 139.945 236.121 139.877L235.825 129.548C235.816 129.402 235.859 129.258 235.948 129.142C236.037 129.025 236.165 128.945 236.309 128.916L241.181 128.399C241.25 128.396 241.319 128.408 241.383 128.433C241.447 128.459 241.505 128.497 241.554 128.547C241.602 128.596 241.639 128.655 241.663 128.72C241.687 128.785 241.696 128.854 241.692 128.923L241.987 139.252C241.997 139.396 241.954 139.539 241.866 139.654C241.778 139.769 241.652 139.848 241.51 139.877Z" fill="#263238"/>
<path opacity="0.6" d="M241.51 139.877L236.631 140.401C236.563 140.403 236.494 140.391 236.43 140.365C236.367 140.339 236.309 140.3 236.261 140.251C236.213 140.202 236.176 140.143 236.152 140.079C236.127 140.014 236.117 139.945 236.121 139.877L235.825 129.548C235.816 129.402 235.859 129.258 235.948 129.142C236.037 129.025 236.165 128.945 236.309 128.916L241.181 128.399C241.25 128.396 241.319 128.408 241.383 128.433C241.447 128.459 241.505 128.497 241.554 128.547C241.602 128.596 241.639 128.655 241.663 128.72C241.687 128.785 241.696 128.854 241.692 128.923L241.987 139.252C241.997 139.396 241.954 139.539 241.866 139.654C241.778 139.769 241.652 139.848 241.51 139.877Z" fill="white"/>
<path d="M241.08 139.924L236.208 140.441C236.139 140.445 236.07 140.434 236.005 140.41C235.941 140.385 235.882 140.347 235.833 140.298C235.785 140.25 235.747 140.191 235.722 140.126C235.697 140.062 235.687 139.993 235.691 139.924L235.402 129.588C235.389 129.444 235.431 129.299 235.519 129.184C235.608 129.068 235.736 128.99 235.879 128.964L240.751 128.446C240.819 128.443 240.887 128.455 240.951 128.48C241.015 128.505 241.073 128.543 241.121 128.592C241.169 128.64 241.206 128.699 241.23 128.763C241.255 128.827 241.265 128.895 241.261 128.964L241.557 139.299C241.569 139.444 241.527 139.588 241.439 139.704C241.351 139.819 241.223 139.898 241.08 139.924Z" fill="#263238"/>
<path opacity="0.7" d="M241.08 139.924L236.208 140.441C236.139 140.445 236.07 140.434 236.005 140.41C235.941 140.385 235.882 140.347 235.833 140.298C235.785 140.25 235.747 140.191 235.722 140.126C235.697 140.062 235.687 139.993 235.691 139.924L235.402 129.588C235.389 129.444 235.431 129.299 235.519 129.184C235.608 129.068 235.736 128.99 235.879 128.964L240.751 128.446C240.819 128.443 240.887 128.455 240.951 128.48C241.015 128.505 241.073 128.543 241.121 128.592C241.169 128.64 241.206 128.699 241.23 128.763C241.255 128.827 241.265 128.895 241.261 128.964L241.557 139.299C241.569 139.444 241.527 139.588 241.439 139.704C241.351 139.819 241.223 139.898 241.08 139.924Z" fill="white"/>
<path d="M240.757 128.648L239.481 128.782L239.319 129.179L237.344 129.387L237.162 129.031L235.885 129.165C235.793 129.184 235.711 129.237 235.654 129.312C235.597 129.387 235.569 129.481 235.576 129.575L235.865 139.904C235.862 139.949 235.869 139.994 235.885 140.036C235.901 140.078 235.925 140.116 235.957 140.148C235.989 140.18 236.027 140.204 236.069 140.22C236.111 140.236 236.156 140.243 236.201 140.24L241.073 139.722C241.165 139.704 241.247 139.654 241.304 139.579C241.361 139.505 241.389 139.412 241.382 139.319L241.093 128.984C241.095 128.939 241.088 128.895 241.072 128.853C241.056 128.811 241.031 128.773 240.999 128.742C240.968 128.71 240.93 128.686 240.888 128.669C240.847 128.653 240.802 128.646 240.757 128.648Z" fill="#FC2947"/>
<path opacity="0.8" d="M240.106 132.384L236.524 132.767C236.48 132.769 236.436 132.762 236.396 132.746C236.355 132.73 236.318 132.706 236.287 132.675C236.256 132.644 236.232 132.607 236.216 132.566C236.2 132.525 236.193 132.482 236.195 132.438V131.443C236.186 131.351 236.212 131.258 236.268 131.184C236.324 131.109 236.406 131.058 236.497 131.04L240.085 130.657C240.129 130.656 240.173 130.664 240.213 130.681C240.254 130.697 240.29 130.722 240.321 130.754C240.351 130.786 240.374 130.823 240.389 130.864C240.404 130.905 240.411 130.949 240.408 130.993L240.442 131.988C240.447 132.084 240.416 132.179 240.353 132.253C240.29 132.327 240.202 132.374 240.106 132.384Z" fill="white"/>
</svg>
