<svg width="41" height="42" viewBox="0 0 41 42" fill="none" xmlns="http://www.w3.org/2000/svg">
<g id="vuesax/outline/instagram">
<g id="instagram">
<path id="Vector" d="M25.5954 39.1797H15.4979C6.35968 39.1797 2.45532 35.2753 2.45532 26.1371V16.0396C2.45532 6.90143 6.35968 2.99707 15.4979 2.99707H25.5954C34.7336 2.99707 38.6379 6.90143 38.6379 16.0396V26.1371C38.6379 35.2753 34.7336 39.1797 25.5954 39.1797ZM15.4979 5.52144C7.73967 5.52144 4.97969 8.28141 4.97969 16.0396V26.1371C4.97969 33.8953 7.73967 36.6553 15.4979 36.6553H25.5954C33.3536 36.6553 36.1136 33.8953 36.1136 26.1371V16.0396C36.1136 8.28141 33.3536 5.52144 25.5954 5.52144H15.4979Z" fill="#636C78"/>
<path id="Vector_2" d="M20.5469 28.2407C16.6089 28.2407 13.3945 25.0263 13.3945 21.0883C13.3945 17.1503 16.6089 13.9359 20.5469 13.9359C24.4849 13.9359 27.6993 17.1503 27.6993 21.0883C27.6993 25.0263 24.4849 28.2407 20.5469 28.2407ZM20.5469 16.4603C17.9889 16.4603 15.9189 18.5303 15.9189 21.0883C15.9189 23.6463 17.9889 25.7163 20.5469 25.7163C23.1049 25.7163 25.1749 23.6463 25.1749 21.0883C25.1749 18.5303 23.1049 16.4603 20.5469 16.4603Z" fill="#636C78"/>
<path id="Vector_3" d="M28.9615 13.5153C28.7427 13.5153 28.5239 13.4648 28.322 13.3806C28.12 13.2965 27.9349 13.1787 27.7666 13.0272C27.6151 12.8589 27.4805 12.6738 27.3964 12.4718C27.3122 12.2699 27.2786 12.0511 27.2786 11.8323C27.2786 11.6136 27.3122 11.3948 27.3964 11.1928C27.4973 10.9741 27.6151 10.8058 27.7666 10.6375C27.8508 10.5702 27.9349 10.486 28.019 10.4355C28.12 10.3682 28.221 10.3177 28.322 10.2841C28.4229 10.2336 28.5239 10.1999 28.6417 10.1831C29.1803 10.0653 29.7524 10.2504 30.1563 10.6375C30.3078 10.8058 30.4256 10.9741 30.5098 11.1928C30.5939 11.3948 30.6444 11.6136 30.6444 11.8323C30.6444 12.0511 30.5939 12.2699 30.5098 12.4718C30.4256 12.6738 30.3078 12.8589 30.1563 13.0272C29.9881 13.1787 29.8029 13.2965 29.601 13.3806C29.399 13.4648 29.1803 13.5153 28.9615 13.5153Z" fill="#636C78"/>
</g>
</g>
</svg>
