<svg width="34" height="34" viewBox="0 0 34 34" fill="none" xmlns="http://www.w3.org/2000/svg">
<g id="vuesax/outline/location">
<g id="location">
<path id="Vector" d="M16.7616 20.1363C13.8439 20.1363 11.4604 17.7665 11.4604 14.8351C11.4604 11.9037 13.8439 9.54767 16.7616 9.54767C19.6793 9.54767 22.0628 11.9174 22.0628 14.8488C22.0628 17.7802 19.6793 20.1363 16.7616 20.1363ZM16.7616 11.6024C14.9809 11.6024 13.5152 13.0544 13.5152 14.8488C13.5152 16.6433 14.9672 18.0953 16.7616 18.0953C18.5561 18.0953 20.0081 16.6433 20.0081 14.8488C20.0081 13.0544 18.5424 11.6024 16.7616 11.6024Z" fill="#636C78"/>
<path id="Vector_2" d="M16.7612 31.903C14.7339 31.903 12.6929 31.1359 11.1039 29.6154C7.06296 25.7252 2.59737 19.5199 4.28224 12.1366C5.80273 5.43824 11.6518 2.43835 16.7612 2.43835C16.7612 2.43835 16.7612 2.43835 16.7749 2.43835C21.8843 2.43835 27.7334 5.43824 29.2539 12.1503C30.9251 19.5336 26.4595 25.7252 22.4186 29.6154C20.8296 31.1359 18.7885 31.903 16.7612 31.903ZM16.7612 4.49307C12.7751 4.49307 7.65198 6.61628 6.29586 12.5887C4.81647 19.0405 8.87111 24.6019 12.5422 28.1223C14.912 30.4099 18.6242 30.4099 20.9939 28.1223C24.6513 24.6019 28.706 19.0405 27.254 12.5887C25.8842 6.61628 20.7474 4.49307 16.7612 4.49307Z" fill="#636C78"/>
</g>
</g>
</svg>
