<svg width="26" height="26" viewBox="0 0 26 26" fill="none" xmlns="http://www.w3.org/2000/svg">
<g id="COCO/Line/Lock">
<path id="Vector" d="M5.04077 18.4452L4.34606 18.7278L4.34606 18.7278L5.04077 18.4452ZM4.66485 12.3469L5.38882 12.5427L4.66485 12.3469ZM21.335 12.3469L20.611 12.5427L21.335 12.3469ZM20.959 18.4452L21.6538 18.7278V18.7278L20.959 18.4452ZM15.2061 22.5786L15.0902 21.8376H15.0902L15.2061 22.5786ZM10.7937 22.5786L10.6778 23.3196L10.7937 22.5786ZM9.37746 8.23565L9.22799 7.50069H9.22799L9.37746 8.23565ZM16.6224 8.23565L16.7719 7.50069L16.6224 8.23565ZM9.98261 22.4517L10.0985 21.7108L9.98261 22.4517ZM5.1414 18.6925L5.83611 18.4099H5.83611L5.1414 18.6925ZM16.0172 22.4517L16.1331 23.1927L16.0172 22.4517ZM20.8584 18.6925L20.1637 18.4099L20.1637 18.4099L20.8584 18.6925ZM16.9215 8.29648L16.772 9.03143H16.772L16.9215 8.29648ZM9.07835 8.29648L9.22782 9.03143L9.07835 8.29648ZM7.53089 8.04981C7.53089 8.46402 7.86667 8.79981 8.28089 8.79981C8.6951 8.79981 9.03089 8.46402 9.03089 8.04981H7.53089ZM8.28089 7.72169H7.53089H8.28089ZM17.7189 7.72169H16.9689H17.7189ZM16.9689 8.04981C16.9689 8.46403 17.3047 8.79981 17.7189 8.79981C18.1331 8.79981 18.4689 8.46403 18.4689 8.04981H16.9689ZM11.7559 3.40303L11.5739 2.67545L11.5739 2.67545L11.7559 3.40303ZM14.2438 3.40303L14.4258 2.67545L14.2438 3.40303ZM9.22782 9.03143L9.52693 8.9706L9.22799 7.50069L8.92888 7.56152L9.22782 9.03143ZM16.4729 8.9706L16.772 9.03143L17.071 7.56152L16.7719 7.50069L16.4729 8.9706ZM15.9013 21.7108L15.0902 21.8376L15.322 23.3196L16.1331 23.1927L15.9013 21.7108ZM10.9096 21.8376L10.0985 21.7108L9.86671 23.1927L10.6778 23.3196L10.9096 21.8376ZM20.2643 18.1625L20.1637 18.4099L21.5531 18.9752L21.6538 18.7278L20.2643 18.1625ZM5.83611 18.4099L5.73548 18.1625L4.34606 18.7278L4.44669 18.9751L5.83611 18.4099ZM5.73548 18.1625C5.00625 16.3701 4.8853 14.4039 5.38882 12.5427L3.94088 12.151C3.35137 14.33 3.49354 16.6323 4.34606 18.7278L5.73548 18.1625ZM20.611 12.5427C21.1145 14.4039 20.9936 16.3701 20.2643 18.1625L21.6538 18.7278C22.5063 16.6323 22.6485 14.33 22.059 12.151L20.611 12.5427ZM15.0902 21.8376C13.7058 22.0541 12.294 22.0541 10.9096 21.8376L10.6778 23.3196C12.2158 23.5601 13.784 23.5601 15.322 23.3196L15.0902 21.8376ZM9.52693 8.9706C11.8168 8.5049 14.183 8.5049 16.4729 8.9706L16.7719 7.50069C14.2847 6.99487 11.7151 6.99487 9.22799 7.50069L9.52693 8.9706ZM10.0985 21.7108C8.15548 21.4069 6.54127 20.1432 5.83611 18.4099L4.44669 18.9751C5.35836 21.216 7.42552 22.8109 9.86671 23.1927L10.0985 21.7108ZM16.1331 23.1927C18.5743 22.8109 20.6414 21.216 21.5531 18.9752L20.1637 18.4099C19.4585 20.1432 17.8443 21.4069 15.9013 21.7108L16.1331 23.1927ZM16.772 9.03143C18.6583 9.41504 20.1354 10.7846 20.611 12.5427L22.059 12.151C21.4284 9.82015 19.4876 8.053 17.071 7.56152L16.772 9.03143ZM8.92888 7.56152C6.51228 8.053 4.57149 9.82015 3.94088 12.151L5.38882 12.5427C5.86448 10.7846 7.34159 9.41504 9.22782 9.03143L8.92888 7.56152ZM9.03089 8.04981V7.72169H7.53089V8.04981H9.03089ZM16.9689 7.72169V8.04981H18.4689V7.72169H16.9689ZM11.9379 4.13061C12.6341 3.95646 13.3656 3.95646 14.0618 4.13062L14.4258 2.67545C13.4906 2.44152 12.5091 2.44152 11.5739 2.67545L11.9379 4.13061ZM18.4689 7.72169C18.4689 5.32753 16.788 3.26634 14.4258 2.67545L14.0618 4.13062C15.793 4.56365 16.9689 6.05279 16.9689 7.72169H18.4689ZM9.03089 7.72169C9.03089 6.05278 10.2068 4.56365 11.9379 4.13061L11.5739 2.67545C9.21176 3.26634 7.53089 5.32753 7.53089 7.72169H9.03089Z" fill="#636C78"/>
<path id="Vector_2" d="M13 14.625L13 16.7917" stroke="#636C78" stroke-width="1.5" stroke-linecap="round"/>
</g>
</svg>
