<?xml version="1.0" encoding="UTF-8"?>
<svg id="Layer_1" data-name="Layer 1" xmlns="http://www.w3.org/2000/svg" viewBox="0 0 40.82 23.8">
  <defs>
    <style>
      .cls-1 {
        fill: #fc2947;
      }
    </style>
  </defs>
  <path class="cls-1" d="m0,23.8h25.39s-3.24-6.06-3.24-6.06l-.83-1.56-.82-1.54-3.25-6.08-.82-1.54-.29-.54L12.69.04l-3.44,6.43.29.54.82,1.54,2.33,4.35.92,1.73.82,1.54.83,1.56h-3.86c-.43,0-.78-.35-.78-.78,0-.13.03-.26.09-.37.13-.24.39-.41.68-.41h1.25s-.82-1.54-.82-1.54l-.04-.07-3.21-6.01-.22-.42-.22.42-3.25,6.08-.82,1.54-.83,1.56-3.24,6.06Z"/>
  <path class="cls-1" d="m40.82,7.02c-.16-3.9-3.37-7.02-7.31-7.02H14.42l2.59,4.84.89,1.66.28.52h15.33c.43,0,.77.34.77.77s-.34.77-.77.77h-14.51l3.25,6.08.82,1.54.83,1.56,3.24,6.06h6.88l-3.24-6.06-.83-1.56-.82-1.54h4.38c3.62,0,6.63-2.63,7.22-6.08.07-.4.1-.82.1-1.24,0-.1,0-.2,0-.3Z"/>
</svg>