<svg width="18" height="18" viewBox="0 0 18 18" fill="none" xmlns="http://www.w3.org/2000/svg">
<g id="vuesax/outline/logout">
<g id="logout">
<path id="Vector" d="M11.43 16.7025H11.3325C8.00251 16.7025 6.39751 15.39 6.12001 12.45C6.09001 12.1425 6.31501 11.865 6.63001 11.835C6.93001 11.805 7.21501 12.0375 7.24501 12.345C7.46251 14.7 8.57251 15.5775 11.34 15.5775H11.4375C14.49 15.5775 15.57 14.4975 15.57 11.445V6.555C15.57 3.5025 14.49 2.4225 11.4375 2.4225H11.34C8.55751 2.4225 7.44751 3.315 7.24501 5.715C7.20751 6.0225 6.94501 6.255 6.63001 6.225C6.31501 6.2025 6.09001 5.925 6.11251 5.6175C6.36751 2.6325 7.98001 1.2975 11.3325 1.2975H11.43C15.1125 1.2975 16.6875 2.8725 16.6875 6.555V11.445C16.6875 15.1275 15.1125 16.7025 11.43 16.7025Z" fill="#636C78"/>
<path id="Vector_2" d="M11.25 9.5625H2.715C2.4075 9.5625 2.1525 9.3075 2.1525 9C2.1525 8.6925 2.4075 8.4375 2.715 8.4375H11.25C11.5575 8.4375 11.8125 8.6925 11.8125 9C11.8125 9.3075 11.5575 9.5625 11.25 9.5625Z" fill="#636C78"/>
<path id="Vector_3" d="M4.38749 12.075C4.24499 12.075 4.10249 12.0225 3.98999 11.91L1.47749 9.3975C1.25999 9.18 1.25999 8.82 1.47749 8.6025L3.98999 6.09C4.20749 5.8725 4.56749 5.8725 4.78499 6.09C5.00249 6.3075 5.00249 6.6675 4.78499 6.885L2.66999 9L4.78499 11.115C5.00249 11.3325 5.00249 11.6925 4.78499 11.91C4.67999 12.0225 4.52999 12.075 4.38749 12.075Z" fill="#636C78"/>
</g>
</g>
</svg>
