<svg width="41" height="24" viewBox="0 0 41 24" fill="none" xmlns="http://www.w3.org/2000/svg">
<g id="arefeh panahi logo 1" clip-path="url(#clip0_486_504)">
<path id="Vector" d="M-9.76585e-06 23.8H25.39L22.15 17.74L21.32 16.18L20.5 14.64L17.25 8.56001L16.43 7.02001L16.14 6.48001L12.69 0.0400085L9.24999 6.47001L9.53999 7.01001L10.36 8.55001L12.69 12.9L13.61 14.63L14.43 16.17L15.26 17.73H11.4C10.97 17.73 10.62 17.38 10.62 16.95C10.62 16.82 10.65 16.69 10.71 16.58C10.84 16.34 11.1 16.17 11.39 16.17H12.64L11.82 14.63L11.78 14.56L8.56999 8.55001L8.34999 8.13001L8.12999 8.55001L4.87999 14.63L4.05999 16.17L3.22999 17.73L-0.0100098 23.79L-9.76585e-06 23.8Z" fill="white"/>
<path id="Vector_2" d="M40.8199 7.02C40.6599 3.12 37.4499 0 33.5099 0H14.4199L17.0099 4.84L17.8999 6.5L18.1799 7.02H33.5099C33.9399 7.02 34.2799 7.36 34.2799 7.79C34.2799 8.22 33.9399 8.56 33.5099 8.56H18.9999L22.2499 14.64L23.0699 16.18L23.8999 17.74L27.1399 23.8H34.0199L30.7799 17.74L29.9499 16.18L29.1299 14.64H33.5099C37.1299 14.64 40.1399 12.01 40.7299 8.56C40.7999 8.16 40.8299 7.74 40.8299 7.32C40.8299 7.22 40.8299 7.12 40.8299 7.02H40.8199Z" fill="white"/>
</g>
<defs>
<clipPath id="clip0_486_504">
<rect width="40.82" height="23.8" fill="white"/>
</clipPath>
</defs>
</svg>
