<svg width="22" height="22" viewBox="0 0 22 22" fill="none" xmlns="http://www.w3.org/2000/svg">
<path d="M10.5417 19.9375C5.36254 19.9375 1.14587 15.7208 1.14587 10.5417C1.14587 5.36251 5.36254 1.14584 10.5417 1.14584C15.7209 1.14584 19.9375 5.36251 19.9375 10.5417C19.9375 15.7208 15.7209 19.9375 10.5417 19.9375ZM10.5417 2.52084C6.11421 2.52084 2.52087 6.12334 2.52087 10.5417C2.52087 14.96 6.11421 18.5625 10.5417 18.5625C14.9692 18.5625 18.5625 14.96 18.5625 10.5417C18.5625 6.12334 14.9692 2.52084 10.5417 2.52084Z" fill="#636C78"/>
<path d="M20.1666 20.8542C19.9924 20.8542 19.8183 20.79 19.6808 20.6525L17.8474 18.8192C17.5816 18.5533 17.5816 18.1133 17.8474 17.8475C18.1133 17.5817 18.5533 17.5817 18.8191 17.8475L20.6524 19.6808C20.9183 19.9467 20.9183 20.3867 20.6524 20.6525C20.5149 20.79 20.3408 20.8542 20.1666 20.8542Z" fill="#636C78"/>
</svg>
