<svg width="25" height="25" viewBox="0 0 25 25" fill="none" xmlns="http://www.w3.org/2000/svg">
<g id="Group 3">
<path id="Vector" d="M6.68585 9.88371H12.7905C13.2672 9.88371 13.6626 9.48836 13.6626 9.01162C13.6626 8.53488 13.2672 8.13953 12.7905 8.13953H6.68585C6.20911 8.13953 5.81376 8.53488 5.81376 9.01162C5.81376 9.48836 6.19748 9.88371 6.68585 9.88371Z" fill="#636C78"/>
<path id="Vector_2" d="M6.68585 18.0233H12.7905C13.2672 18.0233 13.6626 17.628 13.6626 17.1512C13.6626 16.6745 13.2672 16.2791 12.7905 16.2791H6.68585C6.20911 16.2791 5.81376 16.6745 5.81376 17.1512C5.81376 17.628 6.19748 18.0233 6.68585 18.0233Z" fill="#636C78"/>
<path id="Vector_3" d="M9.01163 25H15.9884C22.3023 25 25 22.3023 25 15.9884V9.01163C25 2.69767 22.3023 0 15.9884 0H9.01163C2.69768 0 8.9407e-07 2.69767 8.9407e-07 9.01163V15.9884C8.9407e-07 22.3023 2.69768 25 9.01163 25ZM15.9884 1.74419C21.3488 1.74419 23.2558 3.65116 23.2558 9.01163V15.9884C23.2558 21.3488 21.3488 23.2558 15.9884 23.2558H9.01163C3.65116 23.2558 1.74419 21.3488 1.74419 15.9884V9.01163C1.74419 3.65116 3.65116 1.74419 9.01163 1.74419H15.9884Z" fill="#636C78"/>
<g id="Group 1">
<path id="Vector_4" d="M16.8575 18.311C16.6366 18.311 16.4156 18.2297 16.2412 18.0552L15.3691 17.1831C15.0319 16.8459 15.0319 16.2878 15.3691 15.9506C15.7063 15.6134 16.2645 15.6134 16.6017 15.9506L16.8575 16.2064L18.8575 14.2064C19.1947 13.8692 19.7528 13.8692 20.09 14.2064C20.4273 14.5436 20.4273 15.1017 20.09 15.439L17.4738 18.0552C17.311 18.218 17.09 18.311 16.8575 18.311Z" fill="#636C78"/>
<path id="Vector_5" d="M16.8575 10.1715C16.6366 10.1715 16.4156 10.0901 16.2412 9.91571L15.3691 9.04362C15.0319 8.70641 15.0319 8.14827 15.3691 7.81106C15.7063 7.47385 16.2645 7.47385 16.6017 7.81106L16.8575 8.06687L18.8575 6.06687C19.1947 5.72966 19.7528 5.72966 20.09 6.06687C20.4273 6.40408 20.4273 6.96222 20.09 7.29943L17.4738 9.91571C17.311 10.0785 17.09 10.1715 16.8575 10.1715Z" fill="#636C78"/>
</g>
</g>
</svg>
