<svg width="27" height="30" viewBox="0 0 27 30" fill="none" xmlns="http://www.w3.org/2000/svg">
<g id="vuesax/outline/frame">
<g id="frame">
<rect id="Rectangle 3" x="1" y="7.85974" width="4.16667" height="6.25001" rx="1.78571" stroke="#636C78" stroke-width="1.33928"/>
<rect id="Rectangle 4" x="21.833" y="7.85974" width="4.16667" height="6.25001" rx="1.78571" stroke="#636C78" stroke-width="1.33928"/>
<path id="Vector" d="M13.6662 16.839C13.6349 16.839 13.6141 16.839 13.5828 16.839C13.5308 16.8286 13.4578 16.8286 13.3953 16.839C10.3745 16.7452 8.09326 14.3702 8.09326 11.4431C8.09326 8.46395 10.5203 6.03687 13.4995 6.03687C16.4787 6.03687 18.9058 8.46395 18.9058 11.4431C18.8953 14.3702 16.6037 16.7452 13.6974 16.839C13.687 16.839 13.6766 16.839 13.6662 16.839ZM13.4995 7.59937C11.3849 7.59937 9.65576 9.32854 9.65576 11.4431C9.65576 13.5265 11.2808 15.2035 13.3537 15.2765C13.4058 15.266 13.5516 15.266 13.687 15.2765C15.7287 15.1827 17.3328 13.5056 17.3433 11.4431C17.3433 9.32854 15.6141 7.59937 13.4995 7.59937Z" fill="#636C78"/>
<path id="Vector_2" d="M13.6769 28.2243C11.6353 28.2243 9.58317 27.7035 8.03109 26.6618C6.58317 25.7035 5.7915 24.391 5.7915 22.9639C5.7915 21.5368 6.58317 20.2139 8.03109 19.2451C11.1561 17.1722 16.2186 17.1722 19.3228 19.2451C20.7603 20.2035 21.5623 21.516 21.5623 22.943C21.5623 24.3701 20.7707 25.693 19.3228 26.6618C17.7603 27.7035 15.7186 28.2243 13.6769 28.2243ZM8.89567 20.5576C7.89567 21.2243 7.354 22.0785 7.354 22.9743C7.354 23.8597 7.90609 24.7139 8.89567 25.3701C11.4894 27.1097 15.8644 27.1097 18.4582 25.3701C19.4582 24.7035 19.9998 23.8493 19.9998 22.9535C19.9998 22.068 19.4478 21.2139 18.4582 20.5576C15.8644 18.8285 11.4894 18.8285 8.89567 20.5576Z" fill="#636C78"/>
<g id="Subtract">
<mask id="path-5-inside-1_682_916" fill="white">
<path fill-rule="evenodd" clip-rule="evenodd" d="M4.10559 7.85683C5.52733 4.05001 9.19682 1.33928 13.4994 1.33928C17.798 1.33928 21.4647 4.04491 22.8893 7.84609C23.329 7.89854 23.8448 7.97447 24.382 8.08189C22.9739 3.4059 18.6344 0 13.4994 0C8.31336 0 3.9387 3.47406 2.57568 8.22192L3.99645 7.79811L4.10559 7.85683Z"/>
</mask>
<path d="M4.10559 7.85683L3.47105 9.03625L4.82309 9.76366L5.36023 8.3254L4.10559 7.85683ZM22.8893 7.84609L21.6352 8.3161L21.9212 9.07939L22.7306 9.17594L22.8893 7.84609ZM24.382 8.08189L24.1194 9.39518L26.308 9.83277L25.6644 7.6957L24.382 8.08189ZM2.57568 8.22192L1.28839 7.85237L0.613008 10.205L2.95852 9.50532L2.57568 8.22192ZM3.99645 7.79811L4.63099 6.61869L4.14378 6.35656L3.61362 6.51471L3.99645 7.79811ZM13.4994 -5.10881e-08C8.61987 -5.10881e-08 4.46186 3.07492 2.85095 7.38826L5.36023 8.3254C6.5928 5.0251 9.77378 2.67857 13.4994 2.67857V-5.10881e-08ZM24.1434 7.37607C22.5292 3.06915 18.3744 -5.10881e-08 13.4994 -5.10881e-08V2.67857C17.2216 2.67857 20.4001 5.02068 21.6352 8.3161L24.1434 7.37607ZM22.7306 9.17594C23.1431 9.22515 23.6234 9.29599 24.1194 9.39518L24.6446 6.7686C24.0662 6.65295 23.515 6.57194 23.0479 6.51623L22.7306 9.17594ZM25.6644 7.6957C24.0906 2.46962 19.2416 -1.33928 13.4994 -1.33928V1.33928C18.0272 1.33928 21.8571 4.34218 23.0996 8.46808L25.6644 7.6957ZM13.4994 -1.33928C7.7002 -1.33928 2.81182 2.54571 1.28839 7.85237L3.86297 8.59147C5.06557 4.4024 8.92653 1.33928 13.4994 1.33928V-1.33928ZM2.95852 9.50532L4.37929 9.08151L3.61362 6.51471L2.19285 6.93852L2.95852 9.50532ZM3.36191 8.97753L3.47105 9.03625L4.74013 6.6774L4.63099 6.61869L3.36191 8.97753Z" fill="#636C78" mask="url(#path-5-inside-1_682_916)"/>
</g>
</g>
</g>
</svg>
