<svg width="20" height="22" viewBox="0 0 20 22" fill="none" xmlns="http://www.w3.org/2000/svg">
<g id="vuesax/outline/frame">
<g id="frame">
<rect id="Rectangle 3" x="1" y="5.65918" width="2.99999" height="4.5" rx="1.5" stroke="#636C78" stroke-width="1.125"/>
<rect id="Rectangle 4" x="16" y="5.65918" width="2.99999" height="4.5" rx="1.5" stroke="#636C78" stroke-width="1.125"/>
<path id="Vector" d="M10.1197 12.1241C10.0972 12.1241 10.0822 12.1241 10.0597 12.1241C10.0222 12.1166 9.96973 12.1166 9.92473 12.1241C7.74974 12.0566 6.10724 10.3466 6.10724 8.23912C6.10724 6.09412 7.85474 4.34662 9.99973 4.34662C12.1447 4.34662 13.8922 6.09412 13.8922 8.23912C13.8847 10.3466 12.2347 12.0566 10.1422 12.1241C10.1347 12.1241 10.1272 12.1241 10.1197 12.1241ZM9.99973 5.47162C8.47723 5.47162 7.23224 6.71662 7.23224 8.23912C7.23224 9.73912 8.40223 10.9466 9.89473 10.9991C9.93223 10.9916 10.0372 10.9916 10.1347 10.9991C11.6047 10.9316 12.7597 9.72412 12.7672 8.23912C12.7672 6.71662 11.5222 5.47162 9.99973 5.47162Z" fill="#636C78"/>
<path id="Vector_2" d="M10.1272 20.3216C8.6572 20.3216 7.1797 19.9466 6.0622 19.1966C5.01971 18.5066 4.44971 17.5616 4.44971 16.5341C4.44971 15.5066 5.01971 14.5541 6.0622 13.8566C8.3122 12.3641 11.9572 12.3641 14.1922 13.8566C15.2272 14.5466 15.8047 15.4916 15.8047 16.5191C15.8047 17.5466 15.2347 18.4991 14.1922 19.1966C13.0672 19.9466 11.5972 20.3216 10.1272 20.3216ZM6.6847 14.8016C5.9647 15.2816 5.57471 15.8966 5.57471 16.5416C5.57471 17.1791 5.9722 17.7941 6.6847 18.2666C8.5522 19.5191 11.7022 19.5191 13.5697 18.2666C14.2897 17.7866 14.6797 17.1716 14.6797 16.5266C14.6797 15.8891 14.2822 15.2741 13.5697 14.8016C11.7022 13.5566 8.5522 13.5566 6.6847 14.8016Z" fill="#636C78"/>
<g id="Subtract">
<mask id="path-5-inside-1_451_438" fill="white">
<path fill-rule="evenodd" clip-rule="evenodd" d="M3.37916 5.73413C4.37435 3.04326 6.96311 1.12506 9.99989 1.12506C12.997 1.12506 15.5577 2.9935 16.5808 5.62912C16.9321 5.66665 17.3727 5.72673 17.8354 5.81925C16.8216 2.45243 13.6971 6.10352e-05 9.99989 6.10352e-05C6.26588 6.10352e-05 3.1161 2.50143 2.13477 5.91995L3.1575 5.61487L3.37916 5.73413Z"/>
</mask>
<path d="M3.37916 5.73413L2.84614 6.72484L3.98551 7.33783L4.43431 6.12436L3.37916 5.73413ZM16.5808 5.62912L15.5321 6.03622L15.78 6.67498L16.4613 6.74776L16.5808 5.62912ZM17.8354 5.81925L17.6148 6.92241L19.4532 7.29004L18.9126 5.49489L17.8354 5.81925ZM2.13477 5.91995L1.05344 5.60954L0.486153 7.58571L2.45635 6.998L2.13477 5.91995ZM3.1575 5.61487L3.69051 4.62415L3.28125 4.40397L2.83591 4.53681L3.1575 5.61487ZM9.99989 6.10569e-05C6.47722 6.10569e-05 3.47722 2.22576 2.32401 5.34389L4.43431 6.12436C5.27148 3.86077 7.44901 2.25006 9.99989 2.25006V6.10569e-05ZM17.6296 5.22202C16.4441 2.16814 13.4766 6.10569e-05 9.99989 6.10569e-05V2.25006C12.5174 2.25006 14.6714 3.81886 15.5321 6.03622L17.6296 5.22202ZM16.4613 6.74776C16.7872 6.78256 17.193 6.83805 17.6148 6.92241L18.056 4.7161C17.5524 4.6154 17.0771 4.55073 16.7003 4.51049L16.4613 6.74776ZM18.9126 5.49489C17.7597 1.66597 14.2072 -1.12494 9.99989 -1.12494V1.12506C13.1871 1.12506 15.8835 3.23888 16.7582 6.14362L18.9126 5.49489ZM9.99989 -1.12494C5.75082 -1.12494 2.16951 1.72163 1.05344 5.60954L3.21609 6.23036C4.06268 3.28124 6.78094 1.12506 9.99989 1.12506V-1.12494ZM2.45635 6.998L3.47908 6.69293L2.83591 4.53681L1.81318 4.84189L2.45635 6.998ZM2.62448 6.60559L2.84614 6.72484L3.91217 4.74341L3.69051 4.62415L2.62448 6.60559Z" fill="#636C78" mask="url(#path-5-inside-1_451_438)"/>
</g>
</g>
</g>
</svg>
