<svg width="19" height="18" viewBox="0 0 19 18" fill="none" xmlns="http://www.w3.org/2000/svg">
<path id="Vector" d="M9.49942 0.80411C9.57051 0.80411 9.74519 0.824213 9.83863 1.01318L11.8516 5.04981C12.143 5.6348 12.7077 6.04088 13.3597 6.13435L17.8609 6.78166C18.0711 6.81182 18.1443 6.96962 18.1666 7.03697C18.189 7.10431 18.2225 7.27418 18.0711 7.42093L14.8141 10.563C14.3418 11.0183 14.1265 11.6747 14.2382 12.318L15.0071 16.7546C15.0274 16.8692 15 16.9707 14.9278 17.0552C14.8537 17.1426 14.743 17.1949 14.6343 17.1949C14.5754 17.1949 14.5165 17.1798 14.4576 17.1497L10.4317 15.0549C10.1453 14.9062 9.82339 14.8268 9.49942 14.8268C9.17544 14.8268 8.85349 14.9052 8.56709 15.0549L4.54122 17.1497C4.48333 17.1798 4.42341 17.1949 4.3645 17.1949C4.25481 17.1949 4.14513 17.1426 4.07099 17.0552C3.99888 16.9707 3.97248 16.8692 3.99177 16.7546L4.76059 12.318C4.8723 11.6747 4.657 11.0183 4.18474 10.563L0.927682 7.42093C0.775341 7.27418 0.809871 7.10331 0.832215 7.03697C0.854558 6.97063 0.927682 6.81182 1.13791 6.78166L5.63909 6.13435C6.29212 6.04088 6.85579 5.6348 7.14727 5.04981L9.1602 1.01318C9.25465 0.825218 9.42832 0.80411 9.49942 0.80411ZM9.49942 0C9.07489 0 8.65037 0.21912 8.43201 0.65736L6.41908 4.69399C6.24541 5.04177 5.91026 5.283 5.52229 5.33828L1.02112 5.98559C0.044103 6.12631 -0.345891 7.31439 0.360973 7.99587L3.61803 11.1379C3.89834 11.4083 4.0263 11.7983 3.96029 12.1813L3.19147 16.6179C3.05944 17.3798 3.67084 17.998 4.3645 17.998C4.54731 17.998 4.73621 17.9548 4.91902 17.8603L8.94489 15.7656C9.11856 15.6751 9.30848 15.6299 9.49942 15.6299C9.69035 15.6299 9.88027 15.6751 10.0539 15.7656L14.0798 17.8603C14.2626 17.9548 14.4515 17.998 14.6343 17.998C15.328 17.998 15.9394 17.3788 15.8074 16.6179L15.0385 12.1813C14.9725 11.7993 15.1005 11.4093 15.3808 11.1379L18.6379 7.99587C19.3447 7.31439 18.9547 6.12631 17.9777 5.98559L13.4765 5.33828C13.0886 5.283 12.7534 5.04177 12.5798 4.69399L10.5678 0.65736C10.3495 0.21912 9.92496 0 9.50043 0L9.49942 0Z" fill="#FFBC00"/>
</svg>
