<svg width="32" height="32" viewBox="0 0 32 32" fill="none" xmlns="http://www.w3.org/2000/svg">
<g id="vuesax/outline/profile-2user">
<g id="profile-2user">
<path id="Vector" d="M12.2808 15.7555C12.2421 15.7555 12.2162 15.7555 12.1775 15.7555C12.1129 15.7426 12.0225 15.7426 11.945 15.7555C8.19956 15.6393 5.37109 12.6946 5.37109 9.06538C5.37109 5.37159 8.38037 2.3623 12.0742 2.3623C15.768 2.3623 18.7772 5.37159 18.7772 9.06538C18.7643 12.6946 15.9229 15.6393 12.3196 15.7555C12.3066 15.7555 12.2937 15.7555 12.2808 15.7555ZM12.0742 4.29961C9.45235 4.29961 7.3084 6.44356 7.3084 9.06538C7.3084 11.6485 9.3232 13.7278 11.8934 13.8182C11.9708 13.8053 12.1387 13.8053 12.3066 13.8182C14.8381 13.702 16.827 11.6226 16.8399 9.06538C16.8399 6.44356 14.696 4.29961 12.0742 4.29961Z" fill="#636C78"/>
<path id="Vector_2" d="M21.8122 15.9234C21.7734 15.9234 21.7347 15.9234 21.6959 15.9105C21.1664 15.9622 20.624 15.5876 20.5723 15.0581C20.5206 14.5286 20.8435 14.0507 21.373 13.9861C21.528 13.9732 21.6959 13.9732 21.838 13.9732C23.7236 13.8699 25.196 12.32 25.196 10.4215C25.196 8.45835 23.6074 6.86976 21.6443 6.86976C21.1147 6.88268 20.6756 6.44356 20.6756 5.91403C20.6756 5.3845 21.1147 4.94537 21.6443 4.94537C24.6665 4.94537 27.1333 7.41221 27.1333 10.4344C27.1333 13.4049 24.8085 15.8072 21.8509 15.9234C21.838 15.9234 21.8251 15.9234 21.8122 15.9234Z" fill="#636C78"/>
<path id="Vector_3" d="M12.2935 29.872C9.76212 29.872 7.2178 29.2262 5.29341 27.9347C3.49817 26.7465 2.5166 25.1192 2.5166 23.3497C2.5166 21.5803 3.49817 19.9401 5.29341 18.739C9.16802 16.1688 15.4449 16.1688 19.2937 18.739C21.076 19.9272 22.0705 21.5545 22.0705 23.3239C22.0705 25.0933 21.0889 26.7336 19.2937 27.9347C17.3564 29.2262 14.8249 29.872 12.2935 29.872ZM6.36538 20.3663C5.12551 21.1929 4.45391 22.2519 4.45391 23.3627C4.45391 24.4605 5.13842 25.5195 6.36538 26.3332C9.58131 28.4901 15.0058 28.4901 18.2217 26.3332C19.4616 25.5066 20.1332 24.4476 20.1332 23.3368C20.1332 22.239 19.4486 21.18 18.2217 20.3663C15.0058 18.2223 9.58131 18.2223 6.36538 20.3663Z" fill="#636C78"/>
<path id="Vector_4" d="M24.137 27.5473C23.685 27.5473 23.2846 27.2373 23.1942 26.7724C23.0909 26.2428 23.4267 25.7391 23.9433 25.6229C24.757 25.455 25.5061 25.1321 26.0873 24.6801C26.8234 24.1247 27.2238 23.4273 27.2238 22.6911C27.2238 21.9549 26.8234 21.2575 26.1002 20.7151C25.5319 20.2759 24.8215 19.966 23.9821 19.7722C23.4654 19.656 23.1296 19.1394 23.2459 18.6099C23.3621 18.0932 23.8787 17.7574 24.4083 17.8737C25.519 18.1191 26.4876 18.5582 27.2755 19.1652C28.4766 20.0693 29.1611 21.3479 29.1611 22.6911C29.1611 24.0343 28.4637 25.3129 27.2626 26.2299C26.4618 26.8499 25.4544 27.3019 24.3437 27.5215C24.2662 27.5473 24.2016 27.5473 24.137 27.5473Z" fill="#636C78"/>
</g>
</g>
</svg>
