<svg width="18" height="18" viewBox="0 0 18 18" fill="none" xmlns="http://www.w3.org/2000/svg">
<g id="vuesax/outline/user-edit">
<g id="user-edit">
<path id="Vector" d="M9 9.5625C6.6225 9.5625 4.6875 7.6275 4.6875 5.25C4.6875 2.8725 6.6225 0.9375 9 0.9375C11.3775 0.9375 13.3125 2.8725 13.3125 5.25C13.3125 7.6275 11.3775 9.5625 9 9.5625ZM9 2.0625C7.245 2.0625 5.8125 3.495 5.8125 5.25C5.8125 7.005 7.245 8.4375 9 8.4375C10.755 8.4375 12.1875 7.005 12.1875 5.25C12.1875 3.495 10.755 2.0625 9 2.0625Z" fill="#636C78"/>
<path id="Vector_2" d="M11.8652 17.0625C11.5802 17.0625 11.3102 16.9575 11.1152 16.7625C10.8827 16.53 10.7777 16.1925 10.8302 15.84L10.9727 14.8275C11.0102 14.565 11.1677 14.2575 11.3552 14.0625L14.0102 11.4075C15.0752 10.3425 16.0127 10.95 16.4702 11.4075C16.8602 11.7975 17.0627 12.2175 17.0627 12.6375C17.0627 13.065 16.8677 13.4625 16.4702 13.86L13.8151 16.515C13.6276 16.7025 13.3127 16.8601 13.0502 16.8976L12.0377 17.04C11.9777 17.055 11.9252 17.0625 11.8652 17.0625ZM15.2327 11.94C15.0977 11.94 14.9777 12.03 14.8052 12.2025L12.1502 14.8575C12.1277 14.88 12.0902 14.955 12.0902 14.985L11.9552 15.9225L12.8927 15.7875C12.9227 15.78 12.9976 15.7425 13.0201 15.72L15.6752 13.065C15.7952 12.945 15.9377 12.7725 15.9377 12.6375C15.9377 12.525 15.8477 12.3675 15.6752 12.2025C15.4952 12.0225 15.3602 11.94 15.2327 11.94Z" fill="#636C78"/>
<path id="Vector_3" d="M15.6899 14.415C15.6374 14.415 15.5849 14.4075 15.5399 14.3925C14.5499 14.115 13.7624 13.3275 13.4849 12.3375C13.4024 12.0375 13.575 11.73 13.875 11.6475C14.175 11.565 14.4825 11.7375 14.5649 12.0375C14.7375 12.6525 15.225 13.14 15.84 13.3125C16.14 13.395 16.3125 13.71 16.23 14.0025C16.1625 14.25 15.9374 14.415 15.6899 14.415Z" fill="#636C78"/>
<path id="Vector_4" d="M2.55762 17.0625C2.25012 17.0625 1.99512 16.8075 1.99512 16.5C1.99512 13.2975 5.13764 10.6875 9.00014 10.6875C9.81764 10.6875 10.6276 10.8075 11.3851 11.0325C11.6851 11.1225 11.8501 11.4375 11.7601 11.73C11.6701 12.03 11.3551 12.195 11.0626 12.105C10.4026 11.91 9.71264 11.805 9.00014 11.805C5.76014 11.805 3.12012 13.905 3.12012 16.4925C3.12012 16.8075 2.86512 17.0625 2.55762 17.0625Z" fill="#636C78"/>
</g>
</g>
</svg>
