<svg width="18" height="18" viewBox="0 0 18 18" fill="none" xmlns="http://www.w3.org/2000/svg">
<g id="vuesax/outline/home">
<g id="home">
<path id="Vector" d="M9 14.0625C8.6925 14.0625 8.4375 13.8075 8.4375 13.5V11.25C8.4375 10.9425 8.6925 10.6875 9 10.6875C9.3075 10.6875 9.5625 10.9425 9.5625 11.25V13.5C9.5625 13.8075 9.3075 14.0625 9 14.0625Z" fill="white"/>
<path id="Vector_2" d="M13.2 16.92H4.79997C3.43497 16.92 2.18997 15.87 1.96497 14.5275L0.96747 8.54999C0.80247 7.61999 1.25997 6.42749 2.00247 5.83499L7.19997 1.67249C8.20497 0.862489 9.78747 0.869989 10.8 1.67999L15.9975 5.83499C16.7325 6.42749 17.1825 7.61999 17.0325 8.54999L16.035 14.52C15.81 15.8475 14.535 16.92 13.2 16.92ZM8.99247 2.19749C8.59497 2.19749 8.19747 2.31749 7.90497 2.54999L2.70747 6.71999C2.28747 7.05749 1.98747 7.83749 2.07747 8.36999L3.07497 14.34C3.20997 15.1275 3.99747 15.795 4.79997 15.795H13.2C14.0025 15.795 14.79 15.1275 14.925 14.3325L15.9225 8.36249C16.005 7.83749 15.705 7.04249 15.2925 6.71249L10.095 2.55749C9.79497 2.31749 9.38997 2.19749 8.99247 2.19749Z" fill="white"/>
</g>
</g>
</svg>
