<svg width="18" height="18" viewBox="0 0 18 18" fill="none" xmlns="http://www.w3.org/2000/svg">
<g id="vuesax/outline/bag-2">
<g id="bag-2">
<path id="Vector" d="M12.375 6.47248C12.0675 6.47248 11.8125 6.21748 11.8125 5.90998V4.87498C11.8125 4.08748 11.475 3.32248 10.89 2.78998C10.2975 2.24998 9.5325 2.00248 8.7225 2.07748C7.3725 2.20498 6.1875 3.58498 6.1875 5.02498V5.75248C6.1875 6.05998 5.9325 6.31498 5.625 6.31498C5.3175 6.31498 5.0625 6.05998 5.0625 5.75248V5.01748C5.0625 2.99998 6.69 1.13998 8.6175 0.95248C9.7425 0.84748 10.8225 1.19998 11.6475 1.95748C12.465 2.69998 12.9375 3.76498 12.9375 4.87498V5.90998C12.9375 6.21748 12.6825 6.47248 12.375 6.47248Z" fill="#636C78"/>
<path id="Vector_2" d="M11.2501 17.0625H6.75011C3.28511 17.0625 2.64011 15.45 2.47511 13.8825L1.91261 9.39C1.83011 8.58 1.80011 7.4175 2.58761 6.5475C3.26261 5.7975 4.38011 5.4375 6.00011 5.4375H12.0001C13.6276 5.4375 14.7451 5.805 15.4126 6.5475C16.1926 7.4175 16.1701 8.58 16.0876 9.375L15.5251 13.8825C15.3601 15.45 14.7151 17.0625 11.2501 17.0625ZM6.00011 6.5625C4.73261 6.5625 3.86261 6.81 3.42011 7.305C3.05261 7.71 2.93261 8.3325 3.03011 9.2625L3.59261 13.755C3.72011 14.955 4.05011 15.945 6.75011 15.945H11.2501C13.9501 15.945 14.2801 14.9625 14.4076 13.77L14.9701 9.2625C15.0676 8.3475 14.9476 7.725 14.5801 7.3125C14.1376 6.81 13.2676 6.5625 12.0001 6.5625H6.00011Z" fill="#636C78"/>
<path id="Vector_3" d="M11.5651 9.86255C11.1451 9.86255 10.8076 9.52505 10.8076 9.11255C10.8076 8.70005 11.1451 8.36255 11.5576 8.36255C11.9701 8.36255 12.3076 8.70005 12.3076 9.11255C12.3076 9.52505 11.9776 9.86255 11.5651 9.86255Z" fill="#636C78"/>
<path id="Vector_4" d="M6.31512 9.86255C5.89512 9.86255 5.55762 9.52505 5.55762 9.11255C5.55762 8.70005 5.89512 8.36255 6.30762 8.36255C6.72012 8.36255 7.05762 8.70005 7.05762 9.11255C7.05762 9.52505 6.72762 9.86255 6.31512 9.86255Z" fill="#636C78"/>
</g>
</g>
</svg>
