<svg width="18" height="18" viewBox="0 0 18 18" fill="none" xmlns="http://www.w3.org/2000/svg">
<g id="vuesax/outline/empty-wallet">
<g id="empty-wallet">
<path id="Vector" d="M13.305 17.0625H4.695C2.8275 17.0625 1.3125 15.5475 1.3125 13.68V8.63251C1.3125 6.76501 2.8275 5.25 4.695 5.25H13.305C15.1725 5.25 16.6875 6.76501 16.6875 8.63251V9.71251C16.6875 10.02 16.4325 10.275 16.125 10.275H14.61C14.3475 10.275 14.1075 10.3725 13.935 10.5525L13.9275 10.56C13.7175 10.7625 13.62 11.04 13.6425 11.325C13.6875 11.82 14.16 12.2175 14.7 12.2175H16.125C16.4325 12.2175 16.6875 12.4725 16.6875 12.78V13.6725C16.6875 15.5475 15.1725 17.0625 13.305 17.0625ZM4.695 6.375C3.45 6.375 2.4375 7.38751 2.4375 8.63251V13.68C2.4375 14.925 3.45 15.9375 4.695 15.9375H13.305C14.55 15.9375 15.5625 14.925 15.5625 13.68V13.35H14.7C13.5675 13.35 12.6075 12.51 12.5175 11.43C12.4575 10.815 12.6825 10.2075 13.1325 9.76501C13.5225 9.36751 14.0475 9.15001 14.61 9.15001H15.5625V8.63251C15.5625 7.38751 14.55 6.375 13.305 6.375H4.695Z" fill="#636C78"/>
<path id="Vector_2" d="M1.875 9.87001C1.5675 9.87001 1.3125 9.61501 1.3125 9.30751V5.88005C1.3125 4.76255 2.0175 3.75 3.06 3.3525L9.015 1.1025C9.63 0.870004 10.3125 0.952541 10.845 1.32754C11.385 1.70254 11.7 2.31004 11.7 2.96254V5.81253C11.7 6.12003 11.445 6.37503 11.1375 6.37503C10.83 6.37503 10.575 6.12003 10.575 5.81253V2.96254C10.575 2.67754 10.44 2.41503 10.2 2.25003C9.96 2.08503 9.675 2.04752 9.405 2.15252L3.45 4.40252C2.8425 4.63502 2.43 5.22755 2.43 5.88005V9.30751C2.4375 9.62251 2.1825 9.87001 1.875 9.87001Z" fill="#636C78"/>
<path id="Vector_3" d="M14.6999 13.3499C13.5674 13.3499 12.6074 12.5099 12.5174 11.4299C12.4574 10.8074 12.6824 10.1999 13.1324 9.7574C13.5149 9.3674 14.0399 9.1499 14.6024 9.1499H16.1624C16.9049 9.1724 17.4749 9.75737 17.4749 10.4774V12.0224C17.4749 12.7424 16.9049 13.3274 16.1849 13.3499H14.6999ZM16.1474 10.2749H14.6099C14.3474 10.2749 14.1074 10.3724 13.9349 10.5524C13.7174 10.7624 13.6124 11.0474 13.6424 11.3324C13.6874 11.8274 14.1599 12.2249 14.6999 12.2249H16.1699C16.2674 12.2249 16.3574 12.1349 16.3574 12.0224V10.4774C16.3574 10.3649 16.2674 10.2824 16.1474 10.2749Z" fill="#636C78"/>
<path id="Vector_4" d="M10.5 9.5625H5.25C4.9425 9.5625 4.6875 9.3075 4.6875 9C4.6875 8.6925 4.9425 8.4375 5.25 8.4375H10.5C10.8075 8.4375 11.0625 8.6925 11.0625 9C11.0625 9.3075 10.8075 9.5625 10.5 9.5625Z" fill="#636C78"/>
</g>
</g>
</svg>
