<svg width="41" height="42" viewBox="0 0 41 42" fill="none" xmlns="http://www.w3.org/2000/svg">
<g id="vuesax/outline/whatsapp">
<g id="whatsapp">
<path id="Vector" d="M3.40784 39.1797C3.07126 39.1797 2.75146 39.045 2.51585 38.8094C2.1961 38.4897 2.06154 38.0184 2.17935 37.5809L4.29983 29.6544C2.88619 27.029 2.14566 24.0671 2.14566 21.0715C2.14566 11.0919 10.2573 2.98022 20.237 2.98022C30.2166 2.98022 38.3283 11.0919 38.3283 21.0715C38.3283 31.0512 30.2166 39.1628 20.237 39.1628C17.1909 39.1628 14.2122 38.4055 11.5532 36.9582L3.74444 39.1292C3.62664 39.1628 3.52564 39.1797 3.40784 39.1797ZM11.7214 34.3497C11.9402 34.3497 12.159 34.4171 12.3609 34.518C14.7338 35.9148 17.4602 36.6553 20.237 36.6553C28.8198 36.6553 35.8039 29.6712 35.8039 21.0884C35.8039 12.5055 28.8198 5.52144 20.237 5.52144C11.6541 5.52144 4.67002 12.5055 4.67002 21.0884C4.67002 23.8315 5.39366 26.5073 6.75682 28.8634C6.92511 29.1495 6.97563 29.5029 6.89148 29.8227L5.20857 36.1168L11.4017 34.4002C11.5026 34.3666 11.6205 34.3497 11.7214 34.3497Z" fill="#636C78"/>
<path id="Vector_2" d="M24.848 30.782C23.8046 30.782 22.7275 30.5463 21.6 30.0583C20.5397 29.6039 19.4795 28.9981 18.4529 28.2407C17.4432 27.5003 16.4503 26.6588 15.5415 25.75C14.6327 24.8244 13.7912 23.8484 13.0507 22.8386C12.2934 21.7784 11.6876 20.7349 11.25 19.7084C10.7788 18.5976 10.5432 17.5038 10.5432 16.4604C10.5432 15.7199 10.6778 15.0131 10.9302 14.3567C11.1995 13.6667 11.6371 13.044 12.2093 12.5055C13.2863 11.4453 14.8347 11.0582 16.0632 11.6473C16.4839 11.8324 16.8373 12.1353 17.1066 12.5392L19.0587 15.2823C19.2607 15.5516 19.4122 15.8377 19.53 16.1238C19.6646 16.4603 19.7488 16.797 19.7488 17.1167C19.7488 17.5543 19.631 17.9918 19.3953 18.3789C19.2439 18.6313 19.0251 18.9343 18.739 19.2204L18.5202 19.4559C18.6212 19.5906 18.739 19.7588 18.9241 19.9608C19.2775 20.3647 19.6646 20.8023 20.0853 21.223C20.506 21.6269 20.9267 22.0308 21.3475 22.3842C21.5494 22.5525 21.7178 22.6871 21.8524 22.7713L22.088 22.5357C22.3909 22.2327 22.6939 21.9972 22.9968 21.8457C23.5522 21.4923 24.4104 21.4081 25.1677 21.7279C25.437 21.8289 25.7062 21.9803 25.9923 22.1823L28.8029 24.1681C29.1899 24.4373 29.4928 24.8076 29.6948 25.2283C29.863 25.649 29.9304 26.0193 29.9304 26.4064C29.9304 26.9113 29.8126 27.3993 29.5938 27.8705C29.375 28.3081 29.1225 28.6952 28.8196 29.0486C28.2811 29.6376 27.6585 30.0751 26.9853 30.3612C26.3121 30.6473 25.5884 30.782 24.848 30.782ZM14.8346 13.9192C14.7336 13.9192 14.3971 13.9192 13.9764 14.3399C13.6567 14.6428 13.4378 14.9626 13.2864 15.316C13.1349 15.6694 13.0676 16.0733 13.0676 16.4772C13.0676 17.184 13.2359 17.9413 13.5724 18.7491C13.9258 19.5906 14.4476 20.4825 15.0871 21.3745C15.7434 22.2664 16.4839 23.1584 17.3086 23.983C18.1332 24.7908 19.0083 25.5481 19.917 26.2212C20.7922 26.8607 21.6841 27.3656 22.5761 27.7527C23.8551 28.308 25.0331 28.4427 25.9923 28.0388C26.3289 27.9042 26.6318 27.6686 26.9348 27.3656C27.0862 27.1974 27.2041 27.029 27.305 26.8103C27.3555 26.6925 27.3892 26.5578 27.3892 26.44C27.3892 26.4064 27.3891 26.3559 27.3386 26.2549L24.5282 24.3027C24.4104 24.2186 24.2926 24.1512 24.1916 24.1176C24.1243 24.1512 24.0234 24.2017 23.8383 24.3869L23.1987 25.0264C22.7107 25.5144 21.9366 25.649 21.3139 25.4303L21.011 25.2956C20.6239 25.0937 20.1863 24.7908 19.6983 24.3701C19.227 23.9662 18.7727 23.5454 18.2847 23.0742C17.8135 22.5862 17.3927 22.1318 16.9888 21.6606C16.5512 21.1389 16.2483 20.7181 16.0464 20.3647L15.8613 19.9272C15.8108 19.7589 15.7939 19.5738 15.7939 19.4055C15.7939 18.9342 15.9622 18.5135 16.282 18.1769L16.9215 17.5206C17.1066 17.3355 17.1739 17.2345 17.2076 17.1672C17.1571 17.0494 17.0898 16.9484 17.0056 16.8306L15.0366 14.0538L14.8346 13.9192Z" fill="#636C78"/>
</g>
</g>
</svg>
