<svg width="41" height="42" viewBox="0 0 41 42" fill="none" xmlns="http://www.w3.org/2000/svg">
<g id="vuesax/outline/youtube">
<g id="youtube">
<path id="Vector" d="M29.032 35.8139H12.2029C6.41365 35.8139 2.52612 31.9263 2.52612 26.1371V16.0397C2.52612 10.2504 6.41365 6.36292 12.2029 6.36292H29.032C34.8212 6.36292 38.7087 10.2504 38.7087 16.0397V26.1371C38.7087 31.9263 34.8212 35.8139 29.032 35.8139ZM12.2029 8.88728C7.86095 8.88728 5.05049 11.6977 5.05049 16.0397V26.1371C5.05049 30.479 7.86095 33.2895 12.2029 33.2895H29.032C33.3739 33.2895 36.1844 30.479 36.1844 26.1371V16.0397C36.1844 11.6977 33.3739 8.88728 29.032 8.88728H12.2029Z" fill="#636C78"/>
<path id="Vector_2" d="M18.2448 27.0291C17.7567 27.0291 17.2855 26.9113 16.8648 26.6757C15.8887 26.1204 15.3164 24.9928 15.3164 23.596V18.6146C15.3164 17.2177 15.8718 16.0902 16.8648 15.5349C17.8408 14.9795 19.103 15.0804 20.2979 15.8041L24.4547 18.2948C25.5991 18.9848 26.2553 20.0114 26.2553 21.1053C26.2553 22.1992 25.5991 23.2257 24.4547 23.9157L20.2979 26.4065C19.6079 26.8104 18.9011 27.0291 18.2448 27.0291ZM18.2448 17.6721C18.1774 17.6721 18.1269 17.6889 18.0933 17.7058C17.9754 17.7731 17.8408 18.076 17.8408 18.5977V23.5792C17.8408 24.084 17.9754 24.387 18.0933 24.4711C18.2279 24.5384 18.5477 24.5048 18.9852 24.2355L23.142 21.7448C23.5627 21.4924 23.7142 21.2399 23.7142 21.0884C23.7142 20.937 23.5627 20.7014 23.142 20.4321L18.9852 17.9414C18.6823 17.7563 18.413 17.6721 18.2448 17.6721Z" fill="#636C78"/>
</g>
</g>
</svg>
